{
.appVersion = "1286";
classes = (
{
automatic = 1;

glyphs = (
{
glyphname = .notdef;
layers = (
{
layerId = "3B122060-26E0-4730-9241-82784E6CB359";
paths = (
{
closed = 1;
nodes = (
"954 0 LINE",
"954 1600 LINE",
"140 1600 LINE",
"140 0 LINE"
);
},
{
closed = 1;
nodes = (
"541 705 LINE",
"826 76 LINE",
"256 76 LINE"
);
},
{
closed = 1;
nodes = (
"220 1411 LINE",
"497 801 LINE",
"220 191 LINE"
);
},
{
closed = 1;
nodes = (
"584 802 LINE",
"874 1440 LINE",
"874 163 LINE"
);
},
{
closed = 1;
nodes = (
"257 1524 LINE",
"824 1524 LINE",
"541 898 LINE"
);
}
);
width = 1094;
},
{
background = {
paths = (
{
closed = 1;
nodes = (
"390 0 LINE",
"390 492 LINE",
"334 1336 LINE",
"426 1336 LINE",
"512 472 LINE",
"634 0 LINE",
"1006 0 LINE",
"1140 472 LINE",
"1224 1336 LINE",
"1318 1336 LINE",
"1260 492 LINE",
"1260 0 LINE",
"1570 0 LINE",
"1570 1600 LINE",
"1030 1600 LINE",
"896 994 LINE",
"872 264 LINE",
"780 264 LINE",
"754 994 LINE",
"622 1600 LINE",
"80 1600 LINE",
"80 0 LINE"
);
}
);
};
layerId = "1DFA7D5B-2E97-4B89-827F-FB43F8066DC1";
paths = (
{
closed = 1;
nodes = (
"1570 0 LINE",
"1570 1600 LINE",
"80 1600 LINE",
"80 0 LINE"
);
},
{
closed = 1;
nodes = (
"826 566 LINE",
"1083 264 LINE",
"569 264 LINE"
);
},
{
closed = 1;
nodes = (
"380 1090 LINE",
"628 798 LINE",
"380 506 LINE"
);
},
{
closed = 1;
nodes = (
"1023 798 LINE",
"1270 1089 LINE",
"1270 507 LINE"
);
},
{
closed = 1;
nodes = (
"565 1336 LINE",
"1085 1336 LINE",
"825 1030 LINE"
);
}
);
width = 1650;
},
{
background = {
paths = (
{
closed = 1;
nodes = (
"380 0 LINE",
"380 492 LINE",
"324 1336 LINE",
"376 1336 LINE",
"462 472 LINE",
"584 0 LINE",
"906 0 LINE",
"1030 472 LINE",
"1114 1336 LINE",
"1168 1336 LINE",
"1110 492 LINE",
"1110 0 LINE",
"1410 0 LINE",
"1410 1600 LINE",
"930 1600 LINE",
"796 994 LINE",
"772 264 LINE",
"720 264 LINE",
"694 994 LINE",
"562 1600 LINE",
"80 1600 LINE",
"80 0 LINE"
);
}
);
};
layerId = "5013C991-8699-46CB-BB1C-82E334DBD38B";
paths = (
{
closed = 1;
nodes = (
"1410 0 LINE",
"1410 1600 LINE",
"80 1600 LINE",
"80 0 LINE"
);
},
{
closed = 1;
nodes = (
"746 525 LINE",
"918 264 LINE",
"573 264 LINE"
);
},
{
closed = 1;
nodes = (
"380 1080 LINE",
"566 798 LINE",
"380 516 LINE"
);
},
{
closed = 1;
nodes = (
"925 798 LINE",
"1110 1078 LINE",
"1110 517 LINE"
);
},
{
closed = 1;
nodes = (
"571 1336 LINE",
"920 1336 LINE",
"746 1071 LINE"
);
}
);
width = 1490;
},
{
background = {
paths = (
{
closed = 1;
nodes = (
"160 0 LINE",
"160 548 LINE",
"160 1560 LINE",
"196 1560 LINE",
"314 452 LINE",
"358 10 LINE",
"456 10 LINE",
"500 452 LINE",
"618 1560 LINE",
"654 1560 LINE",
"654 548 LINE",
"654 0 LINE",
"694 0 LINE",
"694 1600 LINE",
"582 1600 LINE",
"506 918 LINE",
"420 50 LINE",
"394 50 LINE",
"308 918 LINE",
"232 1600 LINE",
"120 1600 LINE",
"120 0 LINE"
);
}
);
};
layerId = "3D06B89B-468F-44E0-A3D7-A5BC6911123E";
paths = (
{
closed = 1;
nodes = (
"694 0 LINE",
"694 1600 LINE",
"120 1600 LINE",
"120 0 LINE"
);
},
{
closed = 1;
nodes = (
"407 739 LINE",
"636 40 LINE",
"178 40 LINE"
);
},
{
closed = 1;
nodes = (
"160 1494 LINE",
"386 804 LINE",
"160 114 LINE"
);
},
{
closed = 1;
nodes = (
"428 804 LINE",
"654 1494 LINE",
"654 114 LINE"
);
},
{
closed = 1;
nodes = (
"180 1560 LINE",
"634 1560 LINE",
"407 868 LINE"
);
}
);
width = 814;
},
{
background = {
paths = (
{
closed = 1;
nodes = (
"216 0 LINE",
"216 462 LINE",
"200 1504 LINE",
"242 1504 LINE",
"352 458 LINE",
"414 8 LINE",
"568 8 LINE",
"632 458 LINE",
"742 1504 LINE",
"786 1504 LINE",
"768 462 LINE",
"768 0 LINE",
"874 0 LINE",
"874 1600 LINE",
"670 1600 LINE",
"578 938 LINE",
"510 104 LINE",
"474 104 LINE",
"404 938 LINE",
"314 1600 LINE",
"110 1600 LINE",
"110 0 LINE"
);
}
);
};
layerId = "C9EB94EC-C68D-4931-B320-068DCAB9FADA";
paths = (
{
closed = 1;
nodes = (
"874 0 LINE",
"874 1600 LINE",
"110 1600 LINE",
"110 0 LINE"
);
},
{
closed = 1;
nodes = (
"492 657 LINE",
"716 96 LINE",
"268 96 LINE"
);
},
{
closed = 1;
nodes = (
"215 1350 LINE",
"435 800 LINE",
"215 249 LINE"
);
},
{
closed = 1;
nodes = (
"549 799 LINE",
"769 1350 LINE",
"769 249 LINE"
);
},
{
closed = 1;
nodes = (
"267 1504 LINE",
"717 1504 LINE",
"492 942 LINE"
);
}
);
width = 984;
},
{
background = {
paths = (
{
closed = 1;
nodes = (
"263 0 LINE",
"263 501 LINE",
"249 1477 LINE",
"332 1477 LINE",
"439 457 LINE",
"504 8 LINE",
"727 8 LINE",
"795 457 LINE",
"902 1477 LINE",
"985 1477 LINE",
"971 501 LINE",
"971 0 LINE",
"1108 0 LINE",
"1108 1600 LINE",
"799 1600 LINE",
"710 937 LINE",
"641 131 LINE",
"593 131 LINE",
"523 937 LINE",
"435 1600 LINE",
"125 1600 LINE",
"125 0 LINE"
);
}
);
};
layerId = "6F82CFD7-79D5-473B-9D61-BE5DF154BBF2";
paths = (
{
closed = 1;
nodes = (
"1108 0 LINE",
"1108 1600 LINE",
"125 1600 LINE",
"125 0 LINE"
);
},
{
closed = 1;
nodes = (
"617 642 LINE",
"900 123 LINE",
"334 123 LINE"
);
},
{
closed = 1;
nodes = (
"260 1297 LINE",
"540 783 LINE",
"260 271 LINE"
);
},
{
closed = 1;
nodes = (
"694 783 LINE",
"973 1295 LINE",
"973 273 LINE"
);
},
{
closed = 1;
nodes = (
"315 1477 LINE",
"919 1477 LINE",
"617 924 LINE"
);
}
);
width = 1233;
}
);
},
{
glyphname = A;
layers = (
{
anchors = (
{
name = bottom;
position = "{336, 0}";
},
{
name = ogonek;
position = "{552, 0}";
},
{
name = top;
position = "{336, 1600}";
}
);
layerId = "3B122060-26E0-4730-9241-82784E6CB359";
paths = (
{
closed = 1;
nodes = (
"162 0 LINE",
"206 518 LINE",
"466 518 LINE",
"510 0 LINE",
"592 0 LINE",
"448 1600 LINE",
"224 1600 LINE",
"80 0 LINE"
);
},
{
closed = 1;
nodes = (
"240 922 LINE",
"296 1524 LINE",
"376 1524 LINE",
"432 924 LINE",
"460 594 LINE",
"212 594 LINE"
);
}
);
width = 672;
},
{
anchors = (
{
name = bottom;
position = "{518, 0}";
},
{
name = ogonek;
position = "{766, 0}";
},
{
name = top;
position = "{518, 1600}";
}
);
color = -1;
layerId = "1DFA7D5B-2E97-4B89-827F-FB43F8066DC1";
paths = (
{
closed = 1;
nodes = (
"348 0 LINE",
"382 334 LINE",
"654 334 LINE",
"688 0 LINE",
"996 0 LINE",
"774 1600 LINE",
"262 1600 LINE",
"40 0 LINE"
);
},
{
closed = 1;
nodes = (
"446 952 LINE",
"470 1336 LINE",
"566 1336 LINE",
"590 952 LINE",
"626 598 LINE",
"410 598 LINE"
);
}
);
width = 1036;
},
{
anchors = (
{
name = bottom;
position = "{498, 0}";
},
{
name = ogonek;
position = "{724, 0}";
},
{
name = top;
position = "{498, 1600}";
}
);
color = -1;
layerId = "5013C991-8699-46CB-BB1C-82E334DBD38B";
paths = (
{
closed = 1;
nodes = (
"348 0 LINE",
"382 334 LINE",
"614 334 LINE",
"648 0 LINE",
"956 0 LINE",
"734 1600 LINE",
"262 1600 LINE",
"40 0 LINE"
);
},
{
closed = 1;
nodes = (
"446 952 LINE",
"470 1336 LINE",
"526 1336 LINE",
"550 952 LINE",
"586 598 LINE",
"410 598 LINE"
);
}
);
width = 996;
},
{
anchors = (
{
name = bottom;
position = "{266, 0}";
},
{
name = ogonek;
position = "{448, 2}";
},
{
name = top;
position = "{266, 1600}";
}
);
layerId = "3D06B89B-468F-44E0-A3D7-A5BC6911123E";
paths = (
{
closed = 1;
nodes = (
"100 0 LINE",
"146 536 LINE",
"382 536 LINE",
"428 0 LINE",
"468 0 LINE",
"326 1600 LINE",
"202 1600 LINE",
"60 0 LINE"
);
},
{
closed = 1;
nodes = (
"180 922 LINE",
"236 1560 LINE",
"292 1560 LINE",
"348 924 LINE",
"378 576 LINE",
"150 576 LINE"
);
}
);
width = 508;
},
{
anchors = (
{
name = bottom;
position = "{324, 0}";
},
{
name = ogonek;
position = "{517, 2}";
},
{
name = top;
position = "{324, 1600}";
}
);
color = -1;
layerId = "C9EB94EC-C68D-4931-B320-068DCAB9FADA";
paths = (
{
closed = 1;
nodes = (
"162 0 LINE",
"205 486 LINE",
"440 486 LINE",
"483 0 LINE",
"590 0 LINE",
"428 1600 LINE",
"217 1600 LINE",
"55 0 LINE"
);
},
{
closed = 1;
nodes = (
"247 930 LINE",
"295 1504 LINE",
"351 1504 LINE",
"399 931 LINE",
"430 582 LINE",
"215 582 LINE"
);
}
);
width = 630;
},
{
anchors = (
{
name = bottom;
position = "{382, 0}";
},
{
name = ogonek;
position = "{606, 0}";
},
{
name = top;
position = "{382, 1600}";
}
);
layerId = "6F82CFD7-79D5-473B-9D61-BE5DF154BBF2";
paths = (
{
closed = 1;
nodes = (
"209 0 LINE",
"250 472 LINE",
"513 472 LINE",
"555 0 LINE",
"693 0 LINE",
"530 1600 LINE",
"234 1600 LINE",
"70 0 LINE"
);
},
{
closed = 1;
nodes = (
"292 930 LINE",
"340 1477 LINE",
"424 1477 LINE",
"472 931 LINE",
"502 595 LINE",
"262 595 LINE"
);
}
);
width = 763;
}
);
leftKerningGroup = A;
rightKerningGroup = A;
unicode = 0041;
},
{
glyphname = AE;
layers = (
{
anchors = (
{
name = bottom;
position = "{474, 0}";
},
{
name = ogonek;
position = "{868, 0}";
},
{
name = top;
position = "{558, 1600}";
},
{
name = topleft;
position = "{227, 1847}";
}
);
layerId = "3B122060-26E0-4730-9241-82784E6CB359";
paths = (
{
closed = 1;
nodes = (
"164 0 LINE",
"248 504 LINE",
"490 504 LINE",
"490 0 LINE",
"908 0 LINE",
"908 76 LINE",
"570 76 LINE",
"570 762 LINE",
"888 762 LINE",
"888 838 LINE",
"570 838 LINE",
"570 1524 LINE",
"908 1524 LINE",
"908 1600 LINE",
"348 1600 LINE",
"80 0 LINE"
);
},
{
closed = 1;
nodes = (
"318 914 LINE",
"414 1526 LINE",
"490 1526 LINE",
"490 580 LINE",
"262 580 LINE"
);
}
);
width = 1008;
},
{
anchors = (
{
name = bottom;
position = "{762, 0}";
},
{
name = ogonek;
position = "{1162, 0}";
},
{
name = top;
position = "{862, 1600}";
},
{
name = topleft;
position = "{692, 1600}";
}
);
color = -1;
layerId = "1DFA7D5B-2E97-4B89-827F-FB43F8066DC1";
paths = (
{
closed = 1;
nodes = (
"368 0 LINE",
"440 334 LINE",
"692 334 LINE",
"692 0 LINE",
"1424 0 LINE",
"1424 264 LINE",
"992 264 LINE",
"992 682 LINE",
"1404 682 LINE",
"1404 946 LINE",
"992 946 LINE",
"992 1336 LINE",
"1424 1336 LINE",
"1424 1600 LINE",
"372 1600 LINE",
"40 0 LINE"
);
},
{
closed = 1;
nodes = (
"556 872 LINE",
"600 1336 LINE",
"692 1336 LINE",
"692 598 LINE",
"496 598 LINE"
);
}
);
width = 1464;
},
{
anchors = (
{
name = bottom;
position = "{722, 0}";
},
{
name = ogonek;
position = "{1110, 0}";
},
{
name = top;
position = "{822, 1600}";
},
{
name = topleft;
position = "{612, 1600}";
}
);
color = -1;
layerId = "5013C991-8699-46CB-BB1C-82E334DBD38B";
paths = (
{
closed = 1;
nodes = (
"368 0 LINE",
"440 334 LINE",
"652 334 LINE",
"652 0 LINE",
"1344 0 LINE",
"1344 264 LINE",
"952 264 LINE",
"952 682 LINE",
"1324 682 LINE",
"1324 946 LINE",
"952 946 LINE",
"952 1336 LINE",
"1344 1336 LINE",
"1344 1600 LINE",
"372 1600 LINE",
"40 0 LINE"
);
},
{
closed = 1;
nodes = (
"556 872 LINE",
"600 1336 LINE",
"652 1336 LINE",
"652 598 LINE",
"496 598 LINE"
);
}
);
width = 1384;
},
{
anchors = (
{
name = bottom;
position = "{340, 0}";
},
{
name = ogonek;
position = "{574, 0}";
},
{
name = top;
position = "{410, 1600}";
},
{
name = topleft;
position = "{316, 1600}";
}
);
layerId = "3D06B89B-468F-44E0-A3D7-A5BC6911123E";
paths = (
{
closed = 1;
nodes = (
"100 0 LINE",
"174 536 LINE",
"356 536 LINE",
"356 0 LINE",
"674 0 LINE",
"674 40 LINE",
"396 40 LINE",
"396 780 LINE",
"654 780 LINE",
"654 820 LINE",
"396 820 LINE",
"396 1560 LINE",
"674 1560 LINE",
"674 1600 LINE",
"282 1600 LINE",
"60 0 LINE"
);
},
{
closed = 1;
nodes = (
"226 922 LINE",
"316 1560 LINE",
"356 1560 LINE",
"356 576 LINE",
"178 576 LINE"
);
}
);
width = 734;
},
{
anchors = (
{
name = bottom;
position = "{436, 0}";
},
{
name = ogonek;
position = "{708, 0}";
},
{
name = top;
position = "{513, 1600}";
},
{
name = topleft;
position = "{390, 1600}";
}
);
color = -1;
layerId = "C9EB94EC-C68D-4931-B320-068DCAB9FADA";
paths = (
{
closed = 1;
nodes = (
"167 0 LINE",
"241 486 LINE",
"430 486 LINE",
"430 0 LINE",
"842 0 LINE",
"842 96 LINE",
"535 96 LINE",
"535 756 LINE",
"822 756 LINE",
"822 852 LINE",
"535 852 LINE",
"535 1504 LINE",
"842 1504 LINE",
"842 1600 LINE",
"305 1600 LINE",
"55 0 LINE"
);
},
{
closed = 1;
nodes = (
"309 910 LINE",
"387 1504 LINE",
"430 1504 LINE",
"430 582 LINE",
"258 582 LINE"
);
}
);
width = 897;
},
{
anchors = (
{
name = bottom;
position = "{546, 0}";
},
{
name = ogonek;
position = "{942, 0}";
},
{
name = top;
position = "{634, 1600}";
},
{
name = topleft;
position = "{556, 1600}";
}
);
layerId = "6F82CFD7-79D5-473B-9D61-BE5DF154BBF2";
paths = (
{
closed = 1;
nodes = (
"215 0 LINE",
"296 462 LINE",
"541 462 LINE",
"541 0 LINE",
"1037 0 LINE",
"1037 123 LINE",
"676 123 LINE",
"676 742 LINE",
"1017 742 LINE",
"1017 865 LINE",
"676 865 LINE",
"676 1477 LINE",
"1037 1477 LINE",
"1037 1600 LINE",
"354 1600 LINE",
"70 0 LINE"
);
},
{
closed = 1;
nodes = (
"378 904 LINE",
"461 1479 LINE",
"541 1479 LINE",
"541 585 LINE",
"321 585 LINE"
);
}
);
width = 1122;
}
);
leftKerningGroup = A;
leftMetricsKey = A;
rightKerningGroup = E;
rightMetricsKey = E;
unicode = 00C6;
},
{
glyphname = B;
layers = (
{
layerId = "3B122060-26E0-4730-9241-82784E6CB359";
paths = (
{
closed = 1;
nodes = (
"386 0 LINE SMOOTH",
"548 0 OFFCURVE",
"614 56 OFFCURVE",
"618 196 CURVE SMOOTH",
"622 352 OFFCURVE",
"624 466 OFFCURVE",
"618 624 CURVE SMOOTH",
"614 718 OFFCURVE",
"578 770 OFFCURVE",
"490 790 CURVE",
"490 810 LINE",
"574 828 OFFCURVE",
"606 880 OFFCURVE",
"610 976 CURVE SMOOTH",
"614 1102 OFFCURVE",
"612 1218 OFFCURVE",
"610 1404 CURVE SMOOTH",
"608 1544 OFFCURVE",
"542 1600 OFFCURVE",
"378 1600 CURVE SMOOTH",
"140 1600 LINE",
"140 0 LINE"
);
},
{
closed = 1;
nodes = (
"220 760 LINE",
"394 760 LINE SMOOTH",
"502 760 OFFCURVE",
"534 730 OFFCURVE",
"538 624 CURVE SMOOTH",
"544 468 OFFCURVE",
"544 352 OFFCURVE",
"538 196 CURVE SMOOTH",
"534 104 OFFCURVE",
"504 80 OFFCURVE",
"386 80 CURVE SMOOTH",
"220 80 LINE"
);
},
{
closed = 1;
nodes = (
"220 1524 LINE",
"378 1524 LINE SMOOTH",
"496 1524 OFFCURVE",
"528 1498 OFFCURVE",
"530 1404 CURVE SMOOTH",
"534 1248 OFFCURVE",
"536 1132 OFFCURVE",
"530 976 CURVE SMOOTH",
"526 870 OFFCURVE",
"502 840 OFFCURVE",
"402 840 CURVE SMOOTH",
"220 840 LINE"
);
}
);
width = 742;
},
{
layerId = "1DFA7D5B-2E97-4B89-827F-FB43F8066DC1";
paths = (
{
closed = 1;
nodes = (
"490 0 LINE SMOOTH",
"788 0 OFFCURVE",
"908 112 OFFCURVE",
"920 390 CURVE SMOOTH",
"922 436 OFFCURVE",
"922 470 OFFCURVE",
"920 514 CURVE SMOOTH",
"914 664 OFFCURVE",
"860 748 OFFCURVE",
"738 788 CURVE",
"738 836 LINE",
"856 876 OFFCURVE",
"908 958 OFFCURVE",
"918 1104 CURVE SMOOTH",
"920 1138 OFFCURVE",
"920 1172 OFFCURVE",
"920 1210 CURVE SMOOTH",
"920 1488 OFFCURVE",
"788 1600 OFFCURVE",
"490 1600 CURVE SMOOTH",
"80 1600 LINE",
"80 0 LINE"
);
},
{
closed = 1;
nodes = (
"380 682 LINE",
"490 682 LINE SMOOTH",
"582 682 OFFCURVE",
"620 632 OFFCURVE",
"620 500 CURVE SMOOTH",
"620 464 OFFCURVE",
"620 430 OFFCURVE",
"620 394 CURVE SMOOTH",
"620 310 OFFCURVE",
"574 264 OFFCURVE",
"490 264 CURVE SMOOTH",
"380 264 LINE"
);
},
{
closed = 1;
nodes = (
"380 1336 LINE",
"490 1336 LINE SMOOTH",
"574 1336 OFFCURVE",
"620 1296 OFFCURVE",
"620 1226 CURVE SMOOTH",
"620 1188 OFFCURVE",
"620 1150 OFFCURVE",
"620 1112 CURVE SMOOTH",
"620 1006 OFFCURVE",
"574 946 OFFCURVE",
"490 946 CURVE SMOOTH",
"380 946 LINE"
);
}
);
width = 962;
},
{
layerId = "5013C991-8699-46CB-BB1C-82E334DBD38B";
paths = (
{
closed = 1;
nodes = (
"450 0 LINE SMOOTH",
"748 0 OFFCURVE",
"868 112 OFFCURVE",
"880 390 CURVE SMOOTH",
"882 436 OFFCURVE",
"882 470 OFFCURVE",
"880 514 CURVE SMOOTH",
"874 664 OFFCURVE",
"820 748 OFFCURVE",
"698 788 CURVE",
"698 836 LINE",
"816 876 OFFCURVE",
"868 958 OFFCURVE",
"878 1104 CURVE SMOOTH",
"880 1138 OFFCURVE",
"880 1172 OFFCURVE",
"880 1210 CURVE SMOOTH",
"880 1488 OFFCURVE",
"748 1600 OFFCURVE",
"450 1600 CURVE SMOOTH",
"80 1600 LINE",
"80 0 LINE"
);
},
{
closed = 1;
nodes = (
"380 682 LINE",
"450 682 LINE SMOOTH",
"542 682 OFFCURVE",
"580 632 OFFCURVE",
"580 500 CURVE SMOOTH",
"580 464 OFFCURVE",
"580 430 OFFCURVE",
"580 394 CURVE SMOOTH",
"580 310 OFFCURVE",
"534 264 OFFCURVE",
"450 264 CURVE SMOOTH",
"380 264 LINE"
);
},
{
closed = 1;
nodes = (
"380 1336 LINE",
"450 1336 LINE SMOOTH",
"534 1336 OFFCURVE",
"580 1296 OFFCURVE",
"580 1226 CURVE SMOOTH",
"580 1188 OFFCURVE",
"580 1150 OFFCURVE",
"580 1112 CURVE SMOOTH",
"580 1006 OFFCURVE",
"534 946 OFFCURVE",
"450 946 CURVE SMOOTH",
"380 946 LINE"
);
}
);
width = 922;
},
{
layerId = "3D06B89B-468F-44E0-A3D7-A5BC6911123E";
paths = (
{
closed = 1;
nodes = (
"286 0 LINE SMOOTH",
"404 0 OFFCURVE",
"454 54 OFFCURVE",
"458 186 CURVE SMOOTH",
"462 342 OFFCURVE",
"462 466 OFFCURVE",
"458 624 CURVE SMOOTH",
"456 714 OFFCURVE",
"430 764 OFFCURVE",
"370 784 CURVE",
"370 814 LINE",
"428 836 OFFCURVE",
"454 884 OFFCURVE",
"456 976 CURVE SMOOTH",
"460 1102 OFFCURVE",
"460 1228 OFFCURVE",
"456 1414 CURVE SMOOTH",
"452 1546 OFFCURVE",
"402 1600 OFFCURVE",
"284 1600 CURVE SMOOTH",
"120 1600 LINE",
"120 0 LINE"
);
},
{
closed = 1;
nodes = (
"160 780 LINE",
"274 780 LINE SMOOTH",
"372 780 OFFCURVE",
"414 736 OFFCURVE",
"418 624 CURVE SMOOTH",
"424 468 OFFCURVE",
"424 342 OFFCURVE",
"418 186 CURVE SMOOTH",
"414 82 OFFCURVE",
"376 40 OFFCURVE",
"286 40 CURVE SMOOTH",
"160 40 LINE"
);
},
{
closed = 1;
nodes = (
"160 1560 LINE",
"284 1560 LINE SMOOTH",
"374 1560 OFFCURVE",
"412 1518 OFFCURVE",
"416 1414 CURVE SMOOTH",
"422 1258 OFFCURVE",
"422 1132 OFFCURVE",
"416 976 CURVE SMOOTH",
"412 864 OFFCURVE",
"374 820 OFFCURVE",
"282 820 CURVE SMOOTH",
"160 820 LINE"
);
}
);
width = 560;
},
{
layerId = "C9EB94EC-C68D-4931-B320-068DCAB9FADA";
paths = (
{
closed = 1;
nodes = (
"327 0 LINE SMOOTH",
"490 0 OFFCURVE",
"558 69 OFFCURVE",
"564 237 CURVE SMOOTH",
"567 366 OFFCURVE",
"567 467 OFFCURVE",
"564 597 CURVE SMOOTH",
"561 702 OFFCURVE",
"528 760 OFFCURVE",
"452 785 CURVE",
"452 820 LINE",
"525 846 OFFCURVE",
"558 903 OFFCURVE",
"562 1008 CURVE SMOOTH",
"565 1111 OFFCURVE",
"565 1214 OFFCURVE",
"562 1363 CURVE SMOOTH",
"559 1532 OFFCURVE",
"489 1600 OFFCURVE",
"326 1600 CURVE SMOOTH",
"110 1600 LINE",
"110 0 LINE"
);
},
{
closed = 1;
nodes = (
"215 756 LINE",
"318 756 LINE SMOOTH",
"415 756 OFFCURVE",
"456 710 OFFCURVE",
"459 593 CURVE SMOOTH",
"463 467 OFFCURVE",
"463 364 OFFCURVE",
"459 238 CURVE SMOOTH",
"456 139 OFFCURVE",
"416 96 OFFCURVE",
"327 96 CURVE SMOOTH",
"215 96 LINE"
);
},
{
closed = 1;
nodes = (
"215 1504 LINE",
"326 1504 LINE SMOOTH",
"414 1504 OFFCURVE",
"454 1463 OFFCURVE",
"457 1367 CURVE SMOOTH",
"462 1241 OFFCURVE",
"462 1137 OFFCURVE",
"457 1010 CURVE SMOOTH",
"454 900 OFFCURVE",
"414 852 OFFCURVE",
"324 852 CURVE SMOOTH",
"215 852 LINE"
);
}
);
width = 651;
},
{
layerId = "6F82CFD7-79D5-473B-9D61-BE5DF154BBF2";
paths = (
{
closed = 1;
nodes = (
"412 0 LINE SMOOTH",
"608 0 OFFCURVE",
"688 70 OFFCURVE",
"694 245 CURVE SMOOTH",
"697 373 OFFCURVE",
"699 467 OFFCURVE",
"694 597 CURVE SMOOTH",
"689 705 OFFCURVE",
"649 765 OFFCURVE",
"552 790 CURVE",
"552 817 LINE",
"645 840 OFFCURVE",
"682 900 OFFCURVE",
"687 1008 CURVE SMOOTH",
"691 1111 OFFCURVE",
"689 1207 OFFCURVE",
"688 1356 CURVE SMOOTH",
"686 1530 OFFCURVE",
"604 1600 OFFCURVE",
"406 1600 CURVE SMOOTH",
"125 1600 LINE",
"125 0 LINE"
);
},
{
closed = 1;
nodes = (
"260 741 LINE",
"418 741 LINE SMOOTH",
"522 741 OFFCURVE",
"556 706 OFFCURVE",
"559 593 CURVE SMOOTH",
"563 467 OFFCURVE",
"563 372 OFFCURVE",
"559 246 CURVE SMOOTH",
"556 156 OFFCURVE",
"522 126 OFFCURVE",
"412 126 CURVE SMOOTH",
"260 126 LINE"
);
},
{
closed = 1;
nodes = (
"260 1477 LINE",
"406 1477 LINE SMOOTH",
"516 1477 OFFCURVE",
"551 1448 OFFCURVE",
"553 1360 CURVE SMOOTH",
"556 1233 OFFCURVE",
"557 1137 OFFCURVE",
"553 1010 CURVE SMOOTH",
"550 904 OFFCURVE",
"520 867 OFFCURVE",
"424 867 CURVE SMOOTH",
"260 867 LINE"
);
}
);
width = 797;
}
);
leftKerningGroup = H;
rightKerningGroup = B;
unicode = 0042;
},
{
glyphname = C;
layers = (
{
anchors = (
{
name = bottom;
position = "{382, 0}";
},
{
name = top;
position = "{382, 1600}";
}
);
background = {
paths = (
{
closed = 1;
nodes = (
"480 -20 OFFCURVE",
"562 66 OFFCURVE",
"562 180 CURVE SMOOTH",
"562 480 LINE",
"522 480 LINE",
"522 180 LINE SMOOTH",
"522 88 OFFCURVE",
"458 20 OFFCURVE",
"372 20 CURVE SMOOTH",
"286 20 OFFCURVE",
"222 88 OFFCURVE",
"222 180 CURVE SMOOTH",
"222 1400 LINE SMOOTH",
"222 1492 OFFCURVE",
"286 1580 OFFCURVE",
"372 1580 CURVE SMOOTH",
"458 1580 OFFCURVE",
"522 1492 OFFCURVE",
"522 1400 CURVE SMOOTH",
"522 1140 LINE",
"562 1140 LINE",
"562 1400 LINE SMOOTH",
"562 1514 OFFCURVE",
"480 1620 OFFCURVE",
"372 1620 CURVE SMOOTH",
"264 1620 OFFCURVE",
"182 1514 OFFCURVE",
"182 1400 CURVE SMOOTH",
"182 180 LINE SMOOTH",
"182 66 OFFCURVE",
"264 -20 OFFCURVE",
"372 -20 CURVE SMOOTH"
);
}
);
};
layerId = "3B122060-26E0-4730-9241-82784E6CB359";
paths = (
{
closed = 1;
nodes = (
"552 -12 OFFCURVE",
"628 46 OFFCURVE",
"636 194 CURVE SMOOTH",
"642 308 OFFCURVE",
"640 400 OFFCURVE",
"634 564 CURVE",
"554 564 LINE",
"558 378 OFFCURVE",
"560 286 OFFCURVE",
"556 194 CURVE SMOOTH",
"552 92 OFFCURVE",
"508 64 OFFCURVE",
"382 64 CURVE SMOOTH",
"268 64 OFFCURVE",
"226 92 OFFCURVE",
"224 194 CURVE SMOOTH",
"214 686 OFFCURVE",
"214 912 OFFCURVE",
"224 1402 CURVE SMOOTH",
"226 1504 OFFCURVE",
"268 1532 OFFCURVE",
"380 1532 CURVE SMOOTH",
"502 1532 OFFCURVE",
"544 1504 OFFCURVE",
"548 1402 CURVE SMOOTH",
"552 1276 OFFCURVE",
"552 1194 OFFCURVE",
"548 1068 CURVE",
"628 1068 LINE",
"634 1194 OFFCURVE",
"634 1276 OFFCURVE",
"628 1402 CURVE SMOOTH",
"620 1550 OFFCURVE",
"546 1608 OFFCURVE",
"380 1608 CURVE SMOOTH",
"220 1608 OFFCURVE",
"146 1550 OFFCURVE",
"144 1402 CURVE SMOOTH",
"138 958 OFFCURVE",
"138 640 OFFCURVE",
"144 194 CURVE SMOOTH",
"146 46 OFFCURVE",
"222 -12 OFFCURVE",
"382 -12 CURVE SMOOTH"
);
}
);
width = 760;
},
{
anchors = (
{
name = bottom;
position = "{518, 0}";
},
{
name = top;
position = "{518, 1600}";
}
);
layerId = "1DFA7D5B-2E97-4B89-827F-FB43F8066DC1";
paths = (
{
closed = 1;
nodes = (
"836 -20 OFFCURVE",
"962 94 OFFCURVE",
"970 382 CURVE SMOOTH",
"972 446 OFFCURVE",
"972 536 OFFCURVE",
"970 600 CURVE",
"670 600 LINE",
"674 510 OFFCURVE",
"674 452 OFFCURVE",
"670 366 CURVE SMOOTH",
"666 264 OFFCURVE",
"626 224 OFFCURVE",
"526 224 CURVE SMOOTH",
"428 224 OFFCURVE",
"386 264 OFFCURVE",
"384 366 CURVE SMOOTH",
"376 658 OFFCURVE",
"376 942 OFFCURVE",
"384 1236 CURVE SMOOTH",
"386 1336 OFFCURVE",
"428 1376 OFFCURVE",
"526 1376 CURVE SMOOTH",
"620 1376 OFFCURVE",
"660 1336 OFFCURVE",
"662 1236 CURVE SMOOTH",
"664 1162 OFFCURVE",
"662 1074 OFFCURVE",
"660 1000 CURVE",
"960 1000 LINE",
"962 1066 OFFCURVE",
"964 1154 OFFCURVE",
"962 1220 CURVE SMOOTH",
"954 1492 OFFCURVE",
"820 1620 OFFCURVE",
"526 1620 CURVE SMOOTH",
"224 1620 OFFCURVE",
"88 1498 OFFCURVE",
"84 1222 CURVE SMOOTH",
"78 920 OFFCURVE",
"78 680 OFFCURVE",
"84 382 CURVE SMOOTH",
"90 94 OFFCURVE",
"216 -20 OFFCURVE",
"526 -20 CURVE SMOOTH"
);
}
);
width = 1012;
},
{
anchors = (
{
name = bottom;
position = "{496, 0}";
},
{
name = top;
position = "{496, 1600}";
}
);
layerId = "5013C991-8699-46CB-BB1C-82E334DBD38B";
paths = (
{
closed = 1;
nodes = (
"798 -20 OFFCURVE",
"920 94 OFFCURVE",
"928 382 CURVE SMOOTH",
"930 446 OFFCURVE",
"930 536 OFFCURVE",
"928 600 CURVE",
"628 600 LINE",
"630 528 OFFCURVE",
"630 398 OFFCURVE",
"628 326 CURVE SMOOTH",
"626 260 OFFCURVE",
"582 224 OFFCURVE",
"504 224 CURVE SMOOTH",
"428 224 OFFCURVE",
"384 260 OFFCURVE",
"382 326 CURVE SMOOTH",
"372 604 OFFCURVE",
"372 996 OFFCURVE",
"382 1276 CURVE SMOOTH",
"384 1340 OFFCURVE",
"428 1376 OFFCURVE",
"504 1376 CURVE SMOOTH",
"576 1376 OFFCURVE",
"618 1340 OFFCURVE",
"620 1276 CURVE SMOOTH",
"622 1202 OFFCURVE",
"620 1074 OFFCURVE",
"618 1000 CURVE",
"918 1000 LINE",
"920 1066 OFFCURVE",
"922 1154 OFFCURVE",
"920 1220 CURVE SMOOTH",
"912 1506 OFFCURVE",
"792 1620 OFFCURVE",
"504 1620 CURVE SMOOTH",
"210 1620 OFFCURVE",
"86 1466 OFFCURVE",
"82 1222 CURVE SMOOTH",
"78 996 OFFCURVE",
"78 604 OFFCURVE",
"82 382 CURVE SMOOTH",
"88 94 OFFCURVE",
"202 -20 OFFCURVE",
"504 -20 CURVE SMOOTH"
);
}
);
width = 970;
},
{
anchors = (
{
name = bottom;
position = "{290, 0}";
},
{
name = top;
position = "{290, 1600}";
}
);
background = {
paths = (
{
closed = 1;
nodes = (
"422 -20 OFFCURVE",
"504 66 OFFCURVE",
"504 180 CURVE SMOOTH",
"504 480 LINE",
"464 480 LINE",
"464 180 LINE SMOOTH",
"464 88 OFFCURVE",
"400 20 OFFCURVE",
"314 20 CURVE SMOOTH",
"228 20 OFFCURVE",
"164 88 OFFCURVE",
"164 180 CURVE SMOOTH",
"164 1400 LINE SMOOTH",
"164 1492 OFFCURVE",
"228 1580 OFFCURVE",
"314 1580 CURVE SMOOTH",
"400 1580 OFFCURVE",
"464 1492 OFFCURVE",
"464 1400 CURVE SMOOTH",
"464 1140 LINE",
"504 1140 LINE",
"504 1400 LINE SMOOTH",
"504 1514 OFFCURVE",
"422 1620 OFFCURVE",
"314 1620 CURVE SMOOTH",
"206 1620 OFFCURVE",
"124 1514 OFFCURVE",
"124 1400 CURVE SMOOTH",
"124 180 LINE SMOOTH",
"124 66 OFFCURVE",
"206 -20 OFFCURVE",
"314 -20 CURVE SMOOTH"
);
}
);
};
layerId = "3D06B89B-468F-44E0-A3D7-A5BC6911123E";
paths = (
{
closed = 1;
nodes = (
"422 -12 OFFCURVE",
"474 42 OFFCURVE",
"478 174 CURVE SMOOTH",
"482 314 OFFCURVE",
"480 424 OFFCURVE",
"476 564 CURVE",
"436 564 LINE",
"438 434 OFFCURVE",
"440 304 OFFCURVE",
"438 174 CURVE SMOOTH",
"436 66 OFFCURVE",
"400 28 OFFCURVE",
"294 28 CURVE SMOOTH",
"200 28 OFFCURVE",
"168 66 OFFCURVE",
"166 174 CURVE SMOOTH",
"158 636 OFFCURVE",
"158 962 OFFCURVE",
"166 1422 CURVE SMOOTH",
"168 1532 OFFCURVE",
"200 1568 OFFCURVE",
"292 1568 CURVE SMOOTH",
"394 1568 OFFCURVE",
"428 1532 OFFCURVE",
"430 1422 CURVE SMOOTH",
"432 1304 OFFCURVE",
"432 1186 OFFCURVE",
"430 1068 CURVE",
"470 1068 LINE",
"472 1150 OFFCURVE",
"472 1340 OFFCURVE",
"470 1422 CURVE SMOOTH",
"466 1554 OFFCURVE",
"414 1608 OFFCURVE",
"292 1608 CURVE SMOOTH",
"176 1608 OFFCURVE",
"128 1556 OFFCURVE",
"126 1422 CURVE SMOOTH",
"118 962 OFFCURVE",
"118 636 OFFCURVE",
"126 174 CURVE SMOOTH",
"128 42 OFFCURVE",
"176 -12 OFFCURVE",
"294 -12 CURVE SMOOTH"
);
}
);
width = 580;
},
{
anchors = (
{
name = bottom;
position = "{342, 0}";
},
{
name = top;
position = "{342, 1600}";
}
);
layerId = "C9EB94EC-C68D-4931-B320-068DCAB9FADA";
paths = (
{
closed = 1;
nodes = (
"516 -14 OFFCURVE",
"586 55 OFFCURVE",
"591 226 CURVE SMOOTH",
"594 347 OFFCURVE",
"593 452 OFFCURVE",
"589 573 CURVE",
"484 573 LINE",
"486 458 OFFCURVE",
"488 328 OFFCURVE",
"486 212 CURVE SMOOTH",
"484 115 OFFCURVE",
"446 77 OFFCURVE",
"347 77 CURVE SMOOTH",
"257 77 OFFCURVE",
"222 115 OFFCURVE",
"220 212 CURVE SMOOTH",
"212 628 OFFCURVE",
"212 971 OFFCURVE",
"220 1386 CURVE SMOOTH",
"222 1484 OFFCURVE",
"257 1520 OFFCURVE",
"345 1520 CURVE SMOOTH",
"440 1520 OFFCURVE",
"476 1484 OFFCURVE",
"478 1386 CURVE SMOOTH",
"480 1279 OFFCURVE",
"479 1158 OFFCURVE",
"477 1051 CURVE",
"582 1051 LINE",
"584 1129 OFFCURVE",
"585 1294 OFFCURVE",
"583 1372 CURVE SMOOTH",
"578 1542 OFFCURVE",
"509 1611 OFFCURVE",
"345 1611 CURVE SMOOTH",
"185 1611 OFFCURVE",
"118 1534 OFFCURVE",
"115 1372 CURVE SMOOTH",
"108 971 OFFCURVE",
"108 628 OFFCURVE",
"115 226 CURVE SMOOTH",
"118 55 OFFCURVE",
"183 -14 OFFCURVE",
"347 -14 CURVE SMOOTH"
);
}
);
width = 678;
},
{
anchors = (
{
name = bottom;
position = "{416, 0}";
},
{
name = top;
position = "{416, 1600}";
}
);
layerId = "6F82CFD7-79D5-473B-9D61-BE5DF154BBF2";
paths = (
{
closed = 1;
nodes = (
"623 -14 OFFCURVE",
"712 58 OFFCURVE",
"720 241 CURVE SMOOTH",
"725 343 OFFCURVE",
"723 434 OFFCURVE",
"718 573 CURVE",
"583 573 LINE",
"587 411 OFFCURVE",
"589 328 OFFCURVE",
"585 237 CURVE SMOOTH",
"581 135 OFFCURVE",
"538 104 OFFCURVE",
"418 104 CURVE SMOOTH",
"308 104 OFFCURVE",
"266 135 OFFCURVE",
"264 237 CURVE SMOOTH",
"255 679 OFFCURVE",
"255 920 OFFCURVE",
"264 1361 CURVE SMOOTH",
"266 1462 OFFCURVE",
"308 1493 OFFCURVE",
"417 1493 CURVE SMOOTH",
"532 1493 OFFCURVE",
"573 1462 OFFCURVE",
"577 1361 CURVE SMOOTH",
"580 1248 OFFCURVE",
"580 1164 OFFCURVE",
"576 1051 CURVE",
"711 1051 LINE",
"716 1162 OFFCURVE",
"717 1246 OFFCURVE",
"712 1357 CURVE SMOOTH",
"704 1536 OFFCURVE",
"615 1611 OFFCURVE",
"417 1611 CURVE SMOOTH",
"221 1611 OFFCURVE",
"132 1537 OFFCURVE",
"129 1357 CURVE SMOOTH",
"123 949 OFFCURVE",
"123 650 OFFCURVE",
"129 241 CURVE SMOOTH",
"132 58 OFFCURVE",
"221 -14 OFFCURVE",
"418 -14 CURVE SMOOTH"
);
}
);
width = 823;
}
);
leftKerningGroup = O;
rightKerningGroup = O;
unicode = 0043;
},
{
glyphname = D;
layers = (
{
anchors = (
{
name = bottom;
position = "{370, 0}";
},
{
name = center;
position = "{374, 800}";
},
{
name = top;
position = "{352, 1600}";
}
);
layerId = "3B122060-26E0-4730-9241-82784E6CB359";
paths = (
{
closed = 1;
nodes = (
"390 0 LINE SMOOTH",
"540 0 OFFCURVE",
"602 54 OFFCURVE",
"604 186 CURVE SMOOTH",
"610 624 OFFCURVE",
"610 974 OFFCURVE",
"604 1414 CURVE SMOOTH",
"602 1546 OFFCURVE",
"536 1600 OFFCURVE",
"372 1600 CURVE SMOOTH",
"140 1600 LINE",
"140 0 LINE"
);
},
{
closed = 1;
nodes = (
"220 1524 LINE",
"372 1524 LINE SMOOTH",
"490 1524 OFFCURVE",
"522 1498 OFFCURVE",
"524 1414 CURVE SMOOTH",
"534 932 OFFCURVE",
"534 668 OFFCURVE",
"524 186 CURVE SMOOTH",
"522 102 OFFCURVE",
"494 76 OFFCURVE",
"390 76 CURVE SMOOTH",
"220 76 LINE"
);
}
);
width = 748;
},
{
anchors = (
{
name = bottom;
position = "{460, 0}";
},
{
name = center;
position = "{500, 800}";
},
{
name = top;
position = "{500, 1600}";
}
);
layerId = "1DFA7D5B-2E97-4B89-827F-FB43F8066DC1";
paths = (
{
closed = 1;
nodes = (
"506 0 LINE SMOOTH",
"806 0 OFFCURVE",
"930 118 OFFCURVE",
"936 412 CURVE SMOOTH",
"942 690 OFFCURVE",
"942 912 OFFCURVE",
"936 1190 CURVE SMOOTH",
"930 1482 OFFCURVE",
"806 1600 OFFCURVE",
"506 1600 CURVE SMOOTH",
"80 1600 LINE",
"80 0 LINE"
);
},
{
closed = 1;
nodes = (
"380 1336 LINE",
"506 1336 LINE SMOOTH",
"590 1336 OFFCURVE",
"634 1296 OFFCURVE",
"636 1226 CURVE SMOOTH",
"644 942 OFFCURVE",
"644 660 OFFCURVE",
"636 376 CURVE SMOOTH",
"634 304 OFFCURVE",
"590 264 OFFCURVE",
"506 264 CURVE SMOOTH",
"380 264 LINE"
);
}
);
width = 1020;
},
{
anchors = (
{
name = bottom;
position = "{460, 0}";
},
{
name = center;
position = "{500, 800}";
},
{
name = top;
position = "{500, 1600}";
}
);
layerId = "5013C991-8699-46CB-BB1C-82E334DBD38B";
paths = (
{
closed = 1;
nodes = (
"486 0 LINE SMOOTH",
"786 0 OFFCURVE",
"910 118 OFFCURVE",
"916 412 CURVE SMOOTH",
"922 690 OFFCURVE",
"922 912 OFFCURVE",
"916 1190 CURVE SMOOTH",
"910 1482 OFFCURVE",
"786 1600 OFFCURVE",
"486 1600 CURVE SMOOTH",
"80 1600 LINE",
"80 0 LINE"
);
},
{
closed = 1;
nodes = (
"380 1336 LINE",
"486 1336 LINE SMOOTH",
"570 1336 OFFCURVE",
"614 1296 OFFCURVE",
"616 1226 CURVE SMOOTH",
"624 942 OFFCURVE",
"624 660 OFFCURVE",
"616 376 CURVE SMOOTH",
"614 304 OFFCURVE",
"570 264 OFFCURVE",
"486 264 CURVE SMOOTH",
"380 264 LINE"
);
}
);
width = 1000;
},
{
anchors = (
{
name = bottom;
position = "{290, 0}";
},
{
name = center;
position = "{294, 800}";
},
{
name = top;
position = "{274, 1600}";
}
);
layerId = "3D06B89B-468F-44E0-A3D7-A5BC6911123E";
paths = (
{
closed = 1;
nodes = (
"290 0 LINE SMOOTH",
"412 0 OFFCURVE",
"462 54 OFFCURVE",
"464 186 CURVE SMOOTH",
"470 624 OFFCURVE",
"470 974 OFFCURVE",
"464 1414 CURVE SMOOTH",
"462 1546 OFFCURVE",
"412 1600 OFFCURVE",
"292 1600 CURVE SMOOTH",
"120 1600 LINE",
"120 0 LINE"
);
},
{
closed = 1;
nodes = (
"160 1560 LINE",
"292 1560 LINE SMOOTH",
"386 1560 OFFCURVE",
"422 1518 OFFCURVE",
"424 1414 CURVE SMOOTH",
"428 1004 OFFCURVE",
"428 596 OFFCURVE",
"424 186 CURVE SMOOTH",
"422 82 OFFCURVE",
"386 40 OFFCURVE",
"290 40 CURVE SMOOTH",
"160 40 LINE"
);
}
);
width = 588;
},
{
anchors = (
{
name = bottom;
position = "{333, 0}";
},
{
name = center;
position = "{346, 800}";
},
{
name = top;
position = "{331, 1600}";
}
);
layerId = "C9EB94EC-C68D-4931-B320-068DCAB9FADA";
paths = (
{
closed = 1;
nodes = (
"339 0 LINE SMOOTH",
"506 0 OFFCURVE",
"574 70 OFFCURVE",
"577 243 CURVE SMOOTH",
"583 641 OFFCURVE",
"583 959 OFFCURVE",
"577 1358 CURVE SMOOTH",
"574 1530 OFFCURVE",
"506 1600 OFFCURVE",
"341 1600 CURVE SMOOTH",
"110 1600 LINE",
"110 0 LINE"
);
},
{
closed = 1;
nodes = (
"215 1504 LINE",
"341 1504 LINE SMOOTH",
"432 1504 OFFCURVE",
"470 1463 OFFCURVE",
"472 1367 CURVE SMOOTH",
"477 989 OFFCURVE",
"477 612 OFFCURVE",
"472 234 CURVE SMOOTH",
"470 138 OFFCURVE",
"432 96 OFFCURVE",
"339 96 CURVE SMOOTH",
"215 96 LINE"
);
}
);
width = 691;
},
{
anchors = (
{
name = bottom;
position = "{393, 0}";
},
{
name = center;
position = "{406, 800}";
},
{
name = top;
position = "{389, 1600}";
}
);
layerId = "6F82CFD7-79D5-473B-9D61-BE5DF154BBF2";
paths = (
{
closed = 1;
nodes = (
"419 0 LINE SMOOTH",
"607 0 OFFCURVE",
"684 70 OFFCURVE",
"687 243 CURVE SMOOTH",
"693 641 OFFCURVE",
"693 959 OFFCURVE",
"687 1358 CURVE SMOOTH",
"684 1530 OFFCURVE",
"604 1600 OFFCURVE",
"406 1600 CURVE SMOOTH",
"125 1600 LINE",
"125 0 LINE"
);
},
{
closed = 1;
nodes = (
"260 1477 LINE",
"406 1477 LINE SMOOTH",
"515 1477 OFFCURVE",
"550 1448 OFFCURVE",
"552 1367 CURVE SMOOTH",
"562 935 OFFCURVE",
"562 666 OFFCURVE",
"552 234 CURVE SMOOTH",
"550 153 OFFCURVE",
"518 123 OFFCURVE",
"419 123 CURVE SMOOTH",
"260 123 LINE"
);
}
);
width = 816;
}
);
leftKerningGroup = H;
rightKerningGroup = O;
unicode = 0044;
},
{
glyphname = Eth;
layers = (
{
components = (
{
name = D;
transform = "{1, 0, 0, 1, 18, 0}";
}
);
layerId = "3B122060-26E0-4730-9241-82784E6CB359";
paths = (
{
closed = 1;
nodes = (
"100 886 LINE",
"340 886 LINE",
"340 946 LINE",
"100 946 LINE"
);
}
);
width = 766;
},
{
components = (
{
name = D;
transform = "{1, 0, 0, 1, 98, 0}";
}
);
layerId = "1DFA7D5B-2E97-4B89-827F-FB43F8066DC1";
paths = (
{
closed = 1;
nodes = (
"100 802 LINE",
"616 802 LINE",
"616 946 LINE",
"100 946 LINE"
);
}
);
width = 1118;
},
{
components = (
{
name = D;
transform = "{1, 0, 0, 1, 98, 0}";
}
);
layerId = "5013C991-8699-46CB-BB1C-82E334DBD38B";
paths = (
{
closed = 1;
nodes = (
"100 802 LINE",
"616 802 LINE",
"616 946 LINE",
"100 946 LINE"
);
}
);
width = 1098;
},
{
components = (
{
name = D;
transform = "{1, 0, 0, 1, 58, 0}";
}
);
layerId = "3D06B89B-468F-44E0-A3D7-A5BC6911123E";
paths = (
{
closed = 1;
nodes = (
"100 906 LINE",
"340 906 LINE",
"340 946 LINE",
"100 946 LINE"
);
}
);
width = 646;
},
{
components = (
{
alignment = -1;
name = D;
transform = "{1, 0, 0, 1, 68, 0}";
}
);
layerId = "C9EB94EC-C68D-4931-B320-068DCAB9FADA";
paths = (
{
closed = 1;
nodes = (
"100 880 LINE",
"409 880 LINE",
"409 946 LINE",
"100 946 LINE"
);
}
);
width = 759;
},
{
components = (
{
alignment = -1;
name = D;
transform = "{1, 0, 0, 1, 38, 0}";
}
);
layerId = "6F82CFD7-79D5-473B-9D61-BE5DF154BBF2";
paths = (
{
closed = 1;
nodes = (
"100 865 LINE",
"409 865 LINE",
"409 946 LINE",
"100 946 LINE"
);
}
);
width = 854;
}
);
leftKerningGroup = H;
rightKerningGroup = O;
rightMetricsKey = D;
unicode = 00D0;
},
{
glyphname = E;
layers = (
{
anchors = (
{
name = bottom;
position = "{362, 0}";
},
{
name = ogonek;
position = "{518, 0}";
},
{
name = top;
position = "{342, 1596}";
},
{
name = topleft;
position = "{160, 1600}";
}
);
layerId = "3B122060-26E0-4730-9241-82784E6CB359";
paths = (
{
closed = 1;
nodes = (
"558 0 LINE",
"558 76 LINE",
"220 76 LINE",
"220 762 LINE",
"538 762 LINE",
"538 838 LINE",
"220 838 LINE",
"220 1524 LINE",
"558 1524 LINE",
"558 1600 LINE",
"140 1600 LINE",
"140 0 LINE"
);
}
);
width = 658;
},
{
anchors = (
{
name = bottom;
position = "{476, 0}";
},
{
name = ogonek;
position = "{550, 0}";
},
{
name = top;
position = "{448, 1600}";
},
{
name = topleft;
position = "{80, 1600}";
}
);
layerId = "1DFA7D5B-2E97-4B89-827F-FB43F8066DC1";
paths = (
{
closed = 1;
nodes = (
"812 0 LINE",
"812 264 LINE",
"380 264 LINE",
"380 682 LINE",
"792 682 LINE",
"792 946 LINE",
"380 946 LINE",
"380 1336 LINE",
"812 1336 LINE",
"812 1600 LINE",
"80 1600 LINE",
"80 0 LINE"
);
}
);
width = 852;
},
{
anchors = (
{
name = bottom;
position = "{406, 0}";
},
{
name = ogonek;
position = "{731, 10}";
},
{
name = top;
position = "{406, 1600}";
},
{
name = topleft;
position = "{20, 1600}";
}
);
layerId = "5013C991-8699-46CB-BB1C-82E334DBD38B";
paths = (
{
closed = 1;
nodes = (
"772 0 LINE",
"772 264 LINE",
"380 264 LINE",
"380 682 LINE",
"752 682 LINE",
"752 946 LINE",
"380 946 LINE",
"380 1336 LINE",
"772 1336 LINE",
"772 1600 LINE",
"80 1600 LINE",
"80 0 LINE"
);
}
);
width = 812;
},
{
anchors = (
{
name = bottom;
position = "{270, 0}";
},
{
name = ogonek;
position = "{338, 0}";
},
{
name = top;
position = "{270, 1600}";
},
{
name = topleft;
position = "{80, 1600}";
}
);
layerId = "3D06B89B-468F-44E0-A3D7-A5BC6911123E";
paths = (
{
closed = 1;
nodes = (
"438 0 LINE",
"438 40 LINE",
"160 40 LINE",
"160 780 LINE",
"418 780 LINE",
"418 820 LINE",
"160 820 LINE",
"160 1560 LINE",
"438 1560 LINE",
"438 1600 LINE",
"120 1600 LINE",
"120 0 LINE"
);
}
);
width = 498;
},
{
anchors = (
{
name = bottom;
position = "{312, 0}";
},
{
name = ogonek;
position = "{388, 0}";
},
{
name = top;
position = "{310, 1600}";
},
{
name = topleft;
position = "{70, 1600}";
}
);
layerId = "C9EB94EC-C68D-4931-B320-068DCAB9FADA";
paths = (
{
closed = 1;
nodes = (
"522 0 LINE",
"522 96 LINE",
"215 96 LINE",
"215 756 LINE",
"502 756 LINE",
"502 852 LINE",
"215 852 LINE",
"215 1504 LINE",
"522 1504 LINE",
"522 1600 LINE",
"110 1600 LINE",
"110 0 LINE"
);
}
);
width = 577;
},
{
anchors = (
{
name = bottom;
position = "{391, 0}";
},
{
name = ogonek;
position = "{526, 0}";
},
{
name = top;
position = "{369, 1597}";
},
{
name = topleft;
position = "{140, 1600}";
}
);
layerId = "6F82CFD7-79D5-473B-9D61-BE5DF154BBF2";
paths = (
{
closed = 1;
nodes = (
"622 0 LINE",
"622 123 LINE",
"260 123 LINE",
"260 742 LINE",
"602 742 LINE",
"602 865 LINE",
"260 865 LINE",
"260 1477 LINE",
"622 1477 LINE",
"622 1600 LINE",
"125 1600 LINE",
"125 0 LINE"
);
}
);
width = 707;
}
);
leftKerningGroup = H;
rightKerningGroup = E;
unicode = 0045;
},
{
glyphname = F;
layers = (
{
layerId = "3B122060-26E0-4730-9241-82784E6CB359";
paths = (
{
closed = 1;
nodes = (
"220 0 LINE",
"220 762 LINE",
"558 762 LINE",
"558 838 LINE",
"220 838 LINE",
"220 1524 LINE",
"578 1524 LINE",
"578 1600 LINE",
"140 1600 LINE",
"140 0 LINE"
);
}
);
width = 678;
},
{
layerId = "1DFA7D5B-2E97-4B89-827F-FB43F8066DC1";
paths = (
{
closed = 1;
nodes = (
"380 0 LINE",
"380 682 LINE",
"792 682 LINE",
"792 946 LINE",
"380 946 LINE",
"380 1336 LINE",
"812 1336 LINE",
"812 1600 LINE",
"80 1600 LINE",
"80 0 LINE"
);
}
);
width = 852;
},
{
layerId = "5013C991-8699-46CB-BB1C-82E334DBD38B";
paths = (
{
closed = 1;
nodes = (
"380 0 LINE",
"380 682 LINE",
"752 682 LINE",
"752 946 LINE",
"380 946 LINE",
"380 1336 LINE",
"772 1336 LINE",
"772 1600 LINE",
"80 1600 LINE",
"80 0 LINE"
);
}
);
width = 812;
},
{
layerId = "3D06B89B-468F-44E0-A3D7-A5BC6911123E";
paths = (
{
closed = 1;
nodes = (
"160 0 LINE",
"160 780 LINE",
"418 780 LINE",
"418 820 LINE",
"160 820 LINE",
"160 1560 LINE",
"438 1560 LINE",
"438 1600 LINE",
"120 1600 LINE",
"120 0 LINE"
);
}
);
width = 518;
},
{
layerId = "C9EB94EC-C68D-4931-B320-068DCAB9FADA";
paths = (
{
closed = 1;
nodes = (
"215 0 LINE",
"215 756 LINE",
"502 756 LINE",
"502 852 LINE",
"215 852 LINE",
"215 1504 LINE",
"522 1504 LINE",
"522 1600 LINE",
"110 1600 LINE",
"110 0 LINE"
);
}
);
width = 592;
},
{
layerId = "6F82CFD7-79D5-473B-9D61-BE5DF154BBF2";
paths = (
{
closed = 1;
nodes = (
"260 0 LINE",
"260 742 LINE",
"617 742 LINE",
"617 865 LINE",
"260 865 LINE",
"260 1477 LINE",
"637 1477 LINE",
"637 1600 LINE",
"125 1600 LINE",
"125 0 LINE"
);
}
);
width = 722;
}
);
leftKerningGroup = H;
rightKerningGroup = F;
unicode = 0046;
},
{
glyphname = G;
layers = (
{
anchors = (
{
name = bottom;
position = "{386, 0}";
},
{
name = top;
position = "{386, 1600}";
}
);
background = {
paths = (
{
closed = 1;
nodes = (
"498 -20 OFFCURVE",
"580 66 OFFCURVE",
"580 180 CURVE SMOOTH",
"580 596 LINE",
"540 596 LINE",
"540 180 LINE SMOOTH",
"540 88 OFFCURVE",
"476 20 OFFCURVE",
"390 20 CURVE SMOOTH",
"304 20 OFFCURVE",
"240 88 OFFCURVE",
"240 180 CURVE SMOOTH",
"240 1420 LINE SMOOTH",
"240 1512 OFFCURVE",
"304 1580 OFFCURVE",
"390 1580 CURVE SMOOTH",
"476 1580 OFFCURVE",
"540 1512 OFFCURVE",
"540 1420 CURVE SMOOTH",
"540 1140 LINE",
"580 1140 LINE",
"580 1420 LINE SMOOTH",
"580 1534 OFFCURVE",
"498 1620 OFFCURVE",
"390 1620 CURVE SMOOTH",
"282 1620 OFFCURVE",
"200 1534 OFFCURVE",
"200 1420 CURVE SMOOTH",
"200 180 LINE SMOOTH",
"200 66 OFFCURVE",
"282 -20 OFFCURVE",
"390 -20 CURVE SMOOTH"
);
},
{
closed = 1;
nodes = (
"364 596 LINE",
"580 596 LINE",
"580 636 LINE",
"364 636 LINE"
);
}
);
};
layerId = "3B122060-26E0-4730-9241-82784E6CB359";
paths = (
{
closed = 1;
nodes = (
"570 -10 OFFCURVE",
"634 48 OFFCURVE",
"636 196 CURVE SMOOTH",
"638 318 OFFCURVE",
"638 422 OFFCURVE",
"636 614 CURVE",
"370 614 LINE",
"370 534 LINE",
"556 534 LINE",
"558 406 OFFCURVE",
"558 324 OFFCURVE",
"556 196 CURVE SMOOTH",
"554 94 OFFCURVE",
"526 66 OFFCURVE",
"388 66 CURVE SMOOTH",
"254 66 OFFCURVE",
"226 94 OFFCURVE",
"224 196 CURVE SMOOTH",
"216 670 OFFCURVE",
"216 930 OFFCURVE",
"224 1404 CURVE SMOOTH",
"226 1506 OFFCURVE",
"254 1534 OFFCURVE",
"386 1534 CURVE SMOOTH",
"516 1534 OFFCURVE",
"544 1506 OFFCURVE",
"548 1404 CURVE SMOOTH",
"552 1278 OFFCURVE",
"552 1196 OFFCURVE",
"548 1070 CURVE",
"628 1070 LINE",
"632 1196 OFFCURVE",
"632 1278 OFFCURVE",
"628 1404 CURVE SMOOTH",
"624 1552 OFFCURVE",
"562 1610 OFFCURVE",
"386 1610 CURVE SMOOTH",
"208 1610 OFFCURVE",
"146 1552 OFFCURVE",
"144 1404 CURVE SMOOTH",
"138 972 OFFCURVE",
"138 628 OFFCURVE",
"144 196 CURVE SMOOTH",
"146 48 OFFCURVE",
"208 -10 OFFCURVE",
"388 -10 CURVE SMOOTH"
);
}
);
width = 738;
},
{
anchors = (
{
name = bottom;
position = "{520, 0}";
},
{
name = top;
position = "{520, 1600}";
}
);
background = {
paths = (
{
closed = 1;
nodes = (
"540 -20 OFFCURVE",
"666 108 OFFCURVE",
"666 280 CURVE SMOOTH",
"666 600 LINE",
"466 600 LINE",
"466 280 LINE SMOOTH",
"466 222 OFFCURVE",
"426 180 OFFCURVE",
"374 180 CURVE SMOOTH",
"324 180 OFFCURVE",
"286 222 OFFCURVE",
"286 280 CURVE SMOOTH",
"286 1320 LINE SMOOTH",
"286 1378 OFFCURVE",
"324 1420 OFFCURVE",
"374 1420 CURVE SMOOTH",
"426 1420 OFFCURVE",
"466 1378 OFFCURVE",
"466 1320 CURVE SMOOTH",
"466 1000 LINE",
"666 1000 LINE",
"666 1320 LINE SMOOTH",
"666 1492 OFFCURVE",
"540 1620 OFFCURVE",
"374 1620 CURVE SMOOTH",
"210 1620 OFFCURVE",
"86 1492 OFFCURVE",
"86 1320 CURVE SMOOTH",
"86 280 LINE SMOOTH",
"86 108 OFFCURVE",
"210 -20 OFFCURVE",
"374 -20 CURVE SMOOTH"
);
},
{
closed = 1;
nodes = (
"372 600 LINE",
"666 600 LINE",
"666 800 LINE",
"372 800 LINE"
);
}
);
};
layerId = "1DFA7D5B-2E97-4B89-827F-FB43F8066DC1";
paths = (
{
closed = 1;
nodes = (
"828 -20 OFFCURVE",
"954 94 OFFCURVE",
"968 382 CURVE SMOOTH",
"974 504 OFFCURVE",
"976 660 OFFCURVE",
"970 782 CURVE",
"568 782 LINE",
"568 522 LINE",
"678 522 LINE",
"682 476 OFFCURVE",
"682 392 OFFCURVE",
"678 346 CURVE SMOOTH",
"670 258 OFFCURVE",
"628 224 OFFCURVE",
"528 224 CURVE SMOOTH",
"432 224 OFFCURVE",
"392 258 OFFCURVE",
"386 346 CURVE SMOOTH",
"370 626 OFFCURVE",
"370 976 OFFCURVE",
"386 1256 CURVE SMOOTH",
"392 1342 OFFCURVE",
"432 1376 OFFCURVE",
"528 1376 CURVE SMOOTH",
"620 1376 OFFCURVE",
"658 1342 OFFCURVE",
"664 1256 CURVE SMOOTH",
"668 1168 OFFCURVE",
"668 1088 OFFCURVE",
"664 1000 CURVE",
"964 1000 LINE",
"968 1062 OFFCURVE",
"968 1158 OFFCURVE",
"964 1220 CURVE SMOOTH",
"946 1506 OFFCURVE",
"822 1620 OFFCURVE",
"528 1620 CURVE SMOOTH",
"224 1620 OFFCURVE",
"98 1500 OFFCURVE",
"86 1202 CURVE SMOOTH",
"78 986 OFFCURVE",
"78 606 OFFCURVE",
"86 382 CURVE SMOOTH",
"96 94 OFFCURVE",
"222 -20 OFFCURVE",
"528 -20 CURVE SMOOTH"
);
}
);
width = 1014;
},
{
anchors = (
{
name = bottom;
position = "{500, 0}";
},
{
name = top;
position = "{500, 1600}";
}
);
background = {
paths = (
{
closed = 1;
nodes = (
"520 -20 OFFCURVE",
"646 108 OFFCURVE",
"646 280 CURVE SMOOTH",
"646 600 LINE",
"446 600 LINE",
"446 280 LINE SMOOTH",
"446 222 OFFCURVE",
"406 180 OFFCURVE",
"354 180 CURVE SMOOTH",
"304 180 OFFCURVE",
"266 222 OFFCURVE",
"266 280 CURVE SMOOTH",
"266 1320 LINE SMOOTH",
"266 1378 OFFCURVE",
"304 1420 OFFCURVE",
"354 1420 CURVE SMOOTH",
"406 1420 OFFCURVE",
"446 1378 OFFCURVE",
"446 1320 CURVE SMOOTH",
"446 1000 LINE",
"646 1000 LINE",
"646 1320 LINE SMOOTH",
"646 1492 OFFCURVE",
"520 1620 OFFCURVE",
"354 1620 CURVE SMOOTH",
"190 1620 OFFCURVE",
"66 1492 OFFCURVE",
"66 1320 CURVE SMOOTH",
"66 280 LINE SMOOTH",
"66 108 OFFCURVE",
"190 -20 OFFCURVE",
"354 -20 CURVE SMOOTH"
);
},
{
closed = 1;
nodes = (
"352 600 LINE",
"646 600 LINE",
"646 800 LINE",
"352 800 LINE"
);
}
);
};
layerId = "5013C991-8699-46CB-BB1C-82E334DBD38B";
paths = (
{
closed = 1;
nodes = (
"794 -20 OFFCURVE",
"914 94 OFFCURVE",
"928 382 CURVE SMOOTH",
"934 504 OFFCURVE",
"936 660 OFFCURVE",
"930 782 CURVE",
"528 782 LINE",
"528 522 LINE",
"638 522 LINE",
"642 476 OFFCURVE",
"642 372 OFFCURVE",
"638 326 CURVE SMOOTH",
"632 260 OFFCURVE",
"584 224 OFFCURVE",
"508 224 CURVE SMOOTH",
"430 224 OFFCURVE",
"390 260 OFFCURVE",
"386 326 CURVE SMOOTH",
"370 606 OFFCURVE",
"370 996 OFFCURVE",
"386 1276 CURVE SMOOTH",
"390 1340 OFFCURVE",
"430 1376 OFFCURVE",
"508 1376 CURVE SMOOTH",
"578 1376 OFFCURVE",
"620 1340 OFFCURVE",
"624 1276 CURVE SMOOTH",
"628 1202 OFFCURVE",
"628 1074 OFFCURVE",
"624 1000 CURVE",
"924 1000 LINE",
"928 1062 OFFCURVE",
"928 1158 OFFCURVE",
"924 1220 CURVE SMOOTH",
"906 1506 OFFCURVE",
"788 1620 OFFCURVE",
"508 1620 CURVE SMOOTH",
"212 1620 OFFCURVE",
"98 1506 OFFCURVE",
"86 1202 CURVE SMOOTH",
"78 986 OFFCURVE",
"78 606 OFFCURVE",
"86 382 CURVE SMOOTH",
"96 94 OFFCURVE",
"206 -20 OFFCURVE",
"508 -20 CURVE SMOOTH"
);
}
);
width = 974;
},
{
anchors = (
{
name = bottom;
position = "{290, 0}";
},
{
name = top;
position = "{290, 1600}";
}
);
background = {
paths = (
{
closed = 1;
nodes = (
"438 -20 OFFCURVE",
"520 66 OFFCURVE",
"520 180 CURVE SMOOTH",
"520 596 LINE",
"480 596 LINE",
"480 180 LINE SMOOTH",
"480 88 OFFCURVE",
"416 20 OFFCURVE",
"330 20 CURVE SMOOTH",
"244 20 OFFCURVE",
"180 88 OFFCURVE",
"180 180 CURVE SMOOTH",
"180 1420 LINE SMOOTH",
"180 1512 OFFCURVE",
"244 1580 OFFCURVE",
"330 1580 CURVE SMOOTH",
"416 1580 OFFCURVE",
"480 1512 OFFCURVE",
"480 1420 CURVE SMOOTH",
"480 1140 LINE",
"520 1140 LINE",
"520 1420 LINE SMOOTH",
"520 1534 OFFCURVE",
"438 1620 OFFCURVE",
"330 1620 CURVE SMOOTH",
"222 1620 OFFCURVE",
"140 1534 OFFCURVE",
"140 1420 CURVE SMOOTH",
"140 180 LINE SMOOTH",
"140 66 OFFCURVE",
"222 -20 OFFCURVE",
"330 -20 CURVE SMOOTH"
);
},
{
closed = 1;
nodes = (
"304 596 LINE",
"520 596 LINE",
"520 636 LINE",
"304 636 LINE"
);
}
);
};
layerId = "3D06B89B-468F-44E0-A3D7-A5BC6911123E";
paths = (
{
closed = 1;
nodes = (
"422 -10 OFFCURVE",
"474 44 OFFCURVE",
"476 176 CURVE SMOOTH",
"478 398 OFFCURVE",
"478 522 OFFCURVE",
"476 614 CURVE",
"290 614 LINE",
"290 574 LINE",
"436 574 LINE",
"438 432 OFFCURVE",
"438 318 OFFCURVE",
"436 176 CURVE SMOOTH",
"434 72 OFFCURVE",
"394 30 OFFCURVE",
"298 30 CURVE SMOOTH",
"202 30 OFFCURVE",
"164 72 OFFCURVE",
"164 176 CURVE SMOOTH",
"160 622 OFFCURVE",
"160 978 OFFCURVE",
"164 1424 CURVE SMOOTH",
"166 1528 OFFCURVE",
"204 1570 OFFCURVE",
"296 1570 CURVE SMOOTH",
"386 1570 OFFCURVE",
"424 1528 OFFCURVE",
"428 1424 CURVE SMOOTH",
"432 1298 OFFCURVE",
"432 1196 OFFCURVE",
"428 1070 CURVE",
"468 1070 LINE",
"472 1196 OFFCURVE",
"472 1298 OFFCURVE",
"468 1424 CURVE SMOOTH",
"464 1556 OFFCURVE",
"414 1610 OFFCURVE",
"296 1610 CURVE SMOOTH",
"176 1610 OFFCURVE",
"126 1556 OFFCURVE",
"124 1424 CURVE SMOOTH",
"118 978 OFFCURVE",
"118 622 OFFCURVE",
"124 176 CURVE SMOOTH",
"126 44 OFFCURVE",
"176 -10 OFFCURVE",
"298 -10 CURVE SMOOTH"
);
}
);
width = 558;
},
{
anchors = (
{
name = bottom;
position = "{343, 0}";
},
{
name = top;
position = "{343, 1600}";
}
);
layerId = "C9EB94EC-C68D-4931-B320-068DCAB9FADA";
paths = (
{
closed = 1;
nodes = (
"515 -13 OFFCURVE",
"584 57 OFFCURVE",
"589 228 CURVE SMOOTH",
"592 425 OFFCURVE",
"593 557 OFFCURVE",
"590 656 CURVE",
"350 656 LINE",
"350 561 LINE",
"487 561 LINE",
"489 443 OFFCURVE",
"489 332 OFFCURVE",
"487 214 CURVE SMOOTH",
"484 119 OFFCURVE",
"442 79 OFFCURVE",
"351 79 CURVE SMOOTH",
"259 79 OFFCURVE",
"221 119 OFFCURVE",
"220 214 CURVE SMOOTH",
"213 618 OFFCURVE",
"213 983 OFFCURVE",
"220 1387 CURVE SMOOTH",
"222 1481 OFFCURVE",
"261 1522 OFFCURVE",
"349 1522 CURVE SMOOTH",
"434 1522 OFFCURVE",
"473 1481 OFFCURVE",
"477 1387 CURVE SMOOTH",
"481 1274 OFFCURVE",
"481 1166 OFFCURVE",
"477 1053 CURVE",
"582 1053 LINE",
"586 1163 OFFCURVE",
"586 1263 OFFCURVE",
"582 1373 CURVE SMOOTH",
"575 1544 OFFCURVE",
"508 1613 OFFCURVE",
"349 1613 CURVE SMOOTH",
"185 1613 OFFCURVE",
"119 1544 OFFCURVE",
"115 1369 CURVE SMOOTH",
"108 980 OFFCURVE",
"108 618 OFFCURVE",
"115 228 CURVE SMOOTH",
"119 57 OFFCURVE",
"184 -13 OFFCURVE",
"351 -13 CURVE SMOOTH"
);
}
);
width = 662;
},
{
anchors = (
{
name = bottom;
position = "{420, 0}";
},
{
name = top;
position = "{420, 1600}";
}
);
layerId = "6F82CFD7-79D5-473B-9D61-BE5DF154BBF2";
paths = (
{
closed = 1;
nodes = (
"635 -13 OFFCURVE",
"714 60 OFFCURVE",
"719 243 CURVE SMOOTH",
"722 365 OFFCURVE",
"723 482 OFFCURVE",
"720 656 CURVE",
"420 656 LINE",
"420 531 LINE",
"587 531 LINE",
"589 424 OFFCURVE",
"589 341 OFFCURVE",
"587 234 CURVE SMOOTH",
"583 135 OFFCURVE",
"552 106 OFFCURVE",
"423 106 CURVE SMOOTH",
"299 106 OFFCURVE",
"268 135 OFFCURVE",
"265 234 CURVE SMOOTH",
"255 659 OFFCURVE",
"255 942 OFFCURVE",
"265 1367 CURVE SMOOTH",
"268 1465 OFFCURVE",
"299 1495 OFFCURVE",
"422 1495 CURVE SMOOTH",
"542 1495 OFFCURVE",
"573 1465 OFFCURVE",
"577 1367 CURVE SMOOTH",
"581 1251 OFFCURVE",
"581 1169 OFFCURVE",
"577 1053 CURVE",
"712 1053 LINE",
"716 1163 OFFCURVE",
"716 1248 OFFCURVE",
"712 1358 CURVE SMOOTH",
"705 1541 OFFCURVE",
"627 1613 OFFCURVE",
"422 1613 CURVE SMOOTH",
"212 1613 OFFCURVE",
"134 1539 OFFCURVE",
"130 1354 CURVE SMOOTH",
"123 976 OFFCURVE",
"123 623 OFFCURVE",
"130 243 CURVE SMOOTH",
"134 60 OFFCURVE",
"212 -13 OFFCURVE",
"423 -13 CURVE SMOOTH"
);
}
);
width = 807;
}
);
leftKerningGroup = O;
rightKerningGroup = O;
unicode = 0047;
},
{
glyphname = H;
layers = (
{
anchors = (
{
name = bottom;
position = "{380, 0}";
},
{
name = center;
position = "{380, 800}";
},
{
name = top;
position = "{380, 1600}";
},
{
name = topleft;
position = "{100, 1600}";
}
);
layerId = "3B122060-26E0-4730-9241-82784E6CB359";
paths = (
{
closed = 1;
nodes = (
"220 0 LINE",
"220 762 LINE",
"540 762 LINE",
"540 0 LINE",
"620 0 LINE",
"620 1600 LINE",
"540 1600 LINE",
"540 838 LINE",
"220 838 LINE",
"220 1600 LINE",
"140 1600 LINE",
"140 0 LINE"
);
}
);
width = 760;
},
{
anchors = (
{
name = bottom;
position = "{506, 0}";
},
{
name = center;
position = "{506, 800}";
},
{
name = top;
position = "{506, 1600}";
},
{
name = topleft;
position = "{40, 1600}";
}
);
layerId = "1DFA7D5B-2E97-4B89-827F-FB43F8066DC1";
paths = (
{
closed = 1;
nodes = (
"380 0 LINE",
"380 682 LINE",
"630 682 LINE",
"630 0 LINE",
"930 0 LINE",
"930 1600 LINE",
"630 1600 LINE",
"630 946 LINE",
"380 946 LINE",
"380 1600 LINE",
"80 1600 LINE",
"80 0 LINE"
);
}
);
width = 1010;
},
{
anchors = (
{
name = bottom;
position = "{486, 0}";
},
{
name = center;
position = "{486, 800}";
},
{
name = top;
position = "{486, 1600}";
},
{
name = topleft;
position = "{40, 1600}";
}
);
layerId = "5013C991-8699-46CB-BB1C-82E334DBD38B";
paths = (
{
closed = 1;
nodes = (
"380 0 LINE",
"380 682 LINE",
"590 682 LINE",
"590 0 LINE",
"890 0 LINE",
"890 1600 LINE",
"590 1600 LINE",
"590 946 LINE",
"380 946 LINE",
"380 1600 LINE",
"80 1600 LINE",
"80 0 LINE"
);
}
);
width = 970;
},
{
anchors = (
{
name = bottom;
position = "{300, 0}";
},
{
name = center;
position = "{300, 800}";
},
{
name = top;
position = "{300, 1600}";
},
{
name = topleft;
position = "{80, 1600}";
}
);
layerId = "3D06B89B-468F-44E0-A3D7-A5BC6911123E";
paths = (
{
closed = 1;
nodes = (
"160 0 LINE",
"160 780 LINE",
"440 780 LINE",
"440 0 LINE",
"480 0 LINE",
"480 1600 LINE",
"440 1600 LINE",
"440 820 LINE",
"160 820 LINE",
"160 1600 LINE",
"120 1600 LINE",
"120 0 LINE"
);
}
);
width = 600;
},
{
anchors = (
{
name = bottom;
position = "{347, 0}";
},
{
name = center;
position = "{347, 800}";
},
{
name = top;
position = "{347, 1600}";
},
{
name = topleft;
position = "{70, 1600}";
}
);
layerId = "C9EB94EC-C68D-4931-B320-068DCAB9FADA";
paths = (
{
closed = 1;
nodes = (
"215 0 LINE",
"215 756 LINE",
"478 756 LINE",
"478 0 LINE",
"583 0 LINE",
"583 1600 LINE",
"478 1600 LINE",
"478 852 LINE",
"215 852 LINE",
"215 1600 LINE",
"110 1600 LINE",
"110 0 LINE"
);
}
);
width = 693;
},
{
anchors = (
{
name = bottom;
position = "{412, 0}";
},
{
name = center;
position = "{412, 800}";
},
{
name = top;
position = "{412, 1600}";
},
{
name = topleft;
position = "{85, 1600}";
}
);
layerId = "6F82CFD7-79D5-473B-9D61-BE5DF154BBF2";
paths = (
{
closed = 1;
nodes = (
"260 0 LINE",
"260 742 LINE",
"563 742 LINE",
"563 0 LINE",
"698 0 LINE",
"698 1600 LINE",
"563 1600 LINE",
"563 865 LINE",
"260 865 LINE",
"260 1600 LINE",
"125 1600 LINE",
"125 0 LINE"
);
}
);
width = 823;
}
);
leftKerningGroup = H;
rightKerningGroup = H;
unicode = 0048;
},
{
glyphname = Hbar;
layers = (
{
components = (
{
name = H;
transform = "{1, 0, 0, 1, -59, 0}";
}
);
layerId = "3B122060-26E0-4730-9241-82784E6CB359";
leftMetricsKey = "=15";
rightMetricsKey = "=15";
paths = (
{
closed = 1;
nodes = (
"15 1150 LINE",
"627 1150 LINE",
"627 1210 LINE",
"15 1210 LINE"
);
}
);
width = 642;
},
{
components = (
{
name = H;
transform = "{1, 0, 0, 1, 66, 0}";
}
);
layerId = "1DFA7D5B-2E97-4B89-827F-FB43F8066DC1";
leftMetricsKey = "=30";
rightMetricsKey = "=30";
paths = (
{
closed = 1;
nodes = (
"30 1136 LINE",
"1072 1136 LINE",
"1072 1280 LINE",
"30 1280 LINE"
);
}
);
width = 1102;
},
{
components = (
{
name = H;
transform = "{1, 0, 0, 1, 66, 0}";
}
);
layerId = "5013C991-8699-46CB-BB1C-82E334DBD38B";
leftMetricsKey = "=30";
rightMetricsKey = "=30";
paths = (
{
closed = 1;
nodes = (
"30 1136 LINE",
"1072 1136 LINE",
"1072 1280 LINE",
"30 1280 LINE"
);
}
);
width = 1102;
},
{
components = (
{
name = H;
transform = "{1, 0, 0, 1, -19, 0}";
}
);
layerId = "3D06B89B-468F-44E0-A3D7-A5BC6911123E";
leftMetricsKey = "=15";
rightMetricsKey = "=15";
paths = (
{
closed = 1;
nodes = (
"15 1160 LINE",
"547 1160 LINE",
"547 1200 LINE",
"15 1200 LINE"
);
}
);
width = 562;
},
{
components = (
{
alignment = -1;
name = H;
transform = "{1, 0, 0, 1, 93, 0}";
}
);
layerId = "C9EB94EC-C68D-4931-B320-068DCAB9FADA";
leftMetricsKey = "=110";
paths = (
{
closed = 1;
nodes = (
"110 1154 LINE",
"769 1154 LINE",
"769 1220 LINE",
"110 1220 LINE"
);
}
);
width = 879;
},
{
components = (
{
alignment = -1;
name = H;
transform = "{1, 0, 0, 1, 78, 0}";
}
);
layerId = "6F82CFD7-79D5-473B-9D61-BE5DF154BBF2";
leftMetricsKey = "=125";
paths = (
{
closed = 1;
nodes = (
"125 1147 LINE",
"844 1147 LINE",
"844 1228 LINE",
"125 1228 LINE"
);
}
);
width = 969;
}
);
leftKerningGroup = H;
leftMetricsKey = "H-45";
rightKerningGroup = H;
rightMetricsKey = H;
unicode = 0126;
},
{
glyphname = I;
layers = (
{
anchors = (
{
name = bottom;
position = "{180, 0}";
},
{
name = ogonek;
position = "{180, 0}";
},
{
name = top;
position = "{180, 1600}";
},
{
name = topleft;
position = "{100, 1600}";
}
);
layerId = "3B122060-26E0-4730-9241-82784E6CB359";
paths = (
{
closed = 1;
nodes = (
"220 0 LINE",
"220 1600 LINE",
"140 1600 LINE",
"140 0 LINE"
);
}
);
width = 360;
},
{
anchors = (
{
name = bottom;
position = "{230, 0}";
},
{
name = ogonek;
position = "{156, 0}";
},
{
name = top;
position = "{230, 1600}";
},
{
name = topleft;
position = "{40, 1600}";
}
);
layerId = "1DFA7D5B-2E97-4B89-827F-FB43F8066DC1";
paths = (
{
closed = 1;
nodes = (
"380 0 LINE",
"380 1600 LINE",
"80 1600 LINE",
"80 0 LINE"
);
}
);
width = 460;
},
{
anchors = (
{
name = bottom;
position = "{230, 0}";
},
{
name = ogonek;
position = "{158, 0}";
},
{
name = top;
position = "{230, 1600}";
},
{
name = topleft;
position = "{40, 1600}";
}
);
layerId = "5013C991-8699-46CB-BB1C-82E334DBD38B";
paths = (
{
closed = 1;
nodes = (
"380 0 LINE",
"380 1600 LINE",
"80 1600 LINE",
"80 0 LINE"
);
}
);
width = 460;
},
{
anchors = (
{
name = bottom;
position = "{140, 0}";
},
{
name = ogonek;
position = "{140, 0}";
},
{
name = top;
position = "{140, 1600}";
},
{
name = topleft;
position = "{80, 1600}";
}
);
layerId = "3D06B89B-468F-44E0-A3D7-A5BC6911123E";
paths = (
{
closed = 1;
nodes = (
"160 0 LINE",
"160 1600 LINE",
"120 1600 LINE",
"120 0 LINE"
);
}
);
width = 280;
},
{
anchors = (
{
name = bottom;
position = "{163, 0}";
},
{
name = ogonek;
position = "{145, 0}";
},
{
name = top;
position = "{163, 1600}";
},
{
name = topleft;
position = "{70, 1600}";
}
);
layerId = "C9EB94EC-C68D-4931-B320-068DCAB9FADA";
paths = (
{
closed = 1;
nodes = (
"215 0 LINE",
"215 1600 LINE",
"110 1600 LINE",
"110 0 LINE"
);
}
);
width = 325;
},
{
anchors = (
{
name = bottom;
position = "{193, 0}";
},
{
name = ogonek;
position = "{174, 0}";
},
{
name = top;
position = "{193, 1600}";
},
{
name = topleft;
position = "{85, 1600}";
}
);
layerId = "6F82CFD7-79D5-473B-9D61-BE5DF154BBF2";
paths = (
{
closed = 1;
nodes = (
"260 0 LINE",
"260 1600 LINE",
"125 1600 LINE",
"125 0 LINE"
);
}
);
width = 385;
}
);
leftKerningGroup = H;
rightKerningGroup = H;
unicode = 0049;
},
{
glyphname = J;
layers = (
{
anchors = (
{
name = bottom;
position = "{266, 0}";
},
{
name = top;
position = "{306, 1600}";
}
);
layerId = "3B122060-26E0-4730-9241-82784E6CB359";
paths = (
{
closed = 1;
nodes = (
"424 -10 OFFCURVE",
"490 48 OFFCURVE",
"490 196 CURVE SMOOTH",
"490 1600 LINE",
"410 1600 LINE",
"410 196 LINE SMOOTH",
"410 98 OFFCURVE",
"378 66 OFFCURVE",
"258 66 CURVE SMOOTH",
"154 66 OFFCURVE",
"126 98 OFFCURVE",
"122 196 CURVE SMOOTH",
"116 326 OFFCURVE",
"118 436 OFFCURVE",
"122 566 CURVE",
"42 566 LINE",
"38 426 OFFCURVE",
"38 336 OFFCURVE",
"42 196 CURVE SMOOTH",
"46 48 OFFCURVE",
"108 -10 OFFCURVE",
"258 -10 CURVE SMOOTH"
);
}
);
width = 570;
},
{
anchors = (
{
name = bottom;
position = "{460, -20}";
},
{
name = top;
position = "{516, 1600}";
}
);
layerId = "1DFA7D5B-2E97-4B89-827F-FB43F8066DC1";
paths = (
{
closed = 1;
nodes = (
"768 -20 OFFCURVE",
"890 94 OFFCURVE",
"890 382 CURVE SMOOTH",
"890 1600 LINE",
"590 1600 LINE",
"590 346 LINE SMOOTH",
"590 258 OFFCURVE",
"552 224 OFFCURVE",
"460 224 CURVE SMOOTH",
"366 224 OFFCURVE",
"326 258 OFFCURVE",
"324 346 CURVE SMOOTH",
"322 418 OFFCURVE",
"322 528 OFFCURVE",
"324 600 CURVE",
"42 600 LINE",
"40 536 OFFCURVE",
"40 446 OFFCURVE",
"42 382 CURVE SMOOTH",
"50 94 OFFCURVE",
"170 -20 OFFCURVE",
"460 -20 CURVE SMOOTH"
);
}
);
width = 950;
},
{
anchors = (
{
name = bottom;
position = "{460, -20}";
},
{
name = top;
position = "{516, 1600}";
}
);
layerId = "5013C991-8699-46CB-BB1C-82E334DBD38B";
paths = (
{
closed = 1;
nodes = (
"762 -20 OFFCURVE",
"870 94 OFFCURVE",
"870 382 CURVE SMOOTH",
"870 1600 LINE",
"570 1600 LINE",
"570 326 LINE SMOOTH",
"570 260 OFFCURVE",
"538 224 OFFCURVE",
"460 224 CURVE SMOOTH",
"382 224 OFFCURVE",
"346 260 OFFCURVE",
"344 326 CURVE SMOOTH",
"342 398 OFFCURVE",
"342 528 OFFCURVE",
"344 600 CURVE",
"62 600 LINE",
"60 536 OFFCURVE",
"60 446 OFFCURVE",
"62 382 CURVE SMOOTH",
"70 94 OFFCURVE",
"166 -20 OFFCURVE",
"460 -20 CURVE SMOOTH"
);
}
);
width = 950;
},
{
anchors = (
{
name = bottom;
position = "{246, 0}";
},
{
name = top;
position = "{286, 1600}";
}
);
layerId = "3D06B89B-468F-44E0-A3D7-A5BC6911123E";
paths = (
{
closed = 1;
nodes = (
"360 -10 OFFCURVE",
"410 44 OFFCURVE",
"410 176 CURVE SMOOTH",
"410 1600 LINE",
"370 1600 LINE",
"370 176 LINE SMOOTH",
"370 72 OFFCURVE",
"332 30 OFFCURVE",
"238 30 CURVE SMOOTH",
"140 30 OFFCURVE",
"106 72 OFFCURVE",
"102 176 CURVE SMOOTH",
"98 306 OFFCURVE",
"98 436 OFFCURVE",
"102 566 CURVE",
"62 566 LINE",
"58 426 OFFCURVE",
"58 316 OFFCURVE",
"62 176 CURVE SMOOTH",
"64 44 OFFCURVE",
"114 -10 OFFCURVE",
"238 -10 CURVE SMOOTH"
);
}
);
width = 530;
},
{
anchors = (
{
name = bottom;
position = "{300, -5}";
},
{
name = top;
position = "{344, 1600}";
}
);
layerId = "C9EB94EC-C68D-4931-B320-068DCAB9FADA";
paths = (
{
closed = 1;
nodes = (
"461 -13 OFFCURVE",
"525 57 OFFCURVE",
"525 228 CURVE SMOOTH",
"525 1600 LINE",
"420 1600 LINE",
"420 214 LINE SMOOTH",
"420 119 OFFCURVE",
"384 79 OFFCURVE",
"294 79 CURVE SMOOTH",
"201 79 OFFCURVE",
"166 119 OFFCURVE",
"163 214 CURVE SMOOTH",
"159 329 OFFCURVE",
"159 459 OFFCURVE",
"163 575 CURVE",
"62 575 LINE",
"59 454 OFFCURVE",
"59 349 OFFCURVE",
"62 228 CURVE SMOOTH",
"66 57 OFFCURVE",
"127 -13 OFFCURVE",
"294 -13 CURVE SMOOTH"
);
}
);
width = 635;
},
{
anchors = (
{
name = bottom;
position = "{315, -5}";
},
{
name = top;
position = "{359, 1600}";
}
);
layerId = "6F82CFD7-79D5-473B-9D61-BE5DF154BBF2";
paths = (
{
closed = 1;
nodes = (
"510 -13 OFFCURVE",
"590 60 OFFCURVE",
"590 243 CURVE SMOOTH",
"590 1600 LINE",
"455 1600 LINE",
"455 234 LINE SMOOTH",
"455 138 OFFCURVE",
"422 106 OFFCURVE",
"309 106 CURVE SMOOTH",
"207 106 OFFCURVE",
"176 138 OFFCURVE",
"173 234 CURVE SMOOTH",
"168 349 OFFCURVE",
"169 459 OFFCURVE",
"173 575 CURVE",
"42 575 LINE",
"39 454 OFFCURVE",
"39 364 OFFCURVE",
"42 243 CURVE SMOOTH",
"47 60 OFFCURVE",
"124 -13 OFFCURVE",
"309 -13 CURVE SMOOTH"
);
}
);
width = 665;
}
);
leftKerningGroup = J;
rightKerningGroup = O;
unicode = 004A;
},
{
glyphname = K;
layers = (
{
anchors = (
{
name = bottom;
position = "{370, 0}";
},
{
name = top;
position = "{350, 1600}";
}
);
background = {
paths = (
{
closed = 1;
nodes = (
"270 782 LINE",
"274 800 LINE",
"480 1600 LINE",
"440 1600 LINE",
"202 678 LINE",
"196 664 LINE",
"214 584 LINE"
);
},
{
closed = 1;
nodes = (
"498 0 LINE",
"272 900 LINE",
"254 820 LINE",
"458 0 LINE"
);
},
{
closed = 1;
nodes = (
"220 0 LINE",
"220 1600 LINE",
"180 1600 LINE",
"180 0 LINE"
);
},
{
closed = 1;
nodes = (
"418 780 LINE",
"418 820 LINE",
"210 820 LINE",
"210 780 LINE"
);
}
);
};
layerId = "3B122060-26E0-4730-9241-82784E6CB359";
paths = (
{
closed = 1;
nodes = (
"220 0 LINE",
"220 360 LINE",
"340 718 LINE",
"550 0 LINE",
"636 0 LINE",
"382 852 LINE",
"604 1600 LINE",
"520 1600 LINE",
"426 1282 LINE",
"256 698 LINE",
"220 698 LINE",
"220 1230 LINE",
"220 1600 LINE",
"140 1600 LINE",
"140 0 LINE"
);
}
);
width = 716;
},
{
anchors = (
{
name = bottom;
position = "{530, 0}";
},
{
name = top;
position = "{530, 1600}";
}
);
background = {
paths = (
{
closed = 1;
nodes = (
"400 0 LINE",
"400 1600 LINE",
"100 1600 LINE",
"100 0 LINE"
);
},
{
closed = 1;
nodes = (
"960 0 LINE",
"674 838 LINE",
"444 646 LINE",
"646 0 LINE"
);
},
{
closed = 1;
nodes = (
"638 634 LINE",
"936 1600 LINE",
"622 1600 LINE",
"440 940 LINE",
"400 940 LINE",
"400 634 LINE"
);
}
);
};
layerId = "1DFA7D5B-2E97-4B89-827F-FB43F8066DC1";
paths = (
{
closed = 1;
nodes = (
"386 0 LINE",
"386 360 LINE",
"530 640 LINE",
"712 0 LINE",
"1016 0 LINE",
"738 942 LINE",
"1004 1600 LINE",
"676 1600 LINE",
"532 1212 LINE",
"436 854 LINE",
"362 854 LINE",
"396 1212 LINE",
"400 1600 LINE",
"80 1600 LINE",
"80 0 LINE"
);
}
);
width = 1056;
},
{
anchors = (
{
name = bottom;
position = "{530, 0}";
},
{
name = top;
position = "{530, 1600}";
}
);
background = {
paths = (
{
closed = 1;
nodes = (
"400 0 LINE",
"400 1600 LINE",
"100 1600 LINE",
"100 0 LINE"
);
},
{
closed = 1;
nodes = (
"960 0 LINE",
"674 838 LINE",
"444 646 LINE",
"646 0 LINE"
);
},
{
closed = 1;
nodes = (
"638 634 LINE",
"936 1600 LINE",
"622 1600 LINE",
"440 940 LINE",
"400 940 LINE",
"400 634 LINE"
);
}
);
};
layerId = "5013C991-8699-46CB-BB1C-82E334DBD38B";
paths = (
{
closed = 1;
nodes = (
"386 0 LINE",
"386 368 LINE",
"498 610 LINE",
"672 0 LINE",
"976 0 LINE",
"698 942 LINE",
"964 1600 LINE",
"636 1600 LINE",
"492 1212 LINE",
"396 854 LINE",
"342 854 LINE",
"396 1212 LINE",
"400 1600 LINE",
"80 1600 LINE",
"80 0 LINE"
);
}
);
width = 1016;
},
{
anchors = (
{
name = bottom;
position = "{298, 0}";
},
{
name = top;
position = "{278, 1600}";
}
);
background = {
paths = (
{
closed = 1;
nodes = (
"190 782 LINE",
"194 800 LINE",
"400 1600 LINE",
"360 1600 LINE",
"122 678 LINE",
"116 664 LINE",
"134 584 LINE"
);
},
{
closed = 1;
nodes = (
"418 0 LINE",
"192 900 LINE",
"174 820 LINE",
"378 0 LINE"
);
},
{
closed = 1;
nodes = (
"140 0 LINE",
"140 1600 LINE",
"100 1600 LINE",
"100 0 LINE"
);
},
{
closed = 1;
nodes = (
"338 780 LINE",
"338 820 LINE",
"130 820 LINE",
"130 780 LINE"
);
}
);
};
layerId = "3D06B89B-468F-44E0-A3D7-A5BC6911123E";
paths = (
{
closed = 1;
nodes = (
"160 0 LINE",
"160 598 LINE",
"220 788 LINE",
"450 0 LINE",
"496 0 LINE",
"242 852 LINE",
"464 1600 LINE",
"420 1600 LINE",
"326 1282 LINE",
"182 790 LINE",
"160 790 LINE",
"160 1226 LINE",
"160 1600 LINE",
"120 1600 LINE",
"120 0 LINE"
);
}
);
width = 556;
},
{
anchors = (
{
name = bottom;
position = "{356, 0}";
},
{
name = top;
position = "{341, 1600}";
}
);
layerId = "C9EB94EC-C68D-4931-B320-068DCAB9FADA";
paths = (
{
closed = 1;
nodes = (
"217 0 LINE",
"217 541 LINE",
"290 744 LINE",
"506 0 LINE",
"616 0 LINE",
"356 875 LINE",
"589 1600 LINE",
"474 1600 LINE",
"368 1265 LINE",
"236 806 LINE",
"206 806 LINE",
"219 1223 LINE",
"220 1600 LINE",
"110 1600 LINE",
"110 0 LINE"
);
}
);
width = 671;
},
{
anchors = (
{
name = bottom;
position = "{410, 0}";
},
{
name = top;
position = "{395, 1600}";
}
);
layerId = "6F82CFD7-79D5-473B-9D61-BE5DF154BBF2";
paths = (
{
closed = 1;
nodes = (
"262 0 LINE",
"262 360 LINE",
"388 699 LINE",
"591 0 LINE",
"731 0 LINE",
"471 875 LINE",
"704 1600 LINE",
"559 1600 LINE",
"453 1265 LINE",
"301 737 LINE",
"256 737 LINE",
"264 1226 LINE",
"265 1600 LINE",
"125 1600 LINE",
"125 0 LINE"
);
}
);
width = 801;
}
);
leftKerningGroup = H;
rightKerningGroup = K;
unicode = 004B;
},
{
glyphname = L;
layers = (
{
anchors = (
{
name = bottom;
position = "{362, 0}";
},
{
name = center;
position = "{330, 800}";
},
{
name = top;
position = "{330, 1600}";
},
{
name = topright;
position = "{498, 1600}";
}
);
layerId = "3B122060-26E0-4730-9241-82784E6CB359";
paths = (
{
closed = 1;
nodes = (
"578 0 LINE",
"578 76 LINE",
"220 76 LINE",
"220 1600 LINE",
"140 1600 LINE",
"140 0 LINE"
);
}
);
width = 658;
},
{
anchors = (
{
name = bottom;
position = "{426, 0}";
},
{
name = center;
position = "{438, 800}";
},
{
name = top;
position = "{438, 1600}";
},
{
name = topright;
position = "{834, 1600}";
}
);
layerId = "1DFA7D5B-2E97-4B89-827F-FB43F8066DC1";
paths = (
{
closed = 1;
nodes = (
"774 0 LINE",
"774 264 LINE",
"380 264 LINE",
"380 1600 LINE",
"80 1600 LINE",
"80 0 LINE"
);
}
);
width = 814;
},
{
anchors = (
{
name = bottom;
position = "{428, 0}";
},
{
name = center;
position = "{438, 800}";
},
{
name = top;
position = "{438, 1600}";
},
{
name = topright;
position = "{834, 1600}";
}
);
layerId = "5013C991-8699-46CB-BB1C-82E334DBD38B";
paths = (
{
closed = 1;
nodes = (
"774 0 LINE",
"774 264 LINE",
"380 264 LINE",
"380 1600 LINE",
"80 1600 LINE",
"80 0 LINE"
);
}
);
width = 814;
},
{
anchors = (
{
name = bottom;
position = "{282, 0}";
},
{
name = center;
position = "{250, 800}";
},
{
name = top;
position = "{250, 1600}";
},
{
name = topright;
position = "{418, 1600}";
}
);
layerId = "3D06B89B-468F-44E0-A3D7-A5BC6911123E";
paths = (
{
closed = 1;
nodes = (
"438 0 LINE",
"438 40 LINE",
"160 40 LINE",
"160 1600 LINE",
"120 1600 LINE",
"120 0 LINE"
);
}
);
width = 478;
},
{
anchors = (
{
name = bottom;
position = "{319, 0}";
},
{
name = center;
position = "{297, 800}";
},
{
name = top;
position = "{297, 1600}";
},
{
name = topright;
position = "{522, 1600}";
}
);
layerId = "C9EB94EC-C68D-4931-B320-068DCAB9FADA";
paths = (
{
closed = 1;
nodes = (
"522 0 LINE",
"522 96 LINE",
"215 96 LINE",
"215 1600 LINE",
"110 1600 LINE",
"110 0 LINE"
);
}
);
width = 562;
},
{
anchors = (
{
name = bottom;
position = "{378, 0}";
},
{
name = center;
position = "{357, 800}";
},
{
name = top;
position = "{357, 1600}";
},
{
name = topright;
position = "{582, 1600}";
}
);
layerId = "6F82CFD7-79D5-473B-9D61-BE5DF154BBF2";
paths = (
{
closed = 1;
nodes = (
"627 0 LINE",
"627 123 LINE",
"260 123 LINE",
"260 1600 LINE",
"125 1600 LINE",
"125 0 LINE"
);
}
);
width = 697;
}
);
leftKerningGroup = H;
rightKerningGroup = L;
unicode = 004C;
},
{
glyphname = Lslash;
layers = (
{
anchors = (
{
name = bottom;
position = "{362, 0}";
},
{
name = center;
position = "{330, 800}";
},
{
name = top;
position = "{330, 1600}";
},
{
name = topright;
position = "{498, 1600}";
}
);
layerId = "3B122060-26E0-4730-9241-82784E6CB359";
paths = (
{
closed = 1;
nodes = (
"578 0 LINE",
"578 76 LINE",
"220 76 LINE",
"220 786 LINE",
"346 1200 LINE",
"266 1200 LINE",
"220 1048 LINE",
"220 1600 LINE",
"140 1600 LINE",
"140 784 LINE",
"20 394 LINE",
"100 394 LINE",
"140 522 LINE",
"140 0 LINE"
);
}
);
width = 658;
},
{
anchors = (
{
name = bottom;
position = "{586, 0}";
},
{
name = center;
position = "{598, 800}";
},
{
name = top;
position = "{598, 1600}";
},
{
name = topright;
position = "{994, 1600}";
}
);
layerId = "1DFA7D5B-2E97-4B89-827F-FB43F8066DC1";
paths = (
{
closed = 1;
nodes = (
"934 0 LINE",
"934 264 LINE",
"540 264 LINE",
"540 786 LINE",
"800 1200 LINE",
"574 1200 LINE",
"540 1132 LINE",
"540 1600 LINE",
"240 1600 LINE",
"240 744 LINE",
"0 360 LINE",
"206 360 LINE",
"240 432 LINE",
"240 0 LINE"
);
}
);
width = 974;
},
{
anchors = (
{
name = bottom;
position = "{584, 0}";
},
{
name = center;
position = "{594, 800}";
},
{
name = top;
position = "{594, 1600}";
},
{
name = topright;
position = "{990, 1600}";
}
);
layerId = "5013C991-8699-46CB-BB1C-82E334DBD38B";
paths = (
{
closed = 1;
nodes = (
"930 0 LINE",
"930 264 LINE",
"536 264 LINE",
"536 778 LINE",
"800 1200 LINE",
"574 1200 LINE",
"536 1124 LINE",
"536 1600 LINE",
"236 1600 LINE",
"236 738 LINE",
"0 360 LINE",
"206 360 LINE",
"236 424 LINE",
"236 0 LINE"
);
}
);
width = 970;
},
{
anchors = (
{
name = bottom;
position = "{284, 0}";
},
{
name = center;
position = "{252, 800}";
},
{
name = top;
position = "{252, 1600}";
},
{
name = topright;
position = "{420, 1600}";
}
);
layerId = "3D06B89B-468F-44E0-A3D7-A5BC6911123E";
paths = (
{
closed = 1;
nodes = (
"440 0 LINE",
"440 40 LINE",
"162 40 LINE",
"162 814 LINE",
"240 1200 LINE",
"200 1200 LINE",
"162 1008 LINE",
"162 1600 LINE",
"122 1600 LINE",
"122 806 LINE",
"40 400 LINE",
"80 400 LINE",
"122 614 LINE",
"122 0 LINE"
);
}
);
width = 480;
},
{
anchors = (
{
name = bottom;
position = "{359, 0}";
},
{
name = center;
position = "{338, 800}";
},
{
name = top;
position = "{338, 1600}";
},
{
name = topright;
position = "{563, 1600}";
}
);
layerId = "C9EB94EC-C68D-4931-B320-068DCAB9FADA";
paths = (
{
closed = 1;
nodes = (
"563 0 LINE",
"563 96 LINE",
"256 96 LINE",
"256 805 LINE",
"380 1200 LINE",
"294 1200 LINE",
"256 1037 LINE",
"256 1600 LINE",
"151 1600 LINE",
"151 789 LINE",
"30 390 LINE",
"112 390 LINE",
"151 567 LINE",
"151 0 LINE"
);
}
);
width = 603;
},
{
anchors = (
{
name = bottom;
position = "{418, 0}";
},
{
name = center;
position = "{397, 800}";
},
{
name = top;
position = "{397, 1600}";
},
{
name = topright;
position = "{622, 1600}";
}
);
layerId = "6F82CFD7-79D5-473B-9D61-BE5DF154BBF2";
paths = (
{
closed = 1;
nodes = (
"667 0 LINE",
"667 123 LINE",
"300 123 LINE",
"300 786 LINE",
"460 1200 LINE",
"343 1200 LINE",
"300 1069 LINE",
"300 1600 LINE",
"165 1600 LINE",
"165 774 LINE",
"15 386 LINE",
"127 386 LINE",
"165 500 LINE",
"165 0 LINE"
);
}
);
width = 737;
}
);
leftKerningGroup = H;
rightKerningGroup = L;
rightMetricsKey = L;
unicode = 0141;
},
{
glyphname = M;
layers = (
{
anchors = (
{
name = bottom;
position = "{548, 0}";
},
{
name = top;
position = "{548, 1600}";
}
);
layerId = "3B122060-26E0-4730-9241-82784E6CB359";
paths = (
{
closed = 1;
nodes = (
"220 0 LINE",
"220 504 LINE",
"220 1524 LINE",
"300 1524 LINE",
"414 452 LINE",
"460 10 LINE",
"634 10 LINE",
"680 452 LINE",
"794 1524 LINE",
"874 1524 LINE",
"874 504 LINE",
"874 0 LINE",
"954 0 LINE",
"954 1600 LINE",
"722 1600 LINE",
"648 918 LINE",
"564 86 LINE",
"530 86 LINE",
"446 918 LINE",
"372 1600 LINE",
"140 1600 LINE",
"140 0 LINE"
);
}
);
width = 1094;
},
{
anchors = (
{
name = bottom;
position = "{826, 0}";
},
{
name = top;
position = "{826, 1600}";
}
);
layerId = "1DFA7D5B-2E97-4B89-827F-FB43F8066DC1";
paths = (
{
closed = 1;
nodes = (
"390 0 LINE",
"390 492 LINE",
"334 1336 LINE",
"426 1336 LINE",
"512 472 LINE",
"634 0 LINE",
"1006 0 LINE",
"1140 472 LINE",
"1224 1336 LINE",
"1318 1336 LINE",
"1260 492 LINE",
"1260 0 LINE",
"1570 0 LINE",
"1570 1600 LINE",
"1030 1600 LINE",
"896 994 LINE",
"872 264 LINE",
"780 264 LINE",
"754 994 LINE",
"622 1600 LINE",
"80 1600 LINE",
"80 0 LINE"
);
}
);
width = 1650;
},
{
anchors = (
{
name = bottom;
position = "{746, 0}";
},
{
name = top;
position = "{746, 1600}";
}
);
layerId = "5013C991-8699-46CB-BB1C-82E334DBD38B";
paths = (
{
closed = 1;
nodes = (
"380 0 LINE",
"380 492 LINE",
"324 1336 LINE",
"376 1336 LINE",
"462 472 LINE",
"584 0 LINE",
"906 0 LINE",
"1030 472 LINE",
"1114 1336 LINE",
"1168 1336 LINE",
"1110 492 LINE",
"1110 0 LINE",
"1410 0 LINE",
"1410 1600 LINE",
"930 1600 LINE",
"796 994 LINE",
"772 264 LINE",
"720 264 LINE",
"694 994 LINE",
"562 1600 LINE",
"80 1600 LINE",
"80 0 LINE"
);
}
);
width = 1490;
},
{
anchors = (
{
name = bottom;
position = "{408, 0}";
},
{
name = top;
position = "{408, 1600}";
}
);
layerId = "3D06B89B-468F-44E0-A3D7-A5BC6911123E";
paths = (
{
closed = 1;
nodes = (
"160 0 LINE",
"160 548 LINE",
"160 1560 LINE",
"196 1560 LINE",
"314 452 LINE",
"358 10 LINE",
"456 10 LINE",
"500 452 LINE",
"618 1560 LINE",
"654 1560 LINE",
"654 548 LINE",
"654 0 LINE",
"694 0 LINE",
"694 1600 LINE",
"582 1600 LINE",
"506 918 LINE",
"420 50 LINE",
"394 50 LINE",
"308 918 LINE",
"232 1600 LINE",
"120 1600 LINE",
"120 0 LINE"
);
}
);
width = 814;
},
{
anchors = (
{
name = bottom;
position = "{492, 0}";
},
{
name = top;
position = "{492, 1600}";
}
);
layerId = "C9EB94EC-C68D-4931-B320-068DCAB9FADA";
paths = (
{
closed = 1;
nodes = (
"216 0 LINE",
"216 462 LINE",
"200 1504 LINE",
"242 1504 LINE",
"352 458 LINE",
"414 8 LINE",
"568 8 LINE",
"632 458 LINE",
"742 1504 LINE",
"786 1504 LINE",
"768 462 LINE",
"768 0 LINE",
"874 0 LINE",
"874 1600 LINE",
"670 1600 LINE",
"578 938 LINE",
"510 104 LINE",
"474 104 LINE",
"404 938 LINE",
"314 1600 LINE",
"110 1600 LINE",
"110 0 LINE"
);
}
);
width = 984;
},
{
anchors = (
{
name = bottom;
position = "{618, 0}";
},
{
name = top;
position = "{618, 1600}";
}
);
layerId = "6F82CFD7-79D5-473B-9D61-BE5DF154BBF2";
paths = (
{
closed = 1;
nodes = (
"263 0 LINE",
"263 501 LINE",
"249 1477 LINE",
"332 1477 LINE",
"439 457 LINE",
"504 8 LINE",
"727 8 LINE",
"795 457 LINE",
"902 1477 LINE",
"985 1477 LINE",
"971 501 LINE",
"971 0 LINE",
"1108 0 LINE",
"1108 1600 LINE",
"799 1600 LINE",
"710 937 LINE",
"641 131 LINE",
"593 131 LINE",
"523 937 LINE",
"435 1600 LINE",
"125 1600 LINE",
"125 0 LINE"
);
}
);
width = 1233;
}
);
leftKerningGroup = H;
rightKerningGroup = H;
unicode = 004D;
},
{
glyphname = N;
layers = (
{
anchors = (
{
name = bottom;
position = "{462, 0}";
},
{
name = top;
position = "{476, 1600}";
}
);
layerId = "3B122060-26E0-4730-9241-82784E6CB359";
paths = (
{
closed = 1;
nodes = (
"220 0 LINE",
"220 818 LINE",
"220 1524 LINE",
"302 1524 LINE",
"432 600 LINE",
"518 0 LINE",
"750 0 LINE",
"750 1600 LINE",
"670 1600 LINE",
"670 1056 LINE",
"670 76 LINE",
"588 76 LINE",
"442 1096 LINE",
"370 1600 LINE",
"140 1600 LINE",
"140 0 LINE"
);
}
);
width = 890;
},
{
anchors = (
{
name = bottom;
position = "{594, 0}";
},
{
name = top;
position = "{594, 1600}";
}
);
background = {
paths = (
{
closed = 1;
nodes = (
"422 0 LINE",
"412 614 LINE",
"362 1336 LINE",
"418 1336 LINE",
"522 582 LINE",
"710 0 LINE",
"1188 0 LINE",
"1188 1600 LINE",
"868 1600 LINE",
"878 914 LINE",
"966 264 LINE",
"914 264 LINE",
"744 1070 LINE",
"584 1600 LINE",
"100 1600 LINE",
"100 0 LINE"
);
}
);
};
layerId = "1DFA7D5B-2E97-4B89-827F-FB43F8066DC1";
paths = (
{
closed = 1;
nodes = (
"380 0 LINE",
"354 614 LINE",
"302 1338 LINE",
"398 1338 LINE",
"480 524 LINE",
"600 0 LINE",
"1118 0 LINE",
"1118 1600 LINE",
"816 1600 LINE",
"840 914 LINE",
"896 264 LINE",
"804 264 LINE",
"694 1090 LINE",
"574 1600 LINE",
"80 1600 LINE",
"80 0 LINE"
);
}
);
width = 1198;
},
{
anchors = (
{
name = bottom;
position = "{544, 0}";
},
{
name = top;
position = "{544, 1600}";
}
);
background = {
paths = (
{
closed = 1;
nodes = (
"372 0 LINE",
"362 614 LINE",
"312 1336 LINE",
"368 1336 LINE",
"472 582 LINE",
"660 0 LINE",
"1138 0 LINE",
"1138 1600 LINE",
"818 1600 LINE",
"828 914 LINE",
"916 264 LINE",
"864 264 LINE",
"694 1070 LINE",
"534 1600 LINE",
"50 1600 LINE",
"50 0 LINE"
);
}
);
};
layerId = "5013C991-8699-46CB-BB1C-82E334DBD38B";
paths = (
{
closed = 1;
nodes = (
"370 0 LINE",
"344 614 LINE",
"292 1338 LINE",
"348 1338 LINE",
"430 524 LINE",
"550 0 LINE",
"1006 0 LINE",
"1006 1600 LINE",
"716 1600 LINE",
"740 914 LINE",
"796 264 LINE",
"744 264 LINE",
"634 1090 LINE",
"514 1600 LINE",
"80 1600 LINE",
"80 0 LINE"
);
}
);
width = 1086;
},
{
anchors = (
{
name = bottom;
position = "{322, 0}";
},
{
name = top;
position = "{336, 1600}";
}
);
layerId = "3D06B89B-468F-44E0-A3D7-A5BC6911123E";
paths = (
{
closed = 1;
nodes = (
"160 0 LINE",
"160 680 LINE",
"160 1560 LINE",
"196 1560 LINE",
"332 600 LINE",
"418 0 LINE",
"530 0 LINE",
"530 1600 LINE",
"490 1600 LINE",
"490 1032 LINE",
"490 40 LINE",
"454 40 LINE",
"302 1096 LINE",
"230 1600 LINE",
"120 1600 LINE",
"120 0 LINE"
);
}
);
width = 650;
},
{
anchors = (
{
name = bottom;
position = "{378, 0}";
},
{
name = top;
position = "{388, 1600}";
}
);
layerId = "C9EB94EC-C68D-4931-B320-068DCAB9FADA";
paths = (
{
closed = 1;
nodes = (
"212 0 LINE",
"206 596 LINE",
"190 1504 LINE",
"236 1504 LINE",
"356 582 LINE",
"452 0 LINE",
"650 0 LINE",
"650 1600 LINE",
"546 1600 LINE",
"552 1054 LINE",
"570 96 LINE",
"526 96 LINE",
"386 1094 LINE",
"302 1600 LINE",
"110 1600 LINE",
"110 0 LINE"
);
}
);
width = 760;
},
{
anchors = (
{
name = bottom;
position = "{480, 0}";
},
{
name = top;
position = "{490, 1600}";
}
);
layerId = "6F82CFD7-79D5-473B-9D61-BE5DF154BBF2";
paths = (
{
closed = 1;
nodes = (
"246 0 LINE",
"238 596 LINE",
"226 1478 LINE",
"312 1478 LINE",
"430 582 LINE",
"524 0 LINE",
"828 0 LINE",
"828 1600 LINE",
"692 1600 LINE",
"698 1054 LINE",
"712 124 LINE",
"628 124 LINE",
"490 1094 LINE",
"406 1600 LINE",
"110 1600 LINE",
"110 0 LINE"
);
}
);
width = 938;
}
);
leftKerningGroup = H;
rightKerningGroup = H;
unicode = 004E;
},
{
glyphname = Eng;
layers = (
{
components = (
{
name = N;
}
);
layerId = "3B122060-26E0-4730-9241-82784E6CB359";
paths = (
{
closed = 1;
nodes = (
"702 -404 OFFCURVE",
"750 -328 OFFCURVE",
"750 -196 CURVE SMOOTH",
"750 46 LINE",
"674 46 LINE",
"674 -200 LINE SMOOTH",
"674 -292 OFFCURVE",
"646 -334 OFFCURVE",
"522 -334 CURVE SMOOTH",
"468 -334 OFFCURVE",
"428 -332 OFFCURVE",
"398 -328 CURVE",
"398 -392 LINE",
"434 -400 OFFCURVE",
"494 -404 OFFCURVE",
"526 -404 CURVE SMOOTH"
);
}
);
width = 890;
},
{
components = (
{
name = N;
}
);
layerId = "1DFA7D5B-2E97-4B89-827F-FB43F8066DC1";
paths = (
{
closed = 1;
nodes = (
"974 -422 OFFCURVE",
"1118 -320 OFFCURVE",
"1118 -66 CURVE SMOOTH",
"1118 184 LINE",
"856 184 LINE",
"856 -94 LINE SMOOTH",
"856 -166 OFFCURVE",
"774 -194 OFFCURVE",
"668 -194 CURVE SMOOTH",
"630 -194 OFFCURVE",
"558 -192 OFFCURVE",
"522 -190 CURVE",
"522 -408 LINE",
"570 -416 OFFCURVE",
"622 -422 OFFCURVE",
"668 -422 CURVE SMOOTH"
);
}
);
width = 1198;
},
{
components = (
{
name = N;
}
);
layerId = "3D06B89B-468F-44E0-A3D7-A5BC6911123E";
paths = (
{
closed = 1;
nodes = (
"488 -400 OFFCURVE",
"530 -348 OFFCURVE",
"530 -220 CURVE SMOOTH",
"530 22 LINE",
"490 22 LINE",
"490 -220 LINE SMOOTH",
"490 -330 OFFCURVE",
"460 -360 OFFCURVE",
"364 -360 CURVE SMOOTH",
"322 -360 OFFCURVE",
"290 -358 OFFCURVE",
"262 -352 CURVE",
"262 -390 LINE",
"288 -396 OFFCURVE",
"338 -400 OFFCURVE",
"368 -400 CURVE SMOOTH"
);
}
);
width = 650;
},
{
components = (
{
name = N;
}
);
layerId = "5013C991-8699-46CB-BB1C-82E334DBD38B";
paths = (
{
closed = 1;
nodes = (
"862 -422 OFFCURVE",
"1006 -320 OFFCURVE",
"1006 -66 CURVE SMOOTH",
"1006 184 LINE",
"744 184 LINE",
"744 -94 LINE SMOOTH",
"744 -166 OFFCURVE",
"662 -194 OFFCURVE",
"556 -194 CURVE SMOOTH",
"518 -194 OFFCURVE",
"446 -192 OFFCURVE",
"410 -190 CURVE",
"410 -408 LINE",
"458 -416 OFFCURVE",
"510 -422 OFFCURVE",
"556 -422 CURVE SMOOTH"
);
}
);
width = 1086;
},
{
components = (
{
name = N;
}
);
layerId = "C9EB94EC-C68D-4931-B320-068DCAB9FADA";
paths = (
{
closed = 1;
nodes = (
"608 -400 OFFCURVE",
"650 -348 OFFCURVE",
"650 -220 CURVE SMOOTH",
"650 22 LINE",
"572 22 LINE",
"572 -220 LINE SMOOTH",
"572 -304 OFFCURVE",
"554 -326 OFFCURVE",
"484 -326 CURVE SMOOTH",
"442 -326 OFFCURVE",
"410 -324 OFFCURVE",
"382 -318 CURVE",
"382 -390 LINE",
"408 -396 OFFCURVE",
"458 -400 OFFCURVE",
"488 -400 CURVE SMOOTH"
);
}
);
width = 760;
},
{
components = (
{
name = N;
}
);
layerId = "6F82CFD7-79D5-473B-9D61-BE5DF154BBF2";
paths = (
{
closed = 1;
nodes = (
"780 -404 OFFCURVE",
"828 -328 OFFCURVE",
"828 -196 CURVE SMOOTH",
"828 46 LINE",
"718 46 LINE",
"718 -200 LINE SMOOTH",
"718 -274 OFFCURVE",
"684 -304 OFFCURVE",
"600 -304 CURVE SMOOTH",
"546 -304 OFFCURVE",
"506 -302 OFFCURVE",
"476 -298 CURVE",
"476 -392 LINE",
"512 -400 OFFCURVE",
"572 -404 OFFCURVE",
"604 -404 CURVE SMOOTH"
);
}
);
width = 938;
}
);
leftKerningGroup = H;
leftMetricsKey = N;
rightKerningGroup = H;
rightMetricsKey = N;
unicode = 014A;
},
{
glyphname = O;
layers = (
{
anchors = (
{
name = bottom;
position = "{382, 0}";
},
{
name = center;
position = "{382, 800}";
},
{
name = ogonek;
position = "{508, 32}";
},
{
name = top;
position = "{382, 1600}";
},
{
name = topleft;
position = "{164, 1600}";
},
{
name = topright;
position = "{652, 1600}";
}
);
background = {
paths = (
{
closed = 1;
nodes = (
"470 -20 OFFCURVE",
"560 70 OFFCURVE",
"560 180 CURVE SMOOTH",
"560 1420 LINE SMOOTH",
"560 1530 OFFCURVE",
"470 1620 OFFCURVE",
"360 1620 CURVE SMOOTH",
"250 1620 OFFCURVE",
"160 1530 OFFCURVE",
"160 1420 CURVE SMOOTH",
"160 180 LINE SMOOTH",
"160 70 OFFCURVE",
"250 -20 OFFCURVE",
"360 -20 CURVE SMOOTH"
);
},
{
closed = 1;
nodes = (
"272 20 OFFCURVE",
"200 92 OFFCURVE",
"200 180 CURVE SMOOTH",
"200 1420 LINE SMOOTH",
"200 1508 OFFCURVE",
"272 1580 OFFCURVE",
"360 1580 CURVE SMOOTH",
"448 1580 OFFCURVE",
"520 1508 OFFCURVE",
"520 1420 CURVE SMOOTH",
"520 180 LINE SMOOTH",
"520 92 OFFCURVE",
"448 20 OFFCURVE",
"360 20 CURVE SMOOTH"
);
}
);
};
layerId = "3B122060-26E0-4730-9241-82784E6CB359";
paths = (
{
closed = 1;
nodes = (
"548 -10 OFFCURVE",
"616 52 OFFCURVE",
"618 210 CURVE SMOOTH",
"624 670 OFFCURVE",
"624 948 OFFCURVE",
"618 1388 CURVE SMOOTH",
"616 1546 OFFCURVE",
"548 1610 OFFCURVE",
"382 1610 CURVE SMOOTH",
"216 1610 OFFCURVE",
"148 1546 OFFCURVE",
"146 1388 CURVE SMOOTH",
"140 948 OFFCURVE",
"140 670 OFFCURVE",
"146 210 CURVE SMOOTH",
"148 52 OFFCURVE",
"216 -10 OFFCURVE",
"382 -10 CURVE SMOOTH"
);
},
{
closed = 1;
nodes = (
"262 66 OFFCURVE",
"228 96 OFFCURVE",
"226 210 CURVE SMOOTH",
"218 702 OFFCURVE",
"218 922 OFFCURVE",
"226 1388 CURVE SMOOTH",
"228 1502 OFFCURVE",
"262 1534 OFFCURVE",
"382 1534 CURVE SMOOTH",
"502 1534 OFFCURVE",
"536 1502 OFFCURVE",
"538 1388 CURVE SMOOTH",
"546 908 OFFCURVE",
"546 688 OFFCURVE",
"538 210 CURVE SMOOTH",
"536 96 OFFCURVE",
"502 66 OFFCURVE",
"382 66 CURVE SMOOTH"
);
}
);
width = 760;
},
{
anchors = (
{
name = bottom;
position = "{528, 0}";
},
{
name = center;
position = "{528, 800}";
},
{
name = ogonek;
position = "{724, 40}";
},
{
name = top;
position = "{528, 1600}";
},
{
name = topleft;
position = "{60, 1600}";
},
{
name = topright;
position = "{994, 1600}";
}
);
background = {
paths = (
{
closed = 1;
nodes = (
"520 -10 OFFCURVE",
"654 108 OFFCURVE",
"654 254 CURVE SMOOTH",
"654 1350 LINE SMOOTH",
"654 1492 OFFCURVE",
"520 1610 OFFCURVE",
"340 1610 CURVE SMOOTH",
"162 1610 OFFCURVE",
"28 1492 OFFCURVE",
"28 1350 CURVE SMOOTH",
"28 254 LINE SMOOTH",
"28 108 OFFCURVE",
"162 -10 OFFCURVE",
"340 -10 CURVE SMOOTH"
);
},
{
closed = 1;
nodes = (
"288 204 OFFCURVE",
"248 236 OFFCURVE",
"248 280 CURVE SMOOTH",
"248 1322 LINE SMOOTH",
"248 1364 OFFCURVE",
"288 1396 OFFCURVE",
"340 1396 CURVE SMOOTH",
"394 1396 OFFCURVE",
"434 1364 OFFCURVE",
"434 1322 CURVE SMOOTH",
"434 280 LINE SMOOTH",
"434 236 OFFCURVE",
"394 204 OFFCURVE",
"340 204 CURVE SMOOTH"
);
}
);
};
layerId = "1DFA7D5B-2E97-4B89-827F-FB43F8066DC1";
paths = (
{
closed = 1;
nodes = (
"830 -20 OFFCURVE",
"956 94 OFFCURVE",
"966 382 CURVE SMOOTH",
"978 680 OFFCURVE",
"978 918 OFFCURVE",
"966 1220 CURVE SMOOTH",
"956 1506 OFFCURVE",
"830 1620 OFFCURVE",
"526 1620 CURVE SMOOTH",
"216 1620 OFFCURVE",
"90 1506 OFFCURVE",
"84 1220 CURVE SMOOTH",
"78 920 OFFCURVE",
"78 682 OFFCURVE",
"84 382 CURVE SMOOTH",
"90 94 OFFCURVE",
"216 -20 OFFCURVE",
"526 -20 CURVE SMOOTH"
);
},
{
closed = 1;
nodes = (
"428 224 OFFCURVE",
"386 264 OFFCURVE",
"384 366 CURVE SMOOTH",
"370 658 OFFCURVE",
"370 944 OFFCURVE",
"384 1236 CURVE SMOOTH",
"386 1336 OFFCURVE",
"428 1376 OFFCURVE",
"526 1376 CURVE SMOOTH",
"624 1376 OFFCURVE",
"664 1336 OFFCURVE",
"666 1236 CURVE SMOOTH",
"680 944 OFFCURVE",
"680 658 OFFCURVE",
"666 366 CURVE SMOOTH",
"664 264 OFFCURVE",
"624 224 OFFCURVE",
"526 224 CURVE SMOOTH"
);
}
);
width = 1054;
},
{
anchors = (
{
name = bottom;
position = "{508, 0}";
},
{
name = center;
position = "{508, 800}";
},
{
name = ogonek;
position = "{622, 6}";
},
{
name = top;
position = "{508, 1600}";
},
{
name = topleft;
position = "{40, 1600}";
},
{
name = topright;
position = "{974, 1600}";
}
);
background = {
paths = (
{
closed = 1;
nodes = (
"500 -10 OFFCURVE",
"634 108 OFFCURVE",
"634 254 CURVE SMOOTH",
"634 1350 LINE SMOOTH",
"634 1492 OFFCURVE",
"500 1610 OFFCURVE",
"320 1610 CURVE SMOOTH",
"142 1610 OFFCURVE",
"8 1492 OFFCURVE",
"8 1350 CURVE SMOOTH",
"8 254 LINE SMOOTH",
"8 108 OFFCURVE",
"142 -10 OFFCURVE",
"320 -10 CURVE SMOOTH"
);
},
{
closed = 1;
nodes = (
"268 204 OFFCURVE",
"228 236 OFFCURVE",
"228 280 CURVE SMOOTH",
"228 1322 LINE SMOOTH",
"228 1364 OFFCURVE",
"268 1396 OFFCURVE",
"320 1396 CURVE SMOOTH",
"374 1396 OFFCURVE",
"414 1364 OFFCURVE",
"414 1322 CURVE SMOOTH",
"414 280 LINE SMOOTH",
"414 236 OFFCURVE",
"374 204 OFFCURVE",
"320 204 CURVE SMOOTH"
);
}
);
};
layerId = "5013C991-8699-46CB-BB1C-82E334DBD38B";
paths = (
{
closed = 1;
nodes = (
"800 -20 OFFCURVE",
"916 94 OFFCURVE",
"926 382 CURVE SMOOTH",
"936 644 OFFCURVE",
"936 954 OFFCURVE",
"926 1220 CURVE SMOOTH",
"916 1506 OFFCURVE",
"800 1620 OFFCURVE",
"506 1620 CURVE SMOOTH",
"212 1620 OFFCURVE",
"90 1506 OFFCURVE",
"84 1220 CURVE SMOOTH",
"78 958 OFFCURVE",
"78 644 OFFCURVE",
"84 382 CURVE SMOOTH",
"90 94 OFFCURVE",
"212 -20 OFFCURVE",
"506 -20 CURVE SMOOTH"
);
},
{
closed = 1;
nodes = (
"430 224 OFFCURVE",
"386 260 OFFCURVE",
"384 326 CURVE SMOOTH",
"372 598 OFFCURVE",
"372 1004 OFFCURVE",
"384 1276 CURVE SMOOTH",
"386 1340 OFFCURVE",
"430 1376 OFFCURVE",
"506 1376 CURVE SMOOTH",
"582 1376 OFFCURVE",
"624 1340 OFFCURVE",
"626 1276 CURVE SMOOTH",
"638 1004 OFFCURVE",
"638 598 OFFCURVE",
"626 326 CURVE SMOOTH",
"624 260 OFFCURVE",
"584 224 OFFCURVE",
"506 224 CURVE SMOOTH"
);
}
);
width = 1014;
},
{
anchors = (
{
name = bottom;
position = "{302, 0}";
},
{
name = center;
position = "{302, 800}";
},
{
name = ogonek;
position = "{400, 20}";
},
{
name = top;
position = "{302, 1600}";
},
{
name = topleft;
position = "{84, 1600}";
},
{
name = topright;
position = "{520, 1600}";
}
);
background = {
paths = (
{
closed = 1;
nodes = (
"410 -20 OFFCURVE",
"500 70 OFFCURVE",
"500 180 CURVE SMOOTH",
"500 1420 LINE SMOOTH",
"500 1530 OFFCURVE",
"410 1620 OFFCURVE",
"300 1620 CURVE SMOOTH",
"190 1620 OFFCURVE",
"100 1530 OFFCURVE",
"100 1420 CURVE SMOOTH",
"100 180 LINE SMOOTH",
"100 70 OFFCURVE",
"190 -20 OFFCURVE",
"300 -20 CURVE SMOOTH"
);
},
{
closed = 1;
nodes = (
"212 20 OFFCURVE",
"140 92 OFFCURVE",
"140 180 CURVE SMOOTH",
"140 1420 LINE SMOOTH",
"140 1508 OFFCURVE",
"212 1580 OFFCURVE",
"300 1580 CURVE SMOOTH",
"388 1580 OFFCURVE",
"460 1508 OFFCURVE",
"460 1420 CURVE SMOOTH",
"460 180 LINE SMOOTH",
"460 92 OFFCURVE",
"388 20 OFFCURVE",
"300 20 CURVE SMOOTH"
);
}
);
};
layerId = "3D06B89B-468F-44E0-A3D7-A5BC6911123E";
paths = (
{
closed = 1;
nodes = (
"428 -10 OFFCURVE",
"478 42 OFFCURVE",
"478 170 CURVE SMOOTH",
"482 620 OFFCURVE",
"482 978 OFFCURVE",
"478 1428 CURVE SMOOTH",
"478 1558 OFFCURVE",
"428 1610 OFFCURVE",
"302 1610 CURVE SMOOTH",
"176 1610 OFFCURVE",
"128 1558 OFFCURVE",
"126 1428 CURVE SMOOTH",
"118 978 OFFCURVE",
"118 620 OFFCURVE",
"126 170 CURVE SMOOTH",
"128 42 OFFCURVE",
"176 -10 OFFCURVE",
"302 -10 CURVE SMOOTH"
);
},
{
closed = 1;
nodes = (
"202 30 OFFCURVE",
"168 64 OFFCURVE",
"166 170 CURVE SMOOTH",
"158 628 OFFCURVE",
"156 988 OFFCURVE",
"166 1428 CURVE SMOOTH",
"168 1536 OFFCURVE",
"202 1570 OFFCURVE",
"302 1570 CURVE SMOOTH",
"402 1570 OFFCURVE",
"436 1536 OFFCURVE",
"438 1428 CURVE SMOOTH",
"444 988 OFFCURVE",
"448 628 OFFCURVE",
"438 170 CURVE SMOOTH",
"436 64 OFFCURVE",
"402 30 OFFCURVE",
"302 30 CURVE SMOOTH"
);
}
);
width = 600;
},
{
anchors = (
{
name = bottom;
position = "{354, 0}";
},
{
name = center;
position = "{354, 800}";
},
{
name = ogonek;
position = "{456, 17}";
},
{
name = top;
position = "{354, 1600}";
},
{
name = topleft;
position = "{73, 1600}";
},
{
name = topright;
position = "{634, 1600}";
}
);
layerId = "C9EB94EC-C68D-4931-B320-068DCAB9FADA";
paths = (
{
closed = 1;
nodes = (
"521 -13 OFFCURVE",
"588 55 OFFCURVE",
"590 223 CURVE SMOOTH",
"596 626 OFFCURVE",
"596 972 OFFCURVE",
"590 1376 CURVE SMOOTH",
"588 1545 OFFCURVE",
"521 1613 OFFCURVE",
"353 1613 CURVE SMOOTH",
"185 1613 OFFCURVE",
"119 1545 OFFCURVE",
"116 1376 CURVE SMOOTH",
"108 973 OFFCURVE",
"108 626 OFFCURVE",
"116 223 CURVE SMOOTH",
"119 55 OFFCURVE",
"185 -13 OFFCURVE",
"353 -13 CURVE SMOOTH"
);
},
{
closed = 1;
nodes = (
"259 79 OFFCURVE",
"223 113 OFFCURVE",
"221 209 CURVE SMOOTH",
"212 621 OFFCURVE",
"210 992 OFFCURVE",
"221 1390 CURVE SMOOTH",
"223 1487 OFFCURVE",
"259 1522 OFFCURVE",
"353 1522 CURVE SMOOTH",
"447 1522 OFFCURVE",
"483 1487 OFFCURVE",
"485 1390 CURVE SMOOTH",
"493 992 OFFCURVE",
"496 621 OFFCURVE",
"485 209 CURVE SMOOTH",
"483 113 OFFCURVE",
"448 79 OFFCURVE",
"353 79 CURVE SMOOTH"
);
}
);
width = 704;
},
{
anchors = (
{
name = bottom;
position = "{419, 0}";
},
{
name = center;
position = "{419, 800}";
},
{
name = ogonek;
position = "{562, 34}";
},
{
name = top;
position = "{419, 1600}";
},
{
name = topleft;
position = "{138, 1600}";
},
{
name = topright;
position = "{738, 1600}";
}
);
layerId = "6F82CFD7-79D5-473B-9D61-BE5DF154BBF2";
paths = (
{
closed = 1;
nodes = (
"619 -13 OFFCURVE",
"701 63 OFFCURVE",
"705 253 CURVE SMOOTH",
"713 673 OFFCURVE",
"713 941 OFFCURVE",
"705 1346 CURVE SMOOTH",
"701 1536 OFFCURVE",
"619 1613 OFFCURVE",
"418 1613 CURVE SMOOTH",
"216 1613 OFFCURVE",
"134 1536 OFFCURVE",
"131 1346 CURVE SMOOTH",
"125 941 OFFCURVE",
"125 673 OFFCURVE",
"131 253 CURVE SMOOTH",
"134 63 OFFCURVE",
"216 -13 OFFCURVE",
"418 -13 CURVE SMOOTH"
);
},
{
closed = 1;
nodes = (
"304 106 OFFCURVE",
"268 138 OFFCURVE",
"266 249 CURVE SMOOTH",
"256 691 OFFCURVE",
"256 928 OFFCURVE",
"266 1350 CURVE SMOOTH",
"268 1461 OFFCURVE",
"304 1495 OFFCURVE",
"418 1495 CURVE SMOOTH",
"533 1495 OFFCURVE",
"568 1461 OFFCURVE",
"570 1350 CURVE SMOOTH",
"580 917 OFFCURVE",
"580 681 OFFCURVE",
"570 249 CURVE SMOOTH",
"568 138 OFFCURVE",
"533 106 OFFCURVE",
"418 106 CURVE SMOOTH"
);
}
);
width = 834;
}
);
leftKerningGroup = O;
rightKerningGroup = O;
unicode = 004F;
},
{
glyphname = Oslash;
layers = (
{
anchors = (
{
name = bottom;
position = "{382, 0}";
},
{
name = center;
position = "{382, 800}";
},
{
name = ogonek;
position = "{508, 32}";
},
{
name = top;
position = "{382, 1600}";
},
{
name = topleft;
position = "{164, 1600}";
},
{
name = topright;
position = "{652, 1600}";
}
);
layerId = "3B122060-26E0-4730-9241-82784E6CB359";
paths = (
{
closed = 1;
nodes = (
"548 -10 OFFCURVE",
"616 52 OFFCURVE",
"618 210 CURVE SMOOTH",
"624 670 OFFCURVE",
"624 948 OFFCURVE",
"618 1388 CURVE SMOOTH",
"616 1546 OFFCURVE",
"548 1610 OFFCURVE",
"382 1610 CURVE SMOOTH",
"216 1610 OFFCURVE",
"148 1546 OFFCURVE",
"146 1388 CURVE SMOOTH",
"140 948 OFFCURVE",
"140 670 OFFCURVE",
"146 210 CURVE SMOOTH",
"148 52 OFFCURVE",
"216 -10 OFFCURVE",
"382 -10 CURVE SMOOTH"
);
},
{
closed = 1;
nodes = (
"262 66 OFFCURVE",
"228 96 OFFCURVE",
"226 210 CURVE SMOOTH",
"226 260 OFFCURVE",
"224 308 OFFCURVE",
"224 354 CURVE",
"542 1078 LINE",
"546 786 OFFCURVE",
"544 572 OFFCURVE",
"538 210 CURVE SMOOTH",
"536 96 OFFCURVE",
"502 66 OFFCURVE",
"382 66 CURVE SMOOTH"
);
},
{
closed = 1;
nodes = (
"218 824 OFFCURVE",
"220 1036 OFFCURVE",
"226 1388 CURVE SMOOTH",
"228 1502 OFFCURVE",
"262 1534 OFFCURVE",
"382 1534 CURVE SMOOTH",
"502 1534 OFFCURVE",
"536 1502 OFFCURVE",
"538 1388 CURVE SMOOTH",
"538 1338 OFFCURVE",
"540 1292 OFFCURVE",
"540 1248 CURVE",
"222 530 LINE"
);
}
);
width = 760;
},
{
anchors = (
{
name = bottom;
position = "{528, 0}";
},
{
name = center;
position = "{528, 800}";
},
{
name = ogonek;
position = "{724, 40}";
},
{
name = top;
position = "{528, 1600}";
},
{
name = topleft;
position = "{60, 1600}";
},
{
name = topright;
position = "{994, 1600}";
}
);
layerId = "1DFA7D5B-2E97-4B89-827F-FB43F8066DC1";
paths = (
{
closed = 1;
nodes = (
"830 -20 OFFCURVE",
"956 94 OFFCURVE",
"966 382 CURVE SMOOTH",
"978 680 OFFCURVE",
"978 918 OFFCURVE",
"966 1220 CURVE SMOOTH",
"956 1506 OFFCURVE",
"830 1620 OFFCURVE",
"526 1620 CURVE SMOOTH",
"216 1620 OFFCURVE",
"90 1506 OFFCURVE",
"84 1220 CURVE SMOOTH",
"78 920 OFFCURVE",
"78 682 OFFCURVE",
"84 382 CURVE SMOOTH",
"90 94 OFFCURVE",
"216 -20 OFFCURVE",
"526 -20 CURVE SMOOTH"
);
},
{
closed = 1;
nodes = (
"428 224 OFFCURVE",
"386 264 OFFCURVE",
"384 366 CURVE SMOOTH",
"382 390 OFFCURVE",
"382 412 OFFCURVE",
"380 436 CURVE",
"676 792 LINE",
"676 650 OFFCURVE",
"672 510 OFFCURVE",
"666 366 CURVE SMOOTH",
"664 264 OFFCURVE",
"624 224 OFFCURVE",
"526 224 CURVE SMOOTH"
);
},
{
closed = 1;
nodes = (
"372 924 OFFCURVE",
"376 1080 OFFCURVE",
"384 1236 CURVE SMOOTH",
"386 1336 OFFCURVE",
"428 1376 OFFCURVE",
"526 1376 CURVE SMOOTH",
"624 1376 OFFCURVE",
"664 1336 OFFCURVE",
"666 1236 CURVE SMOOTH",
"668 1200 OFFCURVE",
"670 1164 OFFCURVE",
"670 1128 CURVE",
"374 768 LINE"
);
}
);
width = 1054;
},
{
anchors = (
{
name = bottom;
position = "{508, 0}";
},
{
name = center;
position = "{508, 800}";
},
{
name = ogonek;
position = "{622, 6}";
},
{
name = top;
position = "{508, 1600}";
},
{
name = topleft;
position = "{40, 1600}";
},
{
name = topright;
position = "{974, 1600}";
}
);
layerId = "5013C991-8699-46CB-BB1C-82E334DBD38B";
paths = (
{
closed = 1;
nodes = (
"800 -20 OFFCURVE",
"916 94 OFFCURVE",
"926 382 CURVE SMOOTH",
"936 644 OFFCURVE",
"936 954 OFFCURVE",
"926 1220 CURVE SMOOTH",
"916 1506 OFFCURVE",
"800 1620 OFFCURVE",
"506 1620 CURVE SMOOTH",
"212 1620 OFFCURVE",
"90 1506 OFFCURVE",
"84 1220 CURVE SMOOTH",
"78 958 OFFCURVE",
"78 644 OFFCURVE",
"84 382 CURVE SMOOTH",
"90 94 OFFCURVE",
"212 -20 OFFCURVE",
"506 -20 CURVE SMOOTH"
);
},
{
closed = 1;
nodes = (
"430 224 OFFCURVE",
"386 260 OFFCURVE",
"384 326 CURVE SMOOTH",
"382 366 OFFCURVE",
"380 408 OFFCURVE",
"380 452 CURVE",
"634 764 LINE",
"634 606 OFFCURVE",
"632 452 OFFCURVE",
"626 326 CURVE SMOOTH",
"624 260 OFFCURVE",
"584 224 OFFCURVE",
"506 224 CURVE SMOOTH"
);
},
{
closed = 1;
nodes = (
"374 948 OFFCURVE",
"378 1130 OFFCURVE",
"384 1276 CURVE SMOOTH",
"386 1340 OFFCURVE",
"430 1376 OFFCURVE",
"506 1376 CURVE SMOOTH",
"582 1376 OFFCURVE",
"624 1340 OFFCURVE",
"626 1276 CURVE SMOOTH",
"628 1212 OFFCURVE",
"630 1148 OFFCURVE",
"632 1084 CURVE",
"376 768 LINE"
);
}
);
width = 1014;
},
{
anchors = (
{
name = bottom;
position = "{302, 0}";
},
{
name = center;
position = "{302, 800}";
},
{
name = ogonek;
position = "{400, 20}";
},
{
name = top;
position = "{302, 1600}";
},
{
name = topleft;
position = "{84, 1600}";
},
{
name = topright;
position = "{520, 1600}";
}
);
layerId = "3D06B89B-468F-44E0-A3D7-A5BC6911123E";
paths = (
{
closed = 1;
nodes = (
"428 -10 OFFCURVE",
"478 42 OFFCURVE",
"478 170 CURVE SMOOTH",
"482 620 OFFCURVE",
"482 978 OFFCURVE",
"478 1428 CURVE SMOOTH",
"478 1558 OFFCURVE",
"428 1610 OFFCURVE",
"302 1610 CURVE SMOOTH",
"176 1610 OFFCURVE",
"128 1558 OFFCURVE",
"126 1428 CURVE SMOOTH",
"118 978 OFFCURVE",
"118 620 OFFCURVE",
"126 170 CURVE SMOOTH",
"128 42 OFFCURVE",
"176 -10 OFFCURVE",
"302 -10 CURVE SMOOTH"
);
},
{
closed = 1;
nodes = (
"202 30 OFFCURVE",
"168 64 OFFCURVE",
"166 170 CURVE SMOOTH",
"164 280 OFFCURVE",
"162 386 OFFCURVE",
"162 486 CURVE",
"442 1054 LINE",
"446 766 OFFCURVE",
"446 492 OFFCURVE",
"438 170 CURVE SMOOTH",
"436 64 OFFCURVE",
"402 30 OFFCURVE",
"302 30 CURVE SMOOTH"
);
},
{
closed = 1;
nodes = (
"158 858 OFFCURVE",
"160 1124 OFFCURVE",
"166 1428 CURVE SMOOTH",
"168 1536 OFFCURVE",
"202 1570 OFFCURVE",
"302 1570 CURVE SMOOTH",
"402 1570 OFFCURVE",
"436 1536 OFFCURVE",
"438 1428 CURVE SMOOTH",
"440 1322 OFFCURVE",
"440 1222 OFFCURVE",
"442 1122 CURVE",
"160 572 LINE"
);
}
);
width = 600;
},
{
anchors = (
{
name = bottom;
position = "{354, 0}";
},
{
name = center;
position = "{354, 800}";
},
{
name = ogonek;
position = "{456, 17}";
},
{
name = top;
position = "{354, 1600}";
},
{
name = topleft;
position = "{73, 1600}";
},
{
name = topright;
position = "{634, 1600}";
}
);
layerId = "C9EB94EC-C68D-4931-B320-068DCAB9FADA";
paths = (
{
closed = 1;
nodes = (
"521 -13 OFFCURVE",
"588 55 OFFCURVE",
"590 223 CURVE SMOOTH",
"596 626 OFFCURVE",
"596 972 OFFCURVE",
"590 1376 CURVE SMOOTH",
"588 1545 OFFCURVE",
"521 1613 OFFCURVE",
"353 1613 CURVE SMOOTH",
"185 1613 OFFCURVE",
"119 1545 OFFCURVE",
"116 1376 CURVE SMOOTH",
"108 973 OFFCURVE",
"108 626 OFFCURVE",
"116 223 CURVE SMOOTH",
"119 55 OFFCURVE",
"185 -13 OFFCURVE",
"353 -13 CURVE SMOOTH"
);
},
{
closed = 1;
nodes = (
"259 79 OFFCURVE",
"223 113 OFFCURVE",
"221 209 CURVE SMOOTH",
"219 302 OFFCURVE",
"217 392 OFFCURVE",
"217 478 CURVE",
"490 982 LINE",
"493 726 OFFCURVE",
"493 482 OFFCURVE",
"485 209 CURVE SMOOTH",
"483 113 OFFCURVE",
"448 79 OFFCURVE",
"353 79 CURVE SMOOTH"
);
},
{
closed = 1;
nodes = (
"212 881 OFFCURVE",
"215 1126 OFFCURVE",
"221 1390 CURVE SMOOTH",
"223 1487 OFFCURVE",
"259 1522 OFFCURVE",
"353 1522 CURVE SMOOTH",
"447 1522 OFFCURVE",
"483 1487 OFFCURVE",
"485 1390 CURVE SMOOTH",
"487 1295 OFFCURVE",
"488 1204 OFFCURVE",
"490 1113 CURVE",
"214 621 LINE"
);
}
);
width = 704;
},
{
anchors = (
{
name = bottom;
position = "{419, 0}";
},
{
name = center;
position = "{419, 800}";
},
{
name = ogonek;
position = "{562, 34}";
},
{
name = top;
position = "{419, 1600}";
},
{
name = topleft;
position = "{138, 1600}";
},
{
name = topright;
position = "{738, 1600}";
}
);
layerId = "6F82CFD7-79D5-473B-9D61-BE5DF154BBF2";
paths = (
{
closed = 1;
nodes = (
"619 -13 OFFCURVE",
"701 63 OFFCURVE",
"705 253 CURVE SMOOTH",
"713 673 OFFCURVE",
"713 941 OFFCURVE",
"705 1346 CURVE SMOOTH",
"701 1536 OFFCURVE",
"619 1613 OFFCURVE",
"418 1613 CURVE SMOOTH",
"216 1613 OFFCURVE",
"134 1536 OFFCURVE",
"131 1346 CURVE SMOOTH",
"125 941 OFFCURVE",
"125 673 OFFCURVE",
"131 253 CURVE SMOOTH",
"134 63 OFFCURVE",
"216 -13 OFFCURVE",
"418 -13 CURVE SMOOTH"
);
},
{
closed = 1;
nodes = (
"304 106 OFFCURVE",
"268 138 OFFCURVE",
"266 249 CURVE SMOOTH",
"265 293 OFFCURVE",
"264 334 OFFCURVE",
"263 375 CURVE",
"576 1007 LINE",
"579 752 OFFCURVE",
"576 557 OFFCURVE",
"570 249 CURVE SMOOTH",
"568 138 OFFCURVE",
"533 106 OFFCURVE",
"418 106 CURVE SMOOTH"
);
},
{
closed = 1;
nodes = (
"257 849 OFFCURVE",
"259 1047 OFFCURVE",
"266 1350 CURVE SMOOTH",
"268 1461 OFFCURVE",
"304 1495 OFFCURVE",
"418 1495 CURVE SMOOTH",
"533 1495 OFFCURVE",
"568 1461 OFFCURVE",
"570 1350 CURVE SMOOTH",
"571 1304 OFFCURVE",
"573 1260 OFFCURVE",
"573 1218 CURVE",
"260 590 LINE"
);
}
);
width = 834;
}
);
leftKerningGroup = O;
leftMetricsKey = O;
rightKerningGroup = O;
rightMetricsKey = O;
unicode = 00D8;
},
{
glyphname = OE;
layers = (
{
anchors = (
{
name = bottom;
position = "{382, 0}";
},
{
name = center;
position = "{382, 800}";
},
{
name = ogonek;
position = "{508, 32}";
},
{
name = top;
position = "{382, 1600}";
},
{
name = topleft;
position = "{164, 1600}";
},
{
name = topright;
position = "{652, 1600}";
}
);
layerId = "3B122060-26E0-4730-9241-82784E6CB359";
paths = (
{
closed = 1;
nodes = (
"452 -10 OFFCURVE",
"504 2 OFFCURVE",
"542 26 CURVE",
"542 0 LINE",
"960 0 LINE",
"960 76 LINE",
"622 76 LINE",
"622 762 LINE",
"940 762 LINE",
"940 838 LINE",
"622 838 LINE",
"622 1524 LINE",
"960 1524 LINE",
"960 1600 LINE",
"542 1600 LINE",
"542 1574 LINE",
"504 1598 OFFCURVE",
"452 1610 OFFCURVE",
"382 1610 CURVE SMOOTH",
"216 1610 OFFCURVE",
"148 1546 OFFCURVE",
"146 1388 CURVE SMOOTH",
"140 948 OFFCURVE",
"140 670 OFFCURVE",
"146 210 CURVE SMOOTH",
"148 52 OFFCURVE",
"216 -10 OFFCURVE",
"382 -10 CURVE SMOOTH"
);
},
{
closed = 1;
nodes = (
"262 66 OFFCURVE",
"228 96 OFFCURVE",
"226 210 CURVE SMOOTH",
"218 702 OFFCURVE",
"218 922 OFFCURVE",
"226 1388 CURVE SMOOTH",
"228 1502 OFFCURVE",
"262 1534 OFFCURVE",
"382 1534 CURVE SMOOTH",
"502 1534 OFFCURVE",
"536 1502 OFFCURVE",
"538 1388 CURVE SMOOTH",
"540 1286 OFFCURVE",
"540 312 OFFCURVE",
"538 210 CURVE SMOOTH",
"536 96 OFFCURVE",
"502 66 OFFCURVE",
"382 66 CURVE SMOOTH"
);
}
);
width = 1060;
},
{
anchors = (
{
name = bottom;
position = "{1072, 0}";
},
{
name = center;
position = "{528, 800}";
},
{
name = ogonek;
position = "{1146, 0}";
},
{
name = top;
position = "{1044, 1600}";
},
{
name = topleft;
position = "{676, 1600}";
},
{
name = topright;
position = "{994, 1600}";
}
);
layerId = "1DFA7D5B-2E97-4B89-827F-FB43F8066DC1";
paths = (
{
closed = 1;
nodes = (
"598 -20 OFFCURVE",
"660 -14 OFFCURVE",
"712 0 CURVE",
"714 0 LINE",
"1408 0 LINE",
"1408 264 LINE",
"976 264 LINE",
"976 682 LINE",
"1388 682 LINE",
"1388 946 LINE",
"976 946 LINE",
"976 1336 LINE",
"1408 1336 LINE",
"1408 1600 LINE",
"716 1600 LINE",
"714 1600 LINE",
"660 1614 OFFCURVE",
"598 1620 OFFCURVE",
"526 1620 CURVE SMOOTH",
"216 1620 OFFCURVE",
"90 1506 OFFCURVE",
"84 1220 CURVE SMOOTH",
"78 920 OFFCURVE",
"78 682 OFFCURVE",
"84 382 CURVE SMOOTH",
"90 94 OFFCURVE",
"216 -20 OFFCURVE",
"526 -20 CURVE SMOOTH"
);
},
{
closed = 1;
nodes = (
"428 224 OFFCURVE",
"386 264 OFFCURVE",
"384 366 CURVE SMOOTH",
"370 658 OFFCURVE",
"370 944 OFFCURVE",
"384 1236 CURVE SMOOTH",
"386 1336 OFFCURVE",
"428 1376 OFFCURVE",
"526 1376 CURVE SMOOTH",
"624 1376 OFFCURVE",
"664 1336 OFFCURVE",
"666 1236 CURVE SMOOTH",
"672 1122 OFFCURVE",
"672 480 OFFCURVE",
"666 366 CURVE SMOOTH",
"664 264 OFFCURVE",
"624 224 OFFCURVE",
"526 224 CURVE SMOOTH"
);
}
);
width = 1448;
},
{
anchors = (
{
name = bottom;
position = "{992, 0}";
},
{
name = center;
position = "{508, 800}";
},
{
name = ogonek;
position = "{1094, 0}";
},
{
name = top;
position = "{986, 1600}";
},
{
name = topleft;
position = "{596, 1600}";
},
{
name = topright;
position = "{974, 1600}";
}
);
layerId = "5013C991-8699-46CB-BB1C-82E334DBD38B";
paths = (
{
closed = 1;
nodes = (
"576 -20 OFFCURVE",
"636 -14 OFFCURVE",
"686 0 CURVE",
"688 0 LINE",
"1328 0 LINE",
"1328 264 LINE",
"936 264 LINE",
"936 682 LINE",
"1308 682 LINE",
"1308 946 LINE",
"936 946 LINE",
"936 1336 LINE",
"1328 1336 LINE",
"1328 1600 LINE",
"688 1600 LINE",
"686 1600 LINE",
"636 1614 OFFCURVE",
"576 1620 OFFCURVE",
"506 1620 CURVE SMOOTH",
"212 1620 OFFCURVE",
"90 1506 OFFCURVE",
"84 1220 CURVE SMOOTH",
"78 958 OFFCURVE",
"78 644 OFFCURVE",
"84 382 CURVE SMOOTH",
"90 94 OFFCURVE",
"212 -20 OFFCURVE",
"506 -20 CURVE SMOOTH"
);
},
{
closed = 1;
nodes = (
"430 224 OFFCURVE",
"386 260 OFFCURVE",
"384 326 CURVE SMOOTH",
"372 598 OFFCURVE",
"372 1004 OFFCURVE",
"384 1276 CURVE SMOOTH",
"386 1340 OFFCURVE",
"430 1376 OFFCURVE",
"506 1376 CURVE SMOOTH",
"582 1376 OFFCURVE",
"624 1340 OFFCURVE",
"626 1276 CURVE SMOOTH",
"638 1004 OFFCURVE",
"638 598 OFFCURVE",
"626 326 CURVE SMOOTH",
"624 260 OFFCURVE",
"584 224 OFFCURVE",
"506 224 CURVE SMOOTH"
);
}
);
width = 1368;
},
{
anchors = (
{
name = bottom;
position = "{594, 0}";
},
{
name = center;
position = "{302, 800}";
},
{
name = ogonek;
position = "{662, 0}";
},
{
name = top;
position = "{594, 1600}";
},
{
name = topleft;
position = "{404, 1600}";
},
{
name = topright;
position = "{520, 1600}";
}
);
layerId = "3D06B89B-468F-44E0-A3D7-A5BC6911123E";
paths = (
{
closed = 1;
nodes = (
"370 -10 OFFCURVE",
"416 6 OFFCURVE",
"444 40 CURVE",
"444 0 LINE",
"762 0 LINE",
"762 40 LINE",
"484 40 LINE",
"484 780 LINE",
"742 780 LINE",
"742 820 LINE",
"484 820 LINE",
"484 1560 LINE",
"762 1560 LINE",
"762 1600 LINE",
"444 1600 LINE",
"444 1560 LINE",
"416 1594 OFFCURVE",
"370 1610 OFFCURVE",
"302 1610 CURVE SMOOTH",
"176 1610 OFFCURVE",
"128 1558 OFFCURVE",
"126 1428 CURVE SMOOTH",
"118 978 OFFCURVE",
"118 620 OFFCURVE",
"126 170 CURVE SMOOTH",
"128 42 OFFCURVE",
"176 -10 OFFCURVE",
"302 -10 CURVE SMOOTH"
);
},
{
closed = 1;
nodes = (
"202 30 OFFCURVE",
"168 64 OFFCURVE",
"166 170 CURVE SMOOTH",
"158 628 OFFCURVE",
"156 988 OFFCURVE",
"166 1428 CURVE SMOOTH",
"168 1536 OFFCURVE",
"202 1570 OFFCURVE",
"302 1570 CURVE SMOOTH",
"402 1570 OFFCURVE",
"436 1536 OFFCURVE",
"438 1428 CURVE SMOOTH",
"444 1070 OFFCURVE",
"446 502 OFFCURVE",
"438 170 CURVE SMOOTH",
"436 64 OFFCURVE",
"402 30 OFFCURVE",
"302 30 CURVE SMOOTH"
);
}
);
width = 822;
},
{
anchors = (
{
name = bottom;
position = "{694, 0}";
},
{
name = center;
position = "{354, 800}";
},
{
name = ogonek;
position = "{770, 0}";
},
{
name = top;
position = "{692, 1600}";
},
{
name = topleft;
position = "{452, 1600}";
},
{
name = topright;
position = "{634, 1600}";
}
);
layerId = "C9EB94EC-C68D-4931-B320-068DCAB9FADA";
paths = (
{
closed = 1;
nodes = (
"422 -13 OFFCURVE",
"471 1 OFFCURVE",
"505 30 CURVE",
"505 0 LINE",
"904 0 LINE",
"904 96 LINE",
"597 96 LINE",
"597 756 LINE",
"884 756 LINE",
"884 852 LINE",
"597 852 LINE",
"597 1504 LINE",
"904 1504 LINE",
"904 1600 LINE",
"505 1600 LINE",
"505 1570 LINE",
"471 1599 OFFCURVE",
"422 1613 OFFCURVE",
"353 1613 CURVE SMOOTH",
"185 1613 OFFCURVE",
"119 1545 OFFCURVE",
"116 1376 CURVE SMOOTH",
"108 973 OFFCURVE",
"108 626 OFFCURVE",
"116 223 CURVE SMOOTH",
"119 55 OFFCURVE",
"185 -13 OFFCURVE",
"353 -13 CURVE SMOOTH"
);
},
{
closed = 1;
nodes = (
"259 79 OFFCURVE",
"223 113 OFFCURVE",
"221 209 CURVE SMOOTH",
"212 621 OFFCURVE",
"210 992 OFFCURVE",
"221 1390 CURVE SMOOTH",
"223 1487 OFFCURVE",
"259 1522 OFFCURVE",
"353 1522 CURVE SMOOTH",
"447 1522 OFFCURVE",
"483 1487 OFFCURVE",
"485 1390 CURVE SMOOTH",
"493 1054 OFFCURVE",
"494 526 OFFCURVE",
"485 209 CURVE SMOOTH",
"483 113 OFFCURVE",
"448 79 OFFCURVE",
"353 79 CURVE SMOOTH"
);
}
);
width = 959;
},
{
anchors = (
{
name = bottom;
position = "{555, 0}";
},
{
name = center;
position = "{419, 800}";
},
{
name = ogonek;
position = "{668, 24}";
},
{
name = top;
position = "{548, 1600}";
},
{
name = topleft;
position = "{292, 1600}";
},
{
name = topright;
position = "{738, 1600}";
}
);
layerId = "6F82CFD7-79D5-473B-9D61-BE5DF154BBF2";
paths = (
{
closed = 1;
nodes = (
"489 -13 OFFCURVE",
"543 -2 OFFCURVE",
"585 20 CURVE",
"585 0 LINE",
"1072 0 LINE",
"1072 123 LINE",
"711 123 LINE",
"711 742 LINE",
"1052 742 LINE",
"1052 865 LINE",
"711 865 LINE",
"711 1477 LINE",
"1072 1477 LINE",
"1072 1600 LINE",
"586 1600 LINE",
"585 1581 LINE",
"543 1602 OFFCURVE",
"489 1613 OFFCURVE",
"418 1613 CURVE SMOOTH",
"216 1613 OFFCURVE",
"134 1536 OFFCURVE",
"131 1346 CURVE SMOOTH",
"125 941 OFFCURVE",
"125 673 OFFCURVE",
"131 253 CURVE SMOOTH",
"134 63 OFFCURVE",
"216 -13 OFFCURVE",
"418 -13 CURVE SMOOTH"
);
},
{
closed = 1;
nodes = (
"304 106 OFFCURVE",
"268 138 OFFCURVE",
"266 249 CURVE SMOOTH",
"256 691 OFFCURVE",
"256 928 OFFCURVE",
"266 1350 CURVE SMOOTH",
"268 1461 OFFCURVE",
"304 1495 OFFCURVE",
"418 1495 CURVE SMOOTH",
"533 1495 OFFCURVE",
"568 1461 OFFCURVE",
"570 1350 CURVE SMOOTH",
"573 1245 OFFCURVE",
"573 354 OFFCURVE",
"570 249 CURVE SMOOTH",
"568 138 OFFCURVE",
"533 106 OFFCURVE",
"418 106 CURVE SMOOTH"
);
}
);
width = 1157;
}
);
leftKerningGroup = O;
leftMetricsKey = O;
rightKerningGroup = E;
rightMetricsKey = E;
unicode = 0152;
},
{
glyphname = P;
layers = (
{
layerId = "3B122060-26E0-4730-9241-82784E6CB359";
paths = (
{
closed = 1;
nodes = (
"220 0 LINE",
"220 690 LINE",
"362 690 LINE SMOOTH",
"508 690 OFFCURVE",
"570 744 OFFCURVE",
"576 876 CURVE SMOOTH",
"584 1044 OFFCURVE",
"582 1198 OFFCURVE",
"576 1414 CURVE SMOOTH",
"572 1546 OFFCURVE",
"510 1600 OFFCURVE",
"364 1600 CURVE SMOOTH",
"140 1600 LINE",
"140 0 LINE"
);
},
{
closed = 1;
nodes = (
"220 1524 LINE",
"364 1524 LINE SMOOTH",
"464 1524 OFFCURVE",
"494 1500 OFFCURVE",
"496 1414 CURVE SMOOTH",
"504 1178 OFFCURVE",
"504 1062 OFFCURVE",
"496 876 CURVE SMOOTH",
"492 790 OFFCURVE",
"466 766 OFFCURVE",
"362 766 CURVE SMOOTH",
"220 766 LINE"
);
}
);
width = 662;
},
{
layerId = "1DFA7D5B-2E97-4B89-827F-FB43F8066DC1";
paths = (
{
closed = 1;
nodes = (
"380 0 LINE",
"380 508 LINE",
"506 508 LINE SMOOTH",
"804 508 OFFCURVE",
"926 620 OFFCURVE",
"936 898 CURVE SMOOTH",
"940 1010 OFFCURVE",
"940 1098 OFFCURVE",
"936 1210 CURVE SMOOTH",
"926 1488 OFFCURVE",
"804 1600 OFFCURVE",
"506 1600 CURVE SMOOTH",
"80 1600 LINE",
"80 0 LINE"
);
},
{
closed = 1;
nodes = (
"380 1336 LINE",
"506 1336 LINE SMOOTH",
"590 1336 OFFCURVE",
"632 1296 OFFCURVE",
"636 1226 CURVE SMOOTH",
"642 1128 OFFCURVE",
"642 980 OFFCURVE",
"636 882 CURVE SMOOTH",
"632 812 OFFCURVE",
"590 772 OFFCURVE",
"506 772 CURVE SMOOTH",
"380 772 LINE"
);
}
);
width = 980;
},
{
layerId = "5013C991-8699-46CB-BB1C-82E334DBD38B";
paths = (
{
closed = 1;
nodes = (
"380 0 LINE",
"380 508 LINE",
"466 508 LINE SMOOTH",
"764 508 OFFCURVE",
"886 620 OFFCURVE",
"896 898 CURVE SMOOTH",
"900 1010 OFFCURVE",
"900 1098 OFFCURVE",
"896 1210 CURVE SMOOTH",
"886 1488 OFFCURVE",
"764 1600 OFFCURVE",
"466 1600 CURVE SMOOTH",
"80 1600 LINE",
"80 0 LINE"
);
},
{
closed = 1;
nodes = (
"380 1336 LINE",
"466 1336 LINE SMOOTH",
"550 1336 OFFCURVE",
"592 1296 OFFCURVE",
"596 1226 CURVE SMOOTH",
"602 1128 OFFCURVE",
"602 980 OFFCURVE",
"596 882 CURVE SMOOTH",
"592 812 OFFCURVE",
"550 772 OFFCURVE",
"466 772 CURVE SMOOTH",
"380 772 LINE"
);
}
);
width = 938;
},
{
layerId = "3D06B89B-468F-44E0-A3D7-A5BC6911123E";
paths = (
{
closed = 1;
nodes = (
"160 0 LINE",
"160 690 LINE",
"282 690 LINE SMOOTH",
"400 690 OFFCURVE",
"450 744 OFFCURVE",
"456 876 CURVE SMOOTH",
"464 1044 OFFCURVE",
"464 1198 OFFCURVE",
"456 1414 CURVE SMOOTH",
"450 1546 OFFCURVE",
"400 1600 OFFCURVE",
"284 1600 CURVE SMOOTH",
"120 1600 LINE",
"120 0 LINE"
);
},
{
closed = 1;
nodes = (
"160 1560 LINE",
"284 1560 LINE SMOOTH",
"376 1560 OFFCURVE",
"412 1518 OFFCURVE",
"416 1414 CURVE SMOOTH",
"422 1222 OFFCURVE",
"422 1068 OFFCURVE",
"416 876 CURVE SMOOTH",
"412 772 OFFCURVE",
"376 730 OFFCURVE",
"282 730 CURVE SMOOTH",
"160 730 LINE"
);
}
);
width = 522;
},
{
layerId = "C9EB94EC-C68D-4931-B320-068DCAB9FADA";
paths = (
{
closed = 1;
nodes = (
"215 0 LINE",
"215 645 LINE",
"328 645 LINE SMOOTH",
"491 645 OFFCURVE",
"559 713 OFFCURVE",
"566 882 CURVE SMOOTH",
"573 1036 OFFCURVE",
"573 1173 OFFCURVE",
"566 1363 CURVE SMOOTH",
"559 1532 OFFCURVE",
"491 1600 OFFCURVE",
"330 1600 CURVE SMOOTH",
"110 1600 LINE",
"110 0 LINE"
);
},
{
closed = 1;
nodes = (
"215 1504 LINE",
"330 1504 LINE SMOOTH",
"420 1504 OFFCURVE",
"457 1463 OFFCURVE",
"461 1367 CURVE SMOOTH",
"467 1199 OFFCURVE",
"467 1046 OFFCURVE",
"461 878 CURVE SMOOTH",
"457 782 OFFCURVE",
"420 741 OFFCURVE",
"328 741 CURVE SMOOTH",
"215 741 LINE"
);
}
);
width = 626;
},
{
layerId = "6F82CFD7-79D5-473B-9D61-BE5DF154BBF2";
paths = (
{
closed = 1;
nodes = (
"260 0 LINE",
"260 645 LINE",
"398 645 LINE SMOOTH",
"582 645 OFFCURVE",
"659 713 OFFCURVE",
"666 882 CURVE SMOOTH",
"673 1036 OFFCURVE",
"672 1173 OFFCURVE",
"666 1363 CURVE SMOOTH",
"661 1532 OFFCURVE",
"584 1600 OFFCURVE",
"400 1600 CURVE SMOOTH",
"125 1600 LINE",
"125 0 LINE"
);
},
{
closed = 1;
nodes = (
"260 1477 LINE",
"400 1477 LINE SMOOTH",
"496 1477 OFFCURVE",
"529 1449 OFFCURVE",
"531 1367 CURVE SMOOTH",
"539 1166 OFFCURVE",
"539 1042 OFFCURVE",
"531 878 CURVE SMOOTH",
"527 796 OFFCURVE",
"497 768 OFFCURVE",
"398 768 CURVE SMOOTH",
"260 768 LINE"
);
}
);
width = 742;
}
);
leftKerningGroup = H;
rightKerningGroup = P;
unicode = 0050;
},
{
glyphname = Thorn;
layers = (
{
layerId = "3B122060-26E0-4730-9241-82784E6CB359";
paths = (
{
closed = 1;
nodes = (
"200 0 LINE",
"200 370 LINE",
"322 370 LINE SMOOTH",
"468 370 OFFCURVE",
"530 424 OFFCURVE",
"536 556 CURVE SMOOTH",
"544 724 OFFCURVE",
"542 878 OFFCURVE",
"536 1094 CURVE SMOOTH",
"532 1226 OFFCURVE",
"470 1280 OFFCURVE",
"324 1280 CURVE SMOOTH",
"200 1280 LINE",
"200 1600 LINE",
"120 1600 LINE",
"120 0 LINE"
);
},
{
closed = 1;
nodes = (
"200 1204 LINE",
"324 1204 LINE SMOOTH",
"424 1204 OFFCURVE",
"452 1178 OFFCURVE",
"456 1094 CURVE SMOOTH",
"466 882 OFFCURVE",
"462 768 OFFCURVE",
"456 556 CURVE SMOOTH",
"454 472 OFFCURVE",
"424 446 OFFCURVE",
"322 446 CURVE SMOOTH",
"200 446 LINE"
);
}
);
width = 602;
},
{
layerId = "1DFA7D5B-2E97-4B89-827F-FB43F8066DC1";
paths = (
{
closed = 1;
nodes = (
"380 0 LINE",
"380 268 LINE",
"506 268 LINE SMOOTH",
"804 268 OFFCURVE",
"926 380 OFFCURVE",
"936 658 CURVE SMOOTH",
"940 770 OFFCURVE",
"940 858 OFFCURVE",
"936 970 CURVE SMOOTH",
"926 1248 OFFCURVE",
"804 1360 OFFCURVE",
"506 1360 CURVE SMOOTH",
"380 1360 LINE",
"380 1600 LINE",
"80 1600 LINE",
"80 0 LINE"
);
},
{
closed = 1;
nodes = (
"380 1096 LINE",
"506 1096 LINE SMOOTH",
"590 1096 OFFCURVE",
"632 1056 OFFCURVE",
"636 986 CURVE SMOOTH",
"642 888 OFFCURVE",
"642 740 OFFCURVE",
"636 642 CURVE SMOOTH",
"632 572 OFFCURVE",
"590 532 OFFCURVE",
"506 532 CURVE SMOOTH",
"380 532 LINE"
);
}
);
width = 980;
},
{
layerId = "5013C991-8699-46CB-BB1C-82E334DBD38B";
paths = (
{
closed = 1;
nodes = (
"380 0 LINE",
"380 268 LINE",
"466 268 LINE SMOOTH",
"764 268 OFFCURVE",
"886 380 OFFCURVE",
"896 658 CURVE SMOOTH",
"900 770 OFFCURVE",
"900 858 OFFCURVE",
"896 970 CURVE SMOOTH",
"886 1248 OFFCURVE",
"764 1360 OFFCURVE",
"466 1360 CURVE SMOOTH",
"380 1360 LINE",
"380 1600 LINE",
"80 1600 LINE",
"80 0 LINE"
);
},
{
closed = 1;
nodes = (
"380 1096 LINE",
"466 1096 LINE SMOOTH",
"550 1096 OFFCURVE",
"592 1056 OFFCURVE",
"596 986 CURVE SMOOTH",
"602 888 OFFCURVE",
"602 740 OFFCURVE",
"596 642 CURVE SMOOTH",
"592 572 OFFCURVE",
"550 532 OFFCURVE",
"466 532 CURVE SMOOTH",
"380 532 LINE"
);
}
);
width = 938;
},
{
layerId = "3D06B89B-468F-44E0-A3D7-A5BC6911123E";
paths = (
{
closed = 1;
nodes = (
"160 0 LINE",
"160 370 LINE",
"282 370 LINE SMOOTH",
"400 370 OFFCURVE",
"450 424 OFFCURVE",
"456 556 CURVE SMOOTH",
"464 724 OFFCURVE",
"462 878 OFFCURVE",
"456 1094 CURVE SMOOTH",
"452 1226 OFFCURVE",
"400 1280 OFFCURVE",
"284 1280 CURVE SMOOTH",
"160 1280 LINE",
"160 1600 LINE",
"120 1600 LINE",
"120 0 LINE"
);
},
{
closed = 1;
nodes = (
"160 1240 LINE",
"284 1240 LINE SMOOTH",
"376 1240 OFFCURVE",
"412 1198 OFFCURVE",
"416 1094 CURVE SMOOTH",
"424 902 OFFCURVE",
"424 748 OFFCURVE",
"416 556 CURVE SMOOTH",
"412 452 OFFCURVE",
"376 410 OFFCURVE",
"282 410 CURVE SMOOTH",
"160 410 LINE"
);
}
);
width = 522;
},
{
layerId = "C9EB94EC-C68D-4931-B320-068DCAB9FADA";
paths = (
{
closed = 1;
nodes = (
"215 0 LINE",
"215 345 LINE",
"328 345 LINE SMOOTH",
"491 345 OFFCURVE",
"559 413 OFFCURVE",
"566 582 CURVE SMOOTH",
"573 736 OFFCURVE",
"572 873 OFFCURVE",
"566 1063 CURVE SMOOTH",
"561 1232 OFFCURVE",
"491 1300 OFFCURVE",
"330 1300 CURVE SMOOTH",
"215 1300 LINE",
"215 1600 LINE",
"110 1600 LINE",
"110 0 LINE"
);
},
{
closed = 1;
nodes = (
"215 1204 LINE",
"330 1204 LINE SMOOTH",
"420 1204 OFFCURVE",
"457 1163 OFFCURVE",
"461 1067 CURVE SMOOTH",
"469 899 OFFCURVE",
"469 746 OFFCURVE",
"461 578 CURVE SMOOTH",
"457 482 OFFCURVE",
"420 441 OFFCURVE",
"328 441 CURVE SMOOTH",
"215 441 LINE"
);
}
);
width = 626;
},
{
layerId = "6F82CFD7-79D5-473B-9D61-BE5DF154BBF2";
paths = (
{
closed = 1;
nodes = (
"245 0 LINE",
"245 345 LINE",
"368 345 LINE SMOOTH",
"552 345 OFFCURVE",
"629 413 OFFCURVE",
"636 582 CURVE SMOOTH",
"643 736 OFFCURVE",
"642 873 OFFCURVE",
"636 1063 CURVE SMOOTH",
"631 1232 OFFCURVE",
"554 1300 OFFCURVE",
"370 1300 CURVE SMOOTH",
"245 1300 LINE",
"245 1600 LINE",
"110 1600 LINE",
"110 0 LINE"
);
},
{
closed = 1;
nodes = (
"245 1177 LINE",
"370 1177 LINE SMOOTH",
"466 1177 OFFCURVE",
"497 1148 OFFCURVE",
"501 1067 CURVE SMOOTH",
"510 884 OFFCURVE",
"507 761 OFFCURVE",
"501 578 CURVE SMOOTH",
"499 497 OFFCURVE",
"466 468 OFFCURVE",
"368 468 CURVE SMOOTH",
"245 468 LINE"
);
}
);
width = 697;
}
);
leftKerningGroup = H;
rightKerningGroup = P;
unicode = 00DE;
},
{
glyphname = Q;
layers = (
{
background = {
paths = (
{
closed = 1;
nodes = (
"408 -10 OFFCURVE",
"458 42 OFFCURVE",
"458 170 CURVE SMOOTH",
"462 620 OFFCURVE",
"462 978 OFFCURVE",
"458 1428 CURVE SMOOTH",
"458 1558 OFFCURVE",
"408 1610 OFFCURVE",
"282 1610 CURVE SMOOTH",
"156 1610 OFFCURVE",
"106 1558 OFFCURVE",
"106 1428 CURVE SMOOTH",
"102 978 OFFCURVE",
"102 620 OFFCURVE",
"106 170 CURVE SMOOTH",
"106 42 OFFCURVE",
"156 -10 OFFCURVE",
"282 -10 CURVE SMOOTH"
);
},
{
closed = 1;
nodes = (
"188 30 OFFCURVE",
"148 70 OFFCURVE",
"146 170 CURVE SMOOTH",
"140 620 OFFCURVE",
"140 978 OFFCURVE",
"146 1428 CURVE SMOOTH",
"148 1530 OFFCURVE",
"188 1570 OFFCURVE",
"282 1570 CURVE SMOOTH",
"376 1570 OFFCURVE",
"416 1530 OFFCURVE",
"418 1428 CURVE SMOOTH",
"424 978 OFFCURVE",
"424 620 OFFCURVE",
"418 170 CURVE SMOOTH",
"416 70 OFFCURVE",
"376 30 OFFCURVE",
"282 30 CURVE SMOOTH"
);
}
);
};
layerId = "3B122060-26E0-4730-9241-82784E6CB359";
paths = (
{
closed = 1;
nodes = (
"508 -102 LINE",
"458 -106 OFFCURVE",
"444 -86 OFFCURVE",
"442 -6 CURVE",
"564 8 OFFCURVE",
"616 72 OFFCURVE",
"618 210 CURVE SMOOTH",
"624 670 OFFCURVE",
"624 948 OFFCURVE",
"618 1388 CURVE SMOOTH",
"616 1546 OFFCURVE",
"548 1610 OFFCURVE",
"382 1610 CURVE SMOOTH",
"216 1610 OFFCURVE",
"148 1546 OFFCURVE",
"146 1388 CURVE SMOOTH",
"140 948 OFFCURVE",
"140 670 OFFCURVE",
"146 210 CURVE SMOOTH",
"148 58 OFFCURVE",
"210 -4 OFFCURVE",
"362 -10 CURVE",
"364 -132 OFFCURVE",
"408 -180 OFFCURVE",
"508 -174 CURVE"
);
},
{
closed = 1;
nodes = (
"262 66 OFFCURVE",
"228 96 OFFCURVE",
"226 210 CURVE SMOOTH",
"218 702 OFFCURVE",
"218 922 OFFCURVE",
"226 1388 CURVE SMOOTH",
"228 1502 OFFCURVE",
"262 1534 OFFCURVE",
"382 1534 CURVE SMOOTH",
"502 1534 OFFCURVE",
"536 1502 OFFCURVE",
"538 1388 CURVE SMOOTH",
"546 908 OFFCURVE",
"546 688 OFFCURVE",
"538 210 CURVE SMOOTH",
"536 96 OFFCURVE",
"502 66 OFFCURVE",
"382 66 CURVE SMOOTH"
);
}
);
width = 762;
},
{
background = {
paths = (
{
closed = 1;
nodes = (
"780 -20 OFFCURVE",
"900 94 OFFCURVE",
"906 382 CURVE SMOOTH",
"912 680 OFFCURVE",
"912 918 OFFCURVE",
"906 1220 CURVE SMOOTH",
"900 1506 OFFCURVE",
"780 1620 OFFCURVE",
"486 1620 CURVE SMOOTH",
"192 1620 OFFCURVE",
"70 1506 OFFCURVE",
"64 1220 CURVE SMOOTH",
"58 920 OFFCURVE",
"58 682 OFFCURVE",
"64 382 CURVE SMOOTH",
"70 94 OFFCURVE",
"192 -20 OFFCURVE",
"486 -20 CURVE SMOOTH"
);
},
{
closed = 1;
nodes = (
"410 224 OFFCURVE",
"366 260 OFFCURVE",
"364 326 CURVE SMOOTH",
"352 598 OFFCURVE",
"352 1004 OFFCURVE",
"364 1276 CURVE SMOOTH",
"366 1340 OFFCURVE",
"410 1376 OFFCURVE",
"486 1376 CURVE SMOOTH",
"564 1376 OFFCURVE",
"604 1340 OFFCURVE",
"606 1276 CURVE SMOOTH",
"612 1004 OFFCURVE",
"612 598 OFFCURVE",
"606 326 CURVE SMOOTH",
"604 260 OFFCURVE",
"564 224 OFFCURVE",
"486 224 CURVE SMOOTH"
);
}
);
};
layerId = "1DFA7D5B-2E97-4B89-827F-FB43F8066DC1";
paths = (
{
closed = 1;
nodes = (
"904 -88 LINE",
"814 -100 OFFCURVE",
"768 -62 OFFCURVE",
"774 20 CURVE",
"902 76 OFFCURVE",
"960 190 OFFCURVE",
"966 382 CURVE SMOOTH",
"978 680 OFFCURVE",
"978 918 OFFCURVE",
"966 1220 CURVE SMOOTH",
"956 1506 OFFCURVE",
"830 1620 OFFCURVE",
"526 1620 CURVE SMOOTH",
"216 1620 OFFCURVE",
"90 1506 OFFCURVE",
"84 1220 CURVE SMOOTH",
"78 920 OFFCURVE",
"78 682 OFFCURVE",
"84 382 CURVE SMOOTH",
"90 106 OFFCURVE",
"206 -10 OFFCURVE",
"488 -20 CURVE",
"518 -258 OFFCURVE",
"642 -348 OFFCURVE",
"904 -328 CURVE"
);
},
{
closed = 1;
nodes = (
"428 224 OFFCURVE",
"386 264 OFFCURVE",
"384 366 CURVE SMOOTH",
"370 658 OFFCURVE",
"370 944 OFFCURVE",
"384 1236 CURVE SMOOTH",
"386 1336 OFFCURVE",
"428 1376 OFFCURVE",
"526 1376 CURVE SMOOTH",
"624 1376 OFFCURVE",
"664 1336 OFFCURVE",
"666 1236 CURVE SMOOTH",
"680 944 OFFCURVE",
"680 658 OFFCURVE",
"666 366 CURVE SMOOTH",
"664 264 OFFCURVE",
"624 224 OFFCURVE",
"526 224 CURVE SMOOTH"
);
}
);
width = 1054;
},
{
background = {
paths = (
{
closed = 1;
nodes = (
"780 -20 OFFCURVE",
"900 94 OFFCURVE",
"906 382 CURVE SMOOTH",
"912 680 OFFCURVE",
"912 918 OFFCURVE",
"906 1220 CURVE SMOOTH",
"900 1506 OFFCURVE",
"780 1620 OFFCURVE",
"486 1620 CURVE SMOOTH",
"192 1620 OFFCURVE",
"70 1506 OFFCURVE",
"64 1220 CURVE SMOOTH",
"58 920 OFFCURVE",
"58 682 OFFCURVE",
"64 382 CURVE SMOOTH",
"70 94 OFFCURVE",
"192 -20 OFFCURVE",
"486 -20 CURVE SMOOTH"
);
},
{
closed = 1;
nodes = (
"410 224 OFFCURVE",
"366 260 OFFCURVE",
"364 326 CURVE SMOOTH",
"352 598 OFFCURVE",
"352 1004 OFFCURVE",
"364 1276 CURVE SMOOTH",
"366 1340 OFFCURVE",
"410 1376 OFFCURVE",
"486 1376 CURVE SMOOTH",
"564 1376 OFFCURVE",
"604 1340 OFFCURVE",
"606 1276 CURVE SMOOTH",
"612 1004 OFFCURVE",
"612 598 OFFCURVE",
"606 326 CURVE SMOOTH",
"604 260 OFFCURVE",
"564 224 OFFCURVE",
"486 224 CURVE SMOOTH"
);
}
);
};
layerId = "5013C991-8699-46CB-BB1C-82E334DBD38B";
paths = (
{
closed = 1;
nodes = (
"904 -8 LINE",
"840 -16 OFFCURVE",
"798 0 OFFCURVE",
"782 40 CURVE",
"876 102 OFFCURVE",
"920 212 OFFCURVE",
"926 382 CURVE SMOOTH",
"936 644 OFFCURVE",
"936 954 OFFCURVE",
"926 1220 CURVE SMOOTH",
"916 1506 OFFCURVE",
"800 1620 OFFCURVE",
"506 1620 CURVE SMOOTH",
"212 1620 OFFCURVE",
"90 1506 OFFCURVE",
"84 1220 CURVE SMOOTH",
"78 958 OFFCURVE",
"78 644 OFFCURVE",
"84 382 CURVE SMOOTH",
"90 94 OFFCURVE",
"212 -20 OFFCURVE",
"504 -20 CURVE",
"550 -198 OFFCURVE",
"674 -266 OFFCURVE",
"904 -248 CURVE"
);
},
{
closed = 1;
nodes = (
"430 224 OFFCURVE",
"386 260 OFFCURVE",
"384 326 CURVE SMOOTH",
"372 598 OFFCURVE",
"372 1004 OFFCURVE",
"384 1276 CURVE SMOOTH",
"386 1340 OFFCURVE",
"430 1376 OFFCURVE",
"506 1376 CURVE SMOOTH",
"584 1376 OFFCURVE",
"624 1340 OFFCURVE",
"626 1276 CURVE SMOOTH",
"638 1004 OFFCURVE",
"638 598 OFFCURVE",
"626 326 CURVE SMOOTH",
"624 260 OFFCURVE",
"584 224 OFFCURVE",
"506 224 CURVE SMOOTH"
);
}
);
width = 1014;
},
{
background = {
paths = (
{
closed = 1;
nodes = (
"408 -10 OFFCURVE",
"458 42 OFFCURVE",
"458 170 CURVE SMOOTH",
"462 620 OFFCURVE",
"462 978 OFFCURVE",
"458 1428 CURVE SMOOTH",
"458 1558 OFFCURVE",
"408 1610 OFFCURVE",
"282 1610 CURVE SMOOTH",
"156 1610 OFFCURVE",
"106 1558 OFFCURVE",
"106 1428 CURVE SMOOTH",
"102 978 OFFCURVE",
"102 620 OFFCURVE",
"106 170 CURVE SMOOTH",
"106 42 OFFCURVE",
"156 -10 OFFCURVE",
"282 -10 CURVE SMOOTH"
);
},
{
closed = 1;
nodes = (
"188 30 OFFCURVE",
"148 70 OFFCURVE",
"146 170 CURVE SMOOTH",
"140 620 OFFCURVE",
"140 978 OFFCURVE",
"146 1428 CURVE SMOOTH",
"148 1530 OFFCURVE",
"188 1570 OFFCURVE",
"282 1570 CURVE SMOOTH",
"376 1570 OFFCURVE",
"416 1530 OFFCURVE",
"418 1428 CURVE SMOOTH",
"424 978 OFFCURVE",
"424 620 OFFCURVE",
"418 170 CURVE SMOOTH",
"416 70 OFFCURVE",
"376 30 OFFCURVE",
"282 30 CURVE SMOOTH"
);
}
);
};
layerId = "3D06B89B-468F-44E0-A3D7-A5BC6911123E";
paths = (
{
closed = 1;
nodes = (
"448 -118 LINE",
"380 -124 OFFCURVE",
"348 -92 OFFCURVE",
"342 -8 CURVE",
"438 4 OFFCURVE",
"478 56 OFFCURVE",
"478 170 CURVE SMOOTH",
"482 620 OFFCURVE",
"482 978 OFFCURVE",
"478 1428 CURVE SMOOTH",
"478 1558 OFFCURVE",
"428 1610 OFFCURVE",
"302 1610 CURVE SMOOTH",
"176 1610 OFFCURVE",
"128 1558 OFFCURVE",
"126 1428 CURVE SMOOTH",
"118 978 OFFCURVE",
"118 620 OFFCURVE",
"126 170 CURVE SMOOTH",
"128 42 OFFCURVE",
"176 -10 OFFCURVE",
"302 -10 CURVE",
"310 -118 OFFCURVE",
"352 -160 OFFCURVE",
"448 -154 CURVE"
);
},
{
closed = 1;
nodes = (
"202 30 OFFCURVE",
"168 64 OFFCURVE",
"166 170 CURVE SMOOTH",
"158 628 OFFCURVE",
"156 988 OFFCURVE",
"166 1428 CURVE SMOOTH",
"168 1536 OFFCURVE",
"202 1570 OFFCURVE",
"302 1570 CURVE SMOOTH",
"402 1570 OFFCURVE",
"436 1536 OFFCURVE",
"438 1428 CURVE SMOOTH",
"444 988 OFFCURVE",
"448 628 OFFCURVE",
"438 170 CURVE SMOOTH",
"436 64 OFFCURVE",
"402 30 OFFCURVE",
"302 30 CURVE SMOOTH"
);
}
);
width = 600;
},
{
layerId = "C9EB94EC-C68D-4931-B320-068DCAB9FADA";
paths = (
{
closed = 1;
nodes = (
"562 -91 LINE",
"495 -97 OFFCURVE",
"461 -69 OFFCURVE",
"452 4 CURVE",
"548 29 OFFCURVE",
"589 95 OFFCURVE",
"590 223 CURVE SMOOTH",
"596 626 OFFCURVE",
"596 972 OFFCURVE",
"590 1376 CURVE SMOOTH",
"588 1545 OFFCURVE",
"521 1613 OFFCURVE",
"353 1613 CURVE SMOOTH",
"185 1613 OFFCURVE",
"119 1545 OFFCURVE",
"116 1376 CURVE SMOOTH",
"108 973 OFFCURVE",
"108 626 OFFCURVE",
"116 223 CURVE SMOOTH",
"119 55 OFFCURVE",
"185 -13 OFFCURVE",
"353 -13 CURVE",
"370 -138 OFFCURVE",
"433 -187 OFFCURVE",
"562 -178 CURVE"
);
},
{
closed = 1;
nodes = (
"259 79 OFFCURVE",
"223 113 OFFCURVE",
"221 209 CURVE SMOOTH",
"212 621 OFFCURVE",
"210 992 OFFCURVE",
"221 1390 CURVE SMOOTH",
"223 1487 OFFCURVE",
"259 1522 OFFCURVE",
"353 1522 CURVE SMOOTH",
"448 1522 OFFCURVE",
"483 1487 OFFCURVE",
"485 1390 CURVE SMOOTH",
"493 992 OFFCURVE",
"496 621 OFFCURVE",
"485 209 CURVE SMOOTH",
"483 113 OFFCURVE",
"448 79 OFFCURVE",
"353 79 CURVE SMOOTH"
);
}
);
width = 704;
},
{
layerId = "6F82CFD7-79D5-473B-9D61-BE5DF154BBF2";
paths = (
{
closed = 1;
nodes = (
"607 -99 LINE",
"547 -105 OFFCURVE",
"525 -80 OFFCURVE",
"525 1 CURVE",
"649 25 OFFCURVE",
"702 102 OFFCURVE",
"705 253 CURVE SMOOTH",
"713 673 OFFCURVE",
"713 941 OFFCURVE",
"705 1346 CURVE SMOOTH",
"701 1536 OFFCURVE",
"619 1613 OFFCURVE",
"418 1613 CURVE SMOOTH",
"216 1613 OFFCURVE",
"134 1536 OFFCURVE",
"131 1346 CURVE SMOOTH",
"125 941 OFFCURVE",
"125 673 OFFCURVE",
"131 253 CURVE SMOOTH",
"134 70 OFFCURVE",
"209 -6 OFFCURVE",
"394 -13 CURVE",
"403 -164 OFFCURVE",
"467 -222 OFFCURVE",
"607 -213 CURVE"
);
},
{
closed = 1;
nodes = (
"304 106 OFFCURVE",
"268 138 OFFCURVE",
"266 249 CURVE SMOOTH",
"256 691 OFFCURVE",
"256 928 OFFCURVE",
"266 1350 CURVE SMOOTH",
"268 1461 OFFCURVE",
"304 1495 OFFCURVE",
"418 1495 CURVE SMOOTH",
"533 1495 OFFCURVE",
"568 1461 OFFCURVE",
"570 1350 CURVE SMOOTH",
"580 917 OFFCURVE",
"580 681 OFFCURVE",
"570 249 CURVE SMOOTH",
"568 138 OFFCURVE",
"533 106 OFFCURVE",
"418 106 CURVE SMOOTH"
);
}
);
width = 835;
}
);
leftKerningGroup = O;
rightKerningGroup = O;
unicode = 0051;
},
{
glyphname = R;
layers = (
{
anchors = (
{
name = bottom;
position = "{376, 0}";
},
{
name = top;
position = "{364, 1600}";
}
);
background = {
paths = (
{
closed = 1;
nodes = (
"318 756 LINE SMOOTH",
"438 756 OFFCURVE",
"488 800 OFFCURVE",
"492 924 CURVE SMOOTH",
"498 1066 OFFCURVE",
"498 1206 OFFCURVE",
"492 1414 CURVE SMOOTH",
"488 1546 OFFCURVE",
"438 1600 OFFCURVE",
"320 1600 CURVE SMOOTH",
"182 1600 LINE",
"182 1560 LINE",
"320 1560 LINE SMOOTH",
"410 1560 OFFCURVE",
"448 1518 OFFCURVE",
"452 1414 CURVE SMOOTH",
"458 1238 OFFCURVE",
"458 1096 OFFCURVE",
"452 920 CURVE SMOOTH",
"448 816 OFFCURVE",
"410 774 OFFCURVE",
"318 774 CURVE SMOOTH",
"190 774 LINE",
"190 756 LINE"
);
},
{
closed = 1;
nodes = (
"498 0 LINE",
"500 138 OFFCURVE",
"498 306 OFFCURVE",
"496 588 CURVE SMOOTH",
"494 710 OFFCURVE",
"444 754 OFFCURVE",
"324 754 CURVE SMOOTH",
"182 754 LINE",
"182 734 LINE",
"324 734 LINE SMOOTH",
"416 734 OFFCURVE",
"454 692 OFFCURVE",
"456 588 CURVE SMOOTH",
"460 400 OFFCURVE",
"460 232 OFFCURVE",
"458 0 CURVE"
);
},
{
closed = 1;
nodes = (
"200 0 LINE",
"200 1600 LINE",
"160 1600 LINE",
"160 0 LINE"
);
},
{
closed = 1;
nodes = (
"410 740 LINE",
"410 774 LINE",
"190 774 LINE",
"190 740 LINE"
);
}
);
};
layerId = "3B122060-26E0-4730-9241-82784E6CB359";
paths = (
{
closed = 1;
nodes = (
"220 0 LINE",
"220 652 LINE",
"402 652 LINE",
"546 0 LINE",
"630 0 LINE",
"482 664 LINE",
"556 686 OFFCURVE",
"590 740 OFFCURVE",
"594 836 CURVE SMOOTH",
"602 1016 OFFCURVE",
"602 1182 OFFCURVE",
"594 1414 CURVE SMOOTH",
"590 1546 OFFCURVE",
"528 1600 OFFCURVE",
"382 1600 CURVE SMOOTH",
"140 1600 LINE",
"140 0 LINE"
);
},
{
closed = 1;
nodes = (
"220 1524 LINE",
"382 1524 LINE SMOOTH",
"482 1524 OFFCURVE",
"510 1500 OFFCURVE",
"514 1414 CURVE SMOOTH",
"524 1186 OFFCURVE",
"520 1064 OFFCURVE",
"514 836 CURVE SMOOTH",
"512 752 OFFCURVE",
"482 728 OFFCURVE",
"380 728 CURVE SMOOTH",
"220 728 LINE"
);
}
);
width = 710;
},
{
anchors = (
{
name = bottom;
position = "{500, 0}";
},
{
name = top;
position = "{472, 1600}";
}
);
background = {
paths = (
{
closed = 1;
nodes = (
"466 736 LINE SMOOTH",
"766 740 OFFCURVE",
"888 824 OFFCURVE",
"896 1044 CURVE SMOOTH",
"898 1102 OFFCURVE",
"898 1150 OFFCURVE",
"896 1210 CURVE SMOOTH",
"886 1488 OFFCURVE",
"764 1600 OFFCURVE",
"466 1600 CURVE SMOOTH",
"314 1600 LINE",
"314 1336 LINE",
"466 1336 LINE SMOOTH",
"550 1336 OFFCURVE",
"596 1296 OFFCURVE",
"596 1226 CURVE SMOOTH",
"596 1162 OFFCURVE",
"596 1074 OFFCURVE",
"596 1010 CURVE SMOOTH",
"596 926 OFFCURVE",
"550 880 OFFCURVE",
"466 880 CURVE SMOOTH",
"306 880 LINE",
"306 734 LINE"
);
},
{
closed = 1;
nodes = (
"902 0 LINE",
"904 138 OFFCURVE",
"900 290 OFFCURVE",
"894 428 CURVE SMOOTH",
"884 654 OFFCURVE",
"766 734 OFFCURVE",
"474 734 CURVE SMOOTH",
"306 734 LINE",
"306 614 LINE",
"462 614 LINE SMOOTH",
"544 614 OFFCURVE",
"590 562 OFFCURVE",
"594 470 CURVE SMOOTH",
"600 322 OFFCURVE",
"604 148 OFFCURVE",
"602 0 CURVE"
);
},
{
closed = 1;
nodes = (
"380 0 LINE",
"380 1600 LINE",
"80 1600 LINE",
"80 0 LINE"
);
},
{
closed = 1;
nodes = (
"678 694 LINE",
"678 768 LINE",
"306 768 LINE",
"306 694 LINE"
);
}
);
};
layerId = "1DFA7D5B-2E97-4B89-827F-FB43F8066DC1";
paths = (
{
closed = 1;
nodes = (
"380 0 LINE",
"380 540 LINE",
"468 540 LINE",
"620 0 LINE",
"938 0 LINE",
"750 590 LINE",
"860 648 OFFCURVE",
"910 756 OFFCURVE",
"916 930 CURVE SMOOTH",
"920 1042 OFFCURVE",
"920 1098 OFFCURVE",
"916 1210 CURVE SMOOTH",
"906 1488 OFFCURVE",
"784 1600 OFFCURVE",
"486 1600 CURVE SMOOTH",
"80 1600 LINE",
"80 0 LINE"
);
},
{
closed = 1;
nodes = (
"380 1336 LINE",
"486 1336 LINE SMOOTH",
"570 1336 OFFCURVE",
"612 1296 OFFCURVE",
"616 1226 CURVE SMOOTH",
"622 1128 OFFCURVE",
"622 1012 OFFCURVE",
"616 914 CURVE SMOOTH",
"612 844 OFFCURVE",
"570 804 OFFCURVE",
"486 804 CURVE SMOOTH",
"380 804 LINE"
);
}
);
width = 978;
},
{
anchors = (
{
name = bottom;
position = "{500, 0}";
},
{
name = top;
position = "{472, 1600}";
}
);
background = {
paths = (
{
closed = 1;
nodes = (
"466 736 LINE SMOOTH",
"766 740 OFFCURVE",
"888 824 OFFCURVE",
"896 1044 CURVE SMOOTH",
"898 1102 OFFCURVE",
"898 1150 OFFCURVE",
"896 1210 CURVE SMOOTH",
"886 1488 OFFCURVE",
"764 1600 OFFCURVE",
"466 1600 CURVE SMOOTH",
"314 1600 LINE",
"314 1336 LINE",
"466 1336 LINE SMOOTH",
"550 1336 OFFCURVE",
"596 1296 OFFCURVE",
"596 1226 CURVE SMOOTH",
"596 1162 OFFCURVE",
"596 1074 OFFCURVE",
"596 1010 CURVE SMOOTH",
"596 926 OFFCURVE",
"550 880 OFFCURVE",
"466 880 CURVE SMOOTH",
"306 880 LINE",
"306 734 LINE"
);
},
{
closed = 1;
nodes = (
"902 0 LINE",
"904 138 OFFCURVE",
"900 290 OFFCURVE",
"894 428 CURVE SMOOTH",
"884 654 OFFCURVE",
"766 734 OFFCURVE",
"474 734 CURVE SMOOTH",
"306 734 LINE",
"306 614 LINE",
"462 614 LINE SMOOTH",
"544 614 OFFCURVE",
"590 562 OFFCURVE",
"594 470 CURVE SMOOTH",
"600 322 OFFCURVE",
"604 148 OFFCURVE",
"602 0 CURVE"
);
},
{
closed = 1;
nodes = (
"380 0 LINE",
"380 1600 LINE",
"80 1600 LINE",
"80 0 LINE"
);
},
{
closed = 1;
nodes = (
"678 694 LINE",
"678 768 LINE",
"306 768 LINE",
"306 694 LINE"
);
}
);
};
layerId = "5013C991-8699-46CB-BB1C-82E334DBD38B";
paths = (
{
closed = 1;
nodes = (
"380 0 LINE",
"380 540 LINE",
"448 540 LINE",
"600 0 LINE",
"918 0 LINE",
"730 590 LINE",
"840 648 OFFCURVE",
"890 756 OFFCURVE",
"896 930 CURVE SMOOTH",
"900 1042 OFFCURVE",
"900 1098 OFFCURVE",
"896 1210 CURVE SMOOTH",
"886 1488 OFFCURVE",
"764 1600 OFFCURVE",
"466 1600 CURVE SMOOTH",
"80 1600 LINE",
"80 0 LINE"
);
},
{
closed = 1;
nodes = (
"380 1336 LINE",
"466 1336 LINE SMOOTH",
"550 1336 OFFCURVE",
"592 1296 OFFCURVE",
"596 1226 CURVE SMOOTH",
"602 1128 OFFCURVE",
"602 1012 OFFCURVE",
"596 914 CURVE SMOOTH",
"592 844 OFFCURVE",
"550 804 OFFCURVE",
"466 804 CURVE SMOOTH",
"380 804 LINE"
);
}
);
width = 958;
},
{
anchors = (
{
name = bottom;
position = "{294, 0}";
},
{
name = top;
position = "{264, 1600}";
}
);
background = {
paths = (
{
closed = 1;
nodes = (
"278 756 LINE SMOOTH",
"398 756 OFFCURVE",
"448 800 OFFCURVE",
"452 924 CURVE SMOOTH",
"458 1066 OFFCURVE",
"458 1206 OFFCURVE",
"452 1414 CURVE SMOOTH",
"448 1546 OFFCURVE",
"398 1600 OFFCURVE",
"280 1600 CURVE SMOOTH",
"142 1600 LINE",
"142 1560 LINE",
"280 1560 LINE SMOOTH",
"370 1560 OFFCURVE",
"408 1518 OFFCURVE",
"412 1414 CURVE SMOOTH",
"418 1238 OFFCURVE",
"418 1096 OFFCURVE",
"412 920 CURVE SMOOTH",
"408 816 OFFCURVE",
"370 774 OFFCURVE",
"278 774 CURVE SMOOTH",
"150 774 LINE",
"150 756 LINE"
);
},
{
closed = 1;
nodes = (
"458 0 LINE",
"460 138 OFFCURVE",
"458 306 OFFCURVE",
"456 588 CURVE SMOOTH",
"454 710 OFFCURVE",
"404 754 OFFCURVE",
"284 754 CURVE SMOOTH",
"142 754 LINE",
"142 734 LINE",
"284 734 LINE SMOOTH",
"376 734 OFFCURVE",
"414 692 OFFCURVE",
"416 588 CURVE SMOOTH",
"420 400 OFFCURVE",
"420 232 OFFCURVE",
"418 0 CURVE"
);
},
{
closed = 1;
nodes = (
"160 0 LINE",
"160 1600 LINE",
"120 1600 LINE",
"120 0 LINE"
);
},
{
closed = 1;
nodes = (
"370 740 LINE",
"370 774 LINE",
"150 774 LINE",
"150 740 LINE"
);
}
);
};
layerId = "3D06B89B-468F-44E0-A3D7-A5BC6911123E";
paths = (
{
closed = 1;
nodes = (
"160 0 LINE",
"160 650 LINE",
"304 650 LINE",
"448 0 LINE",
"492 0 LINE",
"346 658 LINE",
"418 676 OFFCURVE",
"452 732 OFFCURVE",
"456 836 CURVE SMOOTH",
"464 1004 OFFCURVE",
"464 1198 OFFCURVE",
"456 1414 CURVE SMOOTH",
"450 1546 OFFCURVE",
"400 1600 OFFCURVE",
"284 1600 CURVE SMOOTH",
"120 1600 LINE",
"120 0 LINE"
);
},
{
closed = 1;
nodes = (
"160 1560 LINE",
"284 1560 LINE SMOOTH",
"376 1560 OFFCURVE",
"412 1518 OFFCURVE",
"416 1414 CURVE SMOOTH",
"422 1222 OFFCURVE",
"422 1028 OFFCURVE",
"416 836 CURVE SMOOTH",
"412 732 OFFCURVE",
"376 690 OFFCURVE",
"282 690 CURVE SMOOTH",
"160 690 LINE"
);
}
);
width = 552;
},
{
anchors = (
{
name = bottom;
position = "{346, 0}";
},
{
name = top;
position = "{316, 1600}";
}
);
layerId = "C9EB94EC-C68D-4931-B320-068DCAB9FADA";
paths = (
{
closed = 1;
nodes = (
"215 0 LINE",
"215 623 LINE",
"340 623 LINE",
"486 0 LINE",
"599 0 LINE",
"442 641 LINE",
"524 669 OFFCURVE",
"562 738 OFFCURVE",
"566 860 CURVE SMOOTH",
"573 1014 OFFCURVE",
"573 1173 OFFCURVE",
"566 1363 CURVE SMOOTH",
"559 1532 OFFCURVE",
"491 1600 OFFCURVE",
"330 1600 CURVE SMOOTH",
"110 1600 LINE",
"110 0 LINE"
);
},
{
closed = 1;
nodes = (
"215 1504 LINE",
"330 1504 LINE SMOOTH",
"420 1504 OFFCURVE",
"457 1463 OFFCURVE",
"461 1367 CURVE SMOOTH",
"467 1199 OFFCURVE",
"467 1024 OFFCURVE",
"461 856 CURVE SMOOTH",
"457 760 OFFCURVE",
"420 719 OFFCURVE",
"328 719 CURVE SMOOTH",
"215 719 LINE"
);
}
);
width = 654;
},
{
anchors = (
{
name = bottom;
position = "{407, 0}";
},
{
name = top;
position = "{391, 1600}";
}
);
layerId = "6F82CFD7-79D5-473B-9D61-BE5DF154BBF2";
paths = (
{
closed = 1;
nodes = (
"260 0 LINE",
"260 624 LINE",
"419 624 LINE",
"565 0 LINE",
"707 0 LINE",
"549 646 LINE",
"632 677 OFFCURVE",
"670 744 OFFCURVE",
"675 860 CURVE SMOOTH",
"682 1023 OFFCURVE",
"682 1161 OFFCURVE",
"675 1363 CURVE SMOOTH",
"669 1532 OFFCURVE",
"592 1600 OFFCURVE",
"408 1600 CURVE SMOOTH",
"125 1600 LINE",
"125 0 LINE"
);
},
{
closed = 1;
nodes = (
"260 1477 LINE",
"408 1477 LINE SMOOTH",
"504 1477 OFFCURVE",
"536 1449 OFFCURVE",
"540 1367 CURVE SMOOTH",
"549 1172 OFFCURVE",
"546 1051 OFFCURVE",
"540 856 CURVE SMOOTH",
"537 775 OFFCURVE",
"504 747 OFFCURVE",
"407 747 CURVE SMOOTH",
"260 747 LINE"
);
}
);
width = 777;
}
);
leftKerningGroup = H;
rightKerningGroup = R;
unicode = 0052;
},
{
glyphname = S;
layers = (
{
anchors = (
{
name = bottom;
position = "{378, 0}";
},
{
name = top;
position = "{378, 1600}";
}
);
layerId = "3B122060-26E0-4730-9241-82784E6CB359";
paths = (
{
closed = 1;
nodes = (
"544 -10 OFFCURVE",
"608 48 OFFCURVE",
"614 196 CURVE SMOOTH",
"618 298 OFFCURVE",
"618 426 OFFCURVE",
"614 532 CURVE SMOOTH",
"608 722 OFFCURVE",
"562 784 OFFCURVE",
"398 824 CURVE SMOOTH",
"324 842 LINE SMOOTH",
"248 862 OFFCURVE",
"226 908 OFFCURVE",
"224 1058 CURVE SMOOTH",
"222 1180 OFFCURVE",
"220 1282 OFFCURVE",
"224 1404 CURVE SMOOTH",
"228 1506 OFFCURVE",
"262 1534 OFFCURVE",
"378 1534 CURVE SMOOTH",
"492 1534 OFFCURVE",
"524 1506 OFFCURVE",
"528 1404 CURVE SMOOTH",
"532 1306 OFFCURVE",
"532 1208 OFFCURVE",
"528 1070 CURVE",
"608 1070 LINE",
"610 1200 OFFCURVE",
"610 1306 OFFCURVE",
"608 1404 CURVE SMOOTH",
"604 1552 OFFCURVE",
"538 1610 OFFCURVE",
"380 1610 CURVE SMOOTH",
"212 1610 OFFCURVE",
"146 1552 OFFCURVE",
"144 1406 CURVE SMOOTH",
"142 1284 OFFCURVE",
"140 1160 OFFCURVE",
"142 1058 CURVE SMOOTH",
"146 858 OFFCURVE",
"186 794 OFFCURVE",
"324 758 CURVE SMOOTH",
"396 740 LINE SMOOTH",
"502 712 OFFCURVE",
"532 668 OFFCURVE",
"534 532 CURVE SMOOTH",
"536 434 OFFCURVE",
"540 294 OFFCURVE",
"534 196 CURVE SMOOTH",
"528 94 OFFCURVE",
"496 66 OFFCURVE",
"380 66 CURVE SMOOTH",
"260 66 OFFCURVE",
"226 94 OFFCURVE",
"222 196 CURVE SMOOTH",
"216 326 OFFCURVE",
"218 436 OFFCURVE",
"222 566 CURVE",
"142 566 LINE",
"138 420 OFFCURVE",
"138 336 OFFCURVE",
"142 196 CURVE SMOOTH",
"146 48 OFFCURVE",
"214 -10 OFFCURVE",
"382 -10 CURVE SMOOTH"
);
}
);
width = 756;
},
{
anchors = (
{
name = bottom;
position = "{524, 0}";
},
{
name = top;
position = "{524, 1600}";
}
);
background = {
paths = (
{
closed = 1;
nodes = (
"550 618 OFFCURVE",
"586 602 OFFCURVE",
"586 538 CURVE SMOOTH",
"586 382 LINE SMOOTH",
"586 316 OFFCURVE",
"550 280 OFFCURVE",
"484 280 CURVE SMOOTH",
"420 280 OFFCURVE",
"380 316 OFFCURVE",
"380 382 CURVE SMOOTH",
"380 600 LINE",
"80 600 LINE",
"78 536 OFFCURVE",
"78 456 OFFCURVE",
"80 392 CURVE SMOOTH",
"88 134 OFFCURVE",
"226 -10 OFFCURVE",
"484 -10 CURVE SMOOTH",
"742 -10 OFFCURVE",
"886 134 OFFCURVE",
"886 392 CURVE SMOOTH",
"888 438 OFFCURVE",
"888 484 OFFCURVE",
"888 530 CURVE SMOOTH",
"880 788 OFFCURVE",
"742 868 OFFCURVE",
"492 930 CURVE SMOOTH",
"484 932 LINE SMOOTH",
"422 948 OFFCURVE",
"382 968 OFFCURVE",
"382 1034 CURVE SMOOTH",
"382 1220 LINE SMOOTH",
"382 1284 OFFCURVE",
"418 1320 OFFCURVE",
"484 1320 CURVE SMOOTH",
"548 1320 OFFCURVE",
"580 1284 OFFCURVE",
"580 1220 CURVE SMOOTH",
"578 1000 LINE",
"878 1000 LINE",
"880 1066 OFFCURVE",
"882 1144 OFFCURVE",
"880 1210 CURVE SMOOTH",
"872 1468 OFFCURVE",
"742 1610 OFFCURVE",
"484 1610 CURVE SMOOTH",
"226 1610 OFFCURVE",
"88 1468 OFFCURVE",
"82 1210 CURVE SMOOTH",
"82 1160 OFFCURVE",
"80 1092 OFFCURVE",
"80 1042 CURVE SMOOTH",
"88 784 OFFCURVE",
"240 722 OFFCURVE",
"484 640 CURVE SMOOTH",
"490 638 LINE SMOOTH"
);
}
);
};
layerId = "1DFA7D5B-2E97-4B89-827F-FB43F8066DC1";
paths = (
{
closed = 1;
nodes = (
"828 -20 OFFCURVE",
"954 94 OFFCURVE",
"966 382 CURVE SMOOTH",
"968 428 OFFCURVE",
"970 482 OFFCURVE",
"968 528 CURVE SMOOTH",
"960 734 OFFCURVE",
"872 870 OFFCURVE",
"646 918 CURVE SMOOTH",
"484 952 LINE SMOOTH",
"416 966 OFFCURVE",
"388 1016 OFFCURVE",
"382 1070 CURVE SMOOTH",
"374 1138 OFFCURVE",
"374 1208 OFFCURVE",
"382 1276 CURVE SMOOTH",
"390 1340 OFFCURVE",
"442 1376 OFFCURVE",
"526 1376 CURVE SMOOTH",
"616 1376 OFFCURVE",
"668 1340 OFFCURVE",
"670 1276 CURVE SMOOTH",
"674 1184 OFFCURVE",
"672 1092 OFFCURVE",
"668 1000 CURVE",
"956 1000 LINE",
"960 1070 OFFCURVE",
"962 1162 OFFCURVE",
"960 1220 CURVE SMOOTH",
"948 1506 OFFCURVE",
"824 1620 OFFCURVE",
"526 1620 CURVE SMOOTH",
"220 1620 OFFCURVE",
"94 1506 OFFCURVE",
"82 1220 CURVE SMOOTH",
"80 1170 OFFCURVE",
"80 1128 OFFCURVE",
"82 1070 CURVE SMOOTH",
"88 870 OFFCURVE",
"156 740 OFFCURVE",
"366 692 CURVE SMOOTH",
"550 650 LINE SMOOTH",
"614 636 OFFCURVE",
"660 584 OFFCURVE",
"666 528 CURVE SMOOTH",
"674 460 OFFCURVE",
"674 394 OFFCURVE",
"666 326 CURVE SMOOTH",
"658 260 OFFCURVE",
"608 224 OFFCURVE",
"526 224 CURVE SMOOTH",
"438 224 OFFCURVE",
"386 260 OFFCURVE",
"380 326 CURVE SMOOTH",
"372 404 OFFCURVE",
"374 502 OFFCURVE",
"380 600 CURVE",
"98 600 LINE",
"88 536 OFFCURVE",
"88 446 OFFCURVE",
"90 382 CURVE SMOOTH",
"102 94 OFFCURVE",
"226 -20 OFFCURVE",
"526 -20 CURVE SMOOTH"
);
}
);
width = 1048;
},
{
anchors = (
{
name = bottom;
position = "{504, 0}";
},
{
name = top;
position = "{504, 1600}";
}
);
background = {
paths = (
{
closed = 1;
nodes = (
"530 618 OFFCURVE",
"566 602 OFFCURVE",
"566 538 CURVE SMOOTH",
"566 382 LINE SMOOTH",
"566 316 OFFCURVE",
"530 280 OFFCURVE",
"464 280 CURVE SMOOTH",
"400 280 OFFCURVE",
"360 316 OFFCURVE",
"360 382 CURVE SMOOTH",
"360 600 LINE",
"60 600 LINE",
"58 536 OFFCURVE",
"58 456 OFFCURVE",
"60 392 CURVE SMOOTH",
"68 134 OFFCURVE",
"206 -10 OFFCURVE",
"464 -10 CURVE SMOOTH",
"722 -10 OFFCURVE",
"866 134 OFFCURVE",
"866 392 CURVE SMOOTH",
"868 438 OFFCURVE",
"868 484 OFFCURVE",
"868 530 CURVE SMOOTH",
"860 788 OFFCURVE",
"722 868 OFFCURVE",
"472 930 CURVE SMOOTH",
"464 932 LINE SMOOTH",
"402 948 OFFCURVE",
"362 968 OFFCURVE",
"362 1034 CURVE SMOOTH",
"362 1220 LINE SMOOTH",
"362 1284 OFFCURVE",
"398 1320 OFFCURVE",
"464 1320 CURVE SMOOTH",
"528 1320 OFFCURVE",
"560 1284 OFFCURVE",
"560 1220 CURVE SMOOTH",
"558 1000 LINE",
"858 1000 LINE",
"860 1066 OFFCURVE",
"862 1144 OFFCURVE",
"860 1210 CURVE SMOOTH",
"852 1468 OFFCURVE",
"722 1610 OFFCURVE",
"464 1610 CURVE SMOOTH",
"206 1610 OFFCURVE",
"68 1468 OFFCURVE",
"62 1210 CURVE SMOOTH",
"62 1160 OFFCURVE",
"60 1092 OFFCURVE",
"60 1042 CURVE SMOOTH",
"68 784 OFFCURVE",
"220 722 OFFCURVE",
"464 640 CURVE SMOOTH",
"470 638 LINE SMOOTH"
);
}
);
};
layerId = "5013C991-8699-46CB-BB1C-82E334DBD38B";
paths = (
{
closed = 1;
nodes = (
"802 -20 OFFCURVE",
"914 94 OFFCURVE",
"926 382 CURVE SMOOTH",
"928 428 OFFCURVE",
"930 482 OFFCURVE",
"928 528 CURVE SMOOTH",
"920 734 OFFCURVE",
"850 864 OFFCURVE",
"626 918 CURVE SMOOTH",
"484 952 LINE SMOOTH",
"416 968 OFFCURVE",
"388 1016 OFFCURVE",
"382 1070 CURVE SMOOTH",
"374 1138 OFFCURVE",
"374 1208 OFFCURVE",
"382 1276 CURVE SMOOTH",
"390 1340 OFFCURVE",
"426 1376 OFFCURVE",
"506 1376 CURVE SMOOTH",
"580 1376 OFFCURVE",
"628 1340 OFFCURVE",
"630 1276 CURVE SMOOTH",
"634 1184 OFFCURVE",
"632 1092 OFFCURVE",
"628 1000 CURVE",
"916 1000 LINE",
"920 1070 OFFCURVE",
"922 1162 OFFCURVE",
"920 1220 CURVE SMOOTH",
"908 1506 OFFCURVE",
"790 1620 OFFCURVE",
"506 1620 CURVE SMOOTH",
"204 1620 OFFCURVE",
"94 1506 OFFCURVE",
"82 1220 CURVE SMOOTH",
"80 1170 OFFCURVE",
"80 1128 OFFCURVE",
"82 1070 CURVE SMOOTH",
"88 870 OFFCURVE",
"158 746 OFFCURVE",
"366 692 CURVE SMOOTH",
"530 650 LINE SMOOTH",
"594 634 OFFCURVE",
"620 584 OFFCURVE",
"626 528 CURVE SMOOTH",
"634 460 OFFCURVE",
"634 394 OFFCURVE",
"626 326 CURVE SMOOTH",
"618 260 OFFCURVE",
"584 224 OFFCURVE",
"506 224 CURVE SMOOTH",
"426 224 OFFCURVE",
"386 260 OFFCURVE",
"380 326 CURVE SMOOTH",
"372 404 OFFCURVE",
"374 502 OFFCURVE",
"380 600 CURVE",
"98 600 LINE",
"88 536 OFFCURVE",
"88 446 OFFCURVE",
"90 382 CURVE SMOOTH",
"102 94 OFFCURVE",
"212 -20 OFFCURVE",
"506 -20 CURVE SMOOTH"
);
}
);
width = 1008;
},
{
anchors = (
{
name = bottom;
position = "{258, 0}";
},
{
name = top;
position = "{258, 1600}";
}
);
layerId = "3D06B89B-468F-44E0-A3D7-A5BC6911123E";
paths = (
{
closed = 1;
nodes = (
"378 -10 OFFCURVE",
"430 44 OFFCURVE",
"434 176 CURVE SMOOTH",
"438 318 OFFCURVE",
"438 366 OFFCURVE",
"434 532 CURVE SMOOTH",
"430 694 OFFCURVE",
"418 776 OFFCURVE",
"298 804 CURVE SMOOTH",
"224 822 LINE SMOOTH",
"136 844 OFFCURVE",
"126 902 OFFCURVE",
"124 1058 CURVE SMOOTH",
"122 1180 OFFCURVE",
"120 1302 OFFCURVE",
"124 1424 CURVE SMOOTH",
"128 1528 OFFCURVE",
"162 1570 OFFCURVE",
"258 1570 CURVE SMOOTH",
"350 1570 OFFCURVE",
"384 1528 OFFCURVE",
"388 1424 CURVE SMOOTH",
"392 1306 OFFCURVE",
"392 1188 OFFCURVE",
"388 1070 CURVE",
"428 1070 LINE",
"430 1216 OFFCURVE",
"430 1342 OFFCURVE",
"428 1424 CURVE SMOOTH",
"424 1556 OFFCURVE",
"376 1610 OFFCURVE",
"260 1610 CURVE SMOOTH",
"134 1610 OFFCURVE",
"84 1558 OFFCURVE",
"84 1426 CURVE SMOOTH",
"84 1304 OFFCURVE",
"80 1160 OFFCURVE",
"82 1058 CURVE SMOOTH",
"86 882 OFFCURVE",
"100 808 OFFCURVE",
"224 778 CURVE SMOOTH",
"296 760 LINE SMOOTH",
"380 738 OFFCURVE",
"392 656 OFFCURVE",
"394 532 CURVE SMOOTH",
"396 374 OFFCURVE",
"398 314 OFFCURVE",
"394 176 CURVE SMOOTH",
"390 72 OFFCURVE",
"356 30 OFFCURVE",
"260 30 CURVE SMOOTH",
"162 30 OFFCURVE",
"126 72 OFFCURVE",
"122 176 CURVE SMOOTH",
"118 306 OFFCURVE",
"118 436 OFFCURVE",
"122 566 CURVE",
"82 566 LINE",
"78 408 OFFCURVE",
"78 332 OFFCURVE",
"82 176 CURVE SMOOTH",
"86 44 OFFCURVE",
"138 -10 OFFCURVE",
"262 -10 CURVE SMOOTH"
);
}
);
width = 516;
},
{
anchors = (
{
name = bottom;
position = "{320, 0}";
},
{
name = top;
position = "{320, 1600}";
}
);
layerId = "C9EB94EC-C68D-4931-B320-068DCAB9FADA";
paths = (
{
closed = 1;
nodes = (
"484 -13 OFFCURVE",
"551 57 OFFCURVE",
"557 228 CURVE SMOOTH",
"561 346 OFFCURVE",
"561 395 OFFCURVE",
"558 531 CURVE SMOOTH",
"553 704 OFFCURVE",
"526 798 OFFCURVE",
"380 833 CURVE SMOOTH",
"289 855 LINE SMOOTH",
"206 875 OFFCURVE",
"192 931 OFFCURVE",
"189 1061 CURVE SMOOTH",
"185 1170 OFFCURVE",
"184 1279 OFFCURVE",
"189 1387 CURVE SMOOTH",
"194 1481 OFFCURVE",
"228 1522 OFFCURVE",
"320 1522 CURVE SMOOTH",
"408 1522 OFFCURVE",
"445 1481 OFFCURVE",
"449 1387 CURVE SMOOTH",
"453 1276 OFFCURVE",
"452 1164 OFFCURVE",
"448 1053 CURVE",
"550 1053 LINE",
"553 1180 OFFCURVE",
"553 1297 OFFCURVE",
"551 1373 CURVE SMOOTH",
"545 1544 OFFCURVE",
"480 1613 OFFCURVE",
"322 1613 CURVE SMOOTH",
"152 1613 OFFCURVE",
"87 1545 OFFCURVE",
"84 1375 CURVE SMOOTH",
"83 1271 OFFCURVE",
"80 1152 OFFCURVE",
"82 1061 CURVE SMOOTH",
"87 879 OFFCURVE",
"115 793 OFFCURVE",
"260 757 CURVE SMOOTH",
"355 733 LINE SMOOTH",
"434 712 OFFCURVE",
"449 638 OFFCURVE",
"452 531 CURVE SMOOTH",
"456 396 OFFCURVE",
"457 334 OFFCURVE",
"452 214 CURVE SMOOTH",
"447 119 OFFCURVE",
"413 79 OFFCURVE",
"322 79 CURVE SMOOTH",
"228 79 OFFCURVE",
"191 119 OFFCURVE",
"187 214 CURVE SMOOTH",
"182 331 OFFCURVE",
"182 453 OFFCURVE",
"187 575 CURVE",
"86 575 LINE",
"81 440 OFFCURVE",
"81 361 OFFCURVE",
"84 228 CURVE SMOOTH",
"90 57 OFFCURVE",
"157 -13 OFFCURVE",
"323 -13 CURVE SMOOTH"
);
}
);
width = 639;
},
{
anchors = (
{
name = bottom;
position = "{415, 0}";
},
{
name = top;
position = "{415, 1600}";
}
);
layerId = "6F82CFD7-79D5-473B-9D61-BE5DF154BBF2";
paths = (
{
closed = 1;
nodes = (
"615 -13 OFFCURVE",
"695 60 OFFCURVE",
"702 243 CURVE SMOOTH",
"706 331 OFFCURVE",
"706 440 OFFCURVE",
"703 531 CURVE SMOOTH",
"696 725 OFFCURVE",
"640 806 OFFCURVE",
"460 848 CURVE SMOOTH",
"364 870 LINE SMOOTH",
"290 888 OFFCURVE",
"267 935 OFFCURVE",
"264 1061 CURVE SMOOTH",
"260 1170 OFFCURVE",
"259 1264 OFFCURVE",
"264 1372 CURVE SMOOTH",
"269 1465 OFFCURVE",
"307 1495 OFFCURVE",
"415 1495 CURVE SMOOTH",
"523 1495 OFFCURVE",
"560 1465 OFFCURVE",
"564 1372 CURVE SMOOTH",
"568 1276 OFFCURVE",
"567 1179 OFFCURVE",
"563 1053 CURVE",
"695 1053 LINE",
"698 1168 OFFCURVE",
"698 1270 OFFCURVE",
"696 1358 CURVE SMOOTH",
"690 1541 OFFCURVE",
"610 1613 OFFCURVE",
"417 1613 CURVE SMOOTH",
"214 1613 OFFCURVE",
"133 1541 OFFCURVE",
"129 1360 CURVE SMOOTH",
"127 1256 OFFCURVE",
"125 1152 OFFCURVE",
"127 1061 CURVE SMOOTH",
"132 861 OFFCURVE",
"179 781 OFFCURVE",
"335 742 CURVE SMOOTH",
"435 718 LINE SMOOTH",
"530 693 OFFCURVE",
"564 647 OFFCURVE",
"567 531 CURVE SMOOTH",
"571 441 OFFCURVE",
"574 319 OFFCURVE",
"567 229 CURVE SMOOTH",
"561 136 OFFCURVE",
"524 106 OFFCURVE",
"417 106 CURVE SMOOTH",
"305 106 OFFCURVE",
"266 136 OFFCURVE",
"262 229 CURVE SMOOTH",
"255 346 OFFCURVE",
"257 453 OFFCURVE",
"262 575 CURVE",
"131 575 LINE",
"126 449 OFFCURVE",
"126 364 OFFCURVE",
"129 243 CURVE SMOOTH",
"135 60 OFFCURVE",
"217 -13 OFFCURVE",
"418 -13 CURVE SMOOTH"
);
}
);
width = 829;
}
);
leftKerningGroup = O;
rightKerningGroup = O;
unicode = 0053;
},
{
glyphname = Germandbls;
layers = (
{
layerId = "3B122060-26E0-4730-9241-82784E6CB359";
paths = (
{
closed = 1;
nodes = (
"160 0 LINE",
"160 1420 LINE SMOOTH",
"160 1502 OFFCURVE",
"190 1526 OFFCURVE",
"296 1526 CURVE SMOOTH",
"442 1526 LINE",
"274 818 LINE",
"274 744 LINE",
"334 744 LINE SMOOTH",
"436 744 OFFCURVE",
"464 710 OFFCURVE",
"468 582 CURVE SMOOTH",
"472 448 OFFCURVE",
"472 362 OFFCURVE",
"468 226 CURVE SMOOTH",
"464 124 OFFCURVE",
"432 76 OFFCURVE",
"316 76 CURVE SMOOTH",
"198 76 LINE",
"198 0 LINE",
"316 0 LINE SMOOTH",
"478 0 OFFCURVE",
"544 78 OFFCURVE",
"548 226 CURVE SMOOTH",
"552 382 OFFCURVE",
"552 442 OFFCURVE",
"548 582 CURVE SMOOTH",
"544 740 OFFCURVE",
"470 810 OFFCURVE",
"358 820 CURVE",
"538 1538 LINE",
"538 1602 LINE",
"296 1602 LINE SMOOTH",
"142 1602 OFFCURVE",
"80 1548 OFFCURVE",
"80 1420 CURVE SMOOTH",
"80 0 LINE"
);
}
);
width = 630;
},
{
layerId = "1DFA7D5B-2E97-4B89-827F-FB43F8066DC1";
paths = (
{
closed = 1;
nodes = (
"380 0 LINE",
"380 1256 LINE SMOOTH",
"380 1320 OFFCURVE",
"426 1356 OFFCURVE",
"502 1356 CURVE SMOOTH",
"668 1356 LINE",
"478 904 LINE",
"482 670 LINE",
"610 670 LINE SMOOTH",
"676 670 OFFCURVE",
"700 604 OFFCURVE",
"706 548 CURVE SMOOTH",
"714 480 OFFCURVE",
"714 414 OFFCURVE",
"706 346 CURVE SMOOTH",
"698 280 OFFCURVE",
"664 244 OFFCURVE",
"586 244 CURVE SMOOTH",
"482 244 LINE",
"482 0 LINE",
"586 0 LINE SMOOTH",
"882 0 OFFCURVE",
"994 114 OFFCURVE",
"1006 402 CURVE SMOOTH",
"1008 448 OFFCURVE",
"1010 502 OFFCURVE",
"1008 548 CURVE SMOOTH",
"1000 734 OFFCURVE",
"944 858 OFFCURVE",
"770 920 CURVE",
"980 1374 LINE",
"980 1600 LINE",
"502 1600 LINE SMOOTH",
"208 1600 OFFCURVE",
"80 1486 OFFCURVE",
"80 1200 CURVE SMOOTH",
"80 0 LINE"
);
}
);
width = 1088;
},
{
layerId = "5013C991-8699-46CB-BB1C-82E334DBD38B";
paths = (
{
closed = 1;
nodes = (
"380 0 LINE",
"380 1256 LINE SMOOTH",
"380 1320 OFFCURVE",
"426 1356 OFFCURVE",
"502 1356 CURVE SMOOTH",
"648 1356 LINE",
"458 904 LINE",
"462 670 LINE",
"590 670 LINE SMOOTH",
"656 670 OFFCURVE",
"680 604 OFFCURVE",
"686 548 CURVE SMOOTH",
"694 480 OFFCURVE",
"694 414 OFFCURVE",
"686 346 CURVE SMOOTH",
"678 280 OFFCURVE",
"644 244 OFFCURVE",
"566 244 CURVE SMOOTH",
"462 244 LINE",
"462 0 LINE",
"566 0 LINE SMOOTH",
"862 0 OFFCURVE",
"974 114 OFFCURVE",
"986 402 CURVE SMOOTH",
"988 448 OFFCURVE",
"990 502 OFFCURVE",
"988 548 CURVE SMOOTH",
"980 734 OFFCURVE",
"924 858 OFFCURVE",
"750 920 CURVE",
"960 1374 LINE",
"960 1600 LINE",
"502 1600 LINE SMOOTH",
"208 1600 OFFCURVE",
"80 1486 OFFCURVE",
"80 1200 CURVE SMOOTH",
"80 0 LINE"
);
}
);
width = 1068;
},
{
layerId = "3D06B89B-468F-44E0-A3D7-A5BC6911123E";
paths = (
{
closed = 1;
nodes = (
"160 0 LINE",
"160 1418 LINE SMOOTH",
"160 1526 OFFCURVE",
"196 1558 OFFCURVE",
"296 1560 CURVE SMOOTH",
"432 1562 LINE",
"266 818 LINE",
"266 780 LINE",
"314 780 LINE SMOOTH",
"406 780 OFFCURVE",
"444 724 OFFCURVE",
"448 582 CURVE SMOOTH",
"452 448 OFFCURVE",
"452 342 OFFCURVE",
"448 206 CURVE SMOOTH",
"444 88 OFFCURVE",
"400 40 OFFCURVE",
"296 40 CURVE SMOOTH",
"198 40 LINE",
"198 0 LINE",
"296 0 LINE SMOOTH",
"428 0 OFFCURVE",
"484 58 OFFCURVE",
"488 206 CURVE SMOOTH",
"492 362 OFFCURVE",
"492 442 OFFCURVE",
"488 582 CURVE SMOOTH",
"484 754 OFFCURVE",
"434 820 OFFCURVE",
"310 820 CURVE",
"478 1572 LINE",
"478 1602 LINE",
"296 1600 LINE SMOOTH",
"170 1598 OFFCURVE",
"120 1548 OFFCURVE",
"120 1418 CURVE SMOOTH",
"120 0 LINE"
);
}
);
width = 618;
},
{
layerId = "C9EB94EC-C68D-4931-B320-068DCAB9FADA";
paths = (
{
closed = 1;
nodes = (
"215 0 LINE",
"215 1378 LINE SMOOTH",
"215 1475 OFFCURVE",
"254 1508 OFFCURVE",
"348 1509 CURVE SMOOTH",
"486 1511 LINE",
"314 840 LINE",
"315 753 LINE",
"383 753 LINE SMOOTH",
"469 753 OFFCURVE",
"503 694 OFFCURVE",
"508 574 CURVE SMOOTH",
"513 456 OFFCURVE",
"513 360 OFFCURVE",
"508 241 CURVE SMOOTH",
"503 136 OFFCURVE",
"461 91 OFFCURVE",
"364 91 CURVE SMOOTH",
"264 91 LINE",
"264 0 LINE",
"364 0 LINE SMOOTH",
"537 0 OFFCURVE",
"607 72 OFFCURVE",
"613 255 CURVE SMOOTH",
"616 384 OFFCURVE",
"617 457 OFFCURVE",
"613 574 CURVE SMOOTH",
"608 749 OFFCURVE",
"557 830 OFFCURVE",
"420 845 CURVE",
"599 1523 LINE",
"599 1602 LINE",
"348 1600 LINE SMOOTH",
"180 1599 OFFCURVE",
"110 1533 OFFCURVE",
"110 1364 CURVE SMOOTH",
"110 0 LINE"
);
}
);
width = 731;
},
{
layerId = "6F82CFD7-79D5-473B-9D61-BE5DF154BBF2";
paths = (
{
closed = 1;
nodes = (
"215 0 LINE",
"215 1379 LINE SMOOTH",
"215 1457 OFFCURVE",
"249 1484 OFFCURVE",
"348 1484 CURVE SMOOTH",
"499 1484 LINE",
"325 840 LINE",
"326 726 LINE",
"403 726 LINE SMOOTH",
"496 726 OFFCURVE",
"523 684 OFFCURVE",
"528 574 CURVE SMOOTH",
"533 456 OFFCURVE",
"533 375 OFFCURVE",
"528 256 CURVE SMOOTH",
"523 163 OFFCURVE",
"490 118 OFFCURVE",
"384 118 CURVE SMOOTH",
"269 118 LINE",
"269 0 LINE",
"384 0 LINE SMOOTH",
"579 0 OFFCURVE",
"657 87 OFFCURVE",
"663 270 CURVE SMOOTH",
"666 399 OFFCURVE",
"667 457 OFFCURVE",
"663 574 CURVE SMOOTH",
"658 739 OFFCURVE",
"589 822 OFFCURVE",
"461 845 CURVE",
"649 1497 LINE",
"649 1602 LINE",
"348 1602 LINE SMOOTH",
"159 1602 OFFCURVE",
"80 1533 OFFCURVE",
"80 1365 CURVE SMOOTH",
"80 0 LINE"
);
}
);
width = 745;
}
);
leftKerningGroup = H;
rightKerningGroup = B;
unicode = 1E9E;
},
{
glyphname = Schwa;
layers = (
{
layerId = "3B122060-26E0-4730-9241-82784E6CB359";
paths = (
{
closed = 1;
nodes = (
"532 -10 OFFCURVE",
"594 48 OFFCURVE",
"596 194 CURVE SMOOTH",
"602 638 OFFCURVE",
"602 956 OFFCURVE",
"596 1402 CURVE SMOOTH",
"594 1548 OFFCURVE",
"532 1606 OFFCURVE",
"378 1606 CURVE SMOOTH",
"216 1606 OFFCURVE",
"148 1548 OFFCURVE",
"144 1402 CURVE SMOOTH",
"140 1262 OFFCURVE",
"142 1172 OFFCURVE",
"146 1032 CURVE",
"226 1032 LINE",
"224 1162 OFFCURVE",
"222 1272 OFFCURVE",
"224 1402 CURVE SMOOTH",
"226 1502 OFFCURVE",
"260 1528 OFFCURVE",
"378 1528 CURVE SMOOTH",
"484 1528 OFFCURVE",
"514 1502 OFFCURVE",
"516 1402 CURVE SMOOTH",
"520 1164 OFFCURVE",
"524 990 OFFCURVE",
"524 816 CURVE",
"152 816 LINE",
"150 614 OFFCURVE",
"148 416 OFFCURVE",
"152 194 CURVE SMOOTH",
"154 48 OFFCURVE",
"220 -10 OFFCURVE",
"380 -10 CURVE SMOOTH"
);
},
{
closed = 1;
nodes = (
"266 66 OFFCURVE",
"234 94 OFFCURVE",
"232 194 CURVE SMOOTH",
"226 424 OFFCURVE",
"230 548 OFFCURVE",
"232 740 CURVE",
"524 740 LINE",
"522 580 OFFCURVE",
"520 412 OFFCURVE",
"516 194 CURVE SMOOTH",
"514 94 OFFCURVE",
"484 66 OFFCURVE",
"380 66 CURVE SMOOTH"
);
}
);
width = 738;
},
{
layerId = "1DFA7D5B-2E97-4B89-827F-FB43F8066DC1";
paths = (
{
closed = 1;
nodes = (
"837 -20 OFFCURVE",
"963 94 OFFCURVE",
"967 378 CURVE SMOOTH",
"973 680 OFFCURVE",
"973 920 OFFCURVE",
"967 1218 CURVE SMOOTH",
"961 1506 OFFCURVE",
"835 1620 OFFCURVE",
"525 1620 CURVE SMOOTH",
"215 1620 OFFCURVE",
"89 1506 OFFCURVE",
"81 1218 CURVE SMOOTH",
"79 1140 OFFCURVE",
"79 1078 OFFCURVE",
"81 1000 CURVE",
"381 1000 LINE",
"379 1072 OFFCURVE",
"379 1202 OFFCURVE",
"381 1274 CURVE SMOOTH",
"383 1340 OFFCURVE",
"435 1376 OFFCURVE",
"525 1376 CURVE SMOOTH",
"615 1376 OFFCURVE",
"665 1340 OFFCURVE",
"667 1274 CURVE SMOOTH",
"671 1150 OFFCURVE",
"673 1020 OFFCURVE",
"675 888 CURVE",
"89 888 LINE",
"87 682 OFFCURVE",
"87 546 OFFCURVE",
"89 380 CURVE SMOOTH",
"93 94 OFFCURVE",
"217 -20 OFFCURVE",
"525 -20 CURVE SMOOTH"
);
},
{
closed = 1;
nodes = (
"439 224 OFFCURVE",
"391 260 OFFCURVE",
"389 324 CURVE SMOOTH",
"385 438 OFFCURVE",
"383 554 OFFCURVE",
"383 682 CURVE",
"675 682 LINE",
"673 560 OFFCURVE",
"671 440 OFFCURVE",
"667 324 CURVE SMOOTH",
"665 260 OFFCURVE",
"615 224 OFFCURVE",
"525 224 CURVE SMOOTH"
);
}
);
width = 1050;
},
{
layerId = "5013C991-8699-46CB-BB1C-82E334DBD38B";
paths = (
{
closed = 1;
nodes = (
"799 -20 OFFCURVE",
"923 134 OFFCURVE",
"927 378 CURVE SMOOTH",
"931 604 OFFCURVE",
"931 996 OFFCURVE",
"927 1218 CURVE SMOOTH",
"921 1506 OFFCURVE",
"807 1620 OFFCURVE",
"505 1620 CURVE SMOOTH",
"211 1620 OFFCURVE",
"89 1506 OFFCURVE",
"81 1218 CURVE SMOOTH",
"79 1154 OFFCURVE",
"79 1064 OFFCURVE",
"81 1000 CURVE",
"381 1000 LINE",
"379 1072 OFFCURVE",
"379 1202 OFFCURVE",
"381 1274 CURVE SMOOTH",
"383 1340 OFFCURVE",
"427 1376 OFFCURVE",
"505 1376 CURVE SMOOTH",
"581 1376 OFFCURVE",
"625 1340 OFFCURVE",
"627 1274 CURVE SMOOTH",
"631 1160 OFFCURVE",
"633 1026 OFFCURVE",
"635 888 CURVE",
"89 888 LINE",
"87 682 OFFCURVE",
"87 546 OFFCURVE",
"89 380 CURVE SMOOTH",
"93 94 OFFCURVE",
"217 -20 OFFCURVE",
"505 -20 CURVE SMOOTH"
);
},
{
closed = 1;
nodes = (
"433 224 OFFCURVE",
"391 260 OFFCURVE",
"389 324 CURVE SMOOTH",
"385 438 OFFCURVE",
"383 554 OFFCURVE",
"383 682 CURVE",
"635 682 LINE",
"633 554 OFFCURVE",
"631 432 OFFCURVE",
"627 324 CURVE SMOOTH",
"625 260 OFFCURVE",
"581 224 OFFCURVE",
"505 224 CURVE SMOOTH"
);
}
);
width = 1011;
},
{
layerId = "3D06B89B-468F-44E0-A3D7-A5BC6911123E";
paths = (
{
closed = 1;
nodes = (
"442 -12 OFFCURVE",
"492 42 OFFCURVE",
"494 174 CURVE SMOOTH",
"502 618 OFFCURVE",
"502 976 OFFCURVE",
"494 1422 CURVE SMOOTH",
"492 1554 OFFCURVE",
"442 1608 OFFCURVE",
"316 1608 CURVE SMOOTH",
"182 1608 OFFCURVE",
"126 1554 OFFCURVE",
"122 1422 CURVE SMOOTH",
"118 1308 OFFCURVE",
"120 1196 OFFCURVE",
"124 1032 CURVE",
"164 1032 LINE",
"162 1218 OFFCURVE",
"160 1330 OFFCURVE",
"162 1422 CURVE SMOOTH",
"164 1526 OFFCURVE",
"208 1568 OFFCURVE",
"316 1568 CURVE SMOOTH",
"412 1568 OFFCURVE",
"452 1526 OFFCURVE",
"454 1422 CURVE SMOOTH",
"458 1206 OFFCURVE",
"460 1010 OFFCURVE",
"460 816 CURVE",
"130 816 LINE",
"128 598 OFFCURVE",
"128 414 OFFCURVE",
"130 174 CURVE SMOOTH",
"132 42 OFFCURVE",
"186 -12 OFFCURVE",
"318 -12 CURVE SMOOTH"
);
},
{
closed = 1;
nodes = (
"214 28 OFFCURVE",
"172 70 OFFCURVE",
"170 174 CURVE SMOOTH",
"168 398 OFFCURVE",
"168 574 OFFCURVE",
"170 776 CURVE",
"460 776 LINE",
"460 582 OFFCURVE",
"458 388 OFFCURVE",
"454 174 CURVE SMOOTH",
"452 70 OFFCURVE",
"414 28 OFFCURVE",
"318 28 CURVE SMOOTH"
);
}
);
width = 619;
},
{
layerId = "C9EB94EC-C68D-4931-B320-068DCAB9FADA";
paths = (
{
closed = 1;
nodes = (
"532 -14 OFFCURVE",
"600 65 OFFCURVE",
"603 225 CURVE SMOOTH",
"610 615 OFFCURVE",
"610 981 OFFCURVE",
"603 1371 CURVE SMOOTH",
"600 1542 OFFCURVE",
"534 1611 OFFCURVE",
"364 1611 CURVE SMOOTH",
"190 1611 OFFCURVE",
"117 1542 OFFCURVE",
"112 1371 CURVE SMOOTH",
"109 1270 OFFCURVE",
"110 1163 OFFCURVE",
"114 1024 CURVE",
"219 1024 LINE",
"217 1182 OFFCURVE",
"215 1298 OFFCURVE",
"217 1385 CURVE SMOOTH",
"219 1480 OFFCURVE",
"263 1520 OFFCURVE",
"364 1520 CURVE SMOOTH",
"455 1520 OFFCURVE",
"496 1480 OFFCURVE",
"498 1385 CURVE SMOOTH",
"502 1195 OFFCURVE",
"504 1014 OFFCURVE",
"504 834 CURVE",
"120 834 LINE",
"118 619 OFFCURVE",
"118 447 OFFCURVE",
"120 226 CURVE SMOOTH",
"123 55 OFFCURVE",
"194 -14 OFFCURVE",
"365 -14 CURVE SMOOTH"
);
},
{
closed = 1;
nodes = (
"269 77 OFFCURVE",
"227 118 OFFCURVE",
"225 212 CURVE SMOOTH",
"223 408 OFFCURVE",
"222 569 OFFCURVE",
"224 753 CURVE",
"504 753 LINE",
"504 575 OFFCURVE",
"502 399 OFFCURVE",
"498 212 CURVE SMOOTH",
"496 118 OFFCURVE",
"456 77 OFFCURVE",
"365 77 CURVE SMOOTH"
);
}
);
width = 718;
},
{
layerId = "6F82CFD7-79D5-473B-9D61-BE5DF154BBF2";
paths = (
{
closed = 1;
nodes = (
"609 -13 OFFCURVE",
"687 60 OFFCURVE",
"689 240 CURVE SMOOTH",
"695 649 OFFCURVE",
"695 947 OFFCURVE",
"689 1356 CURVE SMOOTH",
"686 1538 OFFCURVE",
"608 1610 OFFCURVE",
"415 1610 CURVE SMOOTH",
"216 1610 OFFCURVE",
"134 1538 OFFCURVE",
"129 1356 CURVE SMOOTH",
"125 1232 OFFCURVE",
"127 1149 OFFCURVE",
"130 1024 CURVE",
"265 1024 LINE",
"263 1140 OFFCURVE",
"262 1255 OFFCURVE",
"264 1370 CURVE SMOOTH",
"266 1462 OFFCURVE",
"304 1490 OFFCURVE",
"415 1490 CURVE SMOOTH",
"517 1490 OFFCURVE",
"552 1462 OFFCURVE",
"554 1370 CURVE SMOOTH",
"558 1161 OFFCURVE",
"562 998 OFFCURVE",
"562 834 CURVE",
"137 834 LINE",
"135 631 OFFCURVE",
"133 449 OFFCURVE",
"137 241 CURVE SMOOTH",
"139 60 OFFCURVE",
"220 -13 OFFCURVE",
"417 -13 CURVE SMOOTH"
);
},
{
closed = 1;
nodes = (
"310 106 OFFCURVE",
"274 136 OFFCURVE",
"272 227 CURVE SMOOTH",
"266 428 OFFCURVE",
"269 550 OFFCURVE",
"270 726 CURVE",
"562 726 LINE",
"560 575 OFFCURVE",
"558 419 OFFCURVE",
"554 227 CURVE SMOOTH",
"552 136 OFFCURVE",
"517 106 OFFCURVE",
"417 106 CURVE SMOOTH"
);
}
);
width = 816;
}
);
leftKerningGroup = O;
leftMetricsKey = O;
rightKerningGroup = O;
rightMetricsKey = O;
unicode = 018F;
},
{
glyphname = T;
layers = (
{
anchors = (
{
name = bottom;
position = "{324, 0}";
},
{
name = center;
position = "{324, 800}";
},
{
name = top;
position = "{324, 1600}";
}
);
layerId = "3B122060-26E0-4730-9241-82784E6CB359";
paths = (
{
closed = 1;
nodes = (
"364 0 LINE",
"364 1524 LINE",
"588 1524 LINE",
"588 1600 LINE",
"60 1600 LINE",
"60 1524 LINE",
"284 1524 LINE",
"284 0 LINE"
);
}
);
width = 648;
},
{
anchors = (
{
name = bottom;
position = "{468, 0}";
},
{
name = center;
position = "{468, 800}";
},
{
name = top;
position = "{468, 1600}";
}
);
layerId = "1DFA7D5B-2E97-4B89-827F-FB43F8066DC1";
paths = (
{
closed = 1;
nodes = (
"618 0 LINE",
"618 1336 LINE",
"894 1336 LINE",
"894 1600 LINE",
"40 1600 LINE",
"40 1336 LINE",
"318 1336 LINE",
"318 0 LINE"
);
}
);
width = 934;
},
{
anchors = (
{
name = bottom;
position = "{448, 0}";
},
{
name = center;
position = "{448, 800}";
},
{
name = top;
position = "{448, 1600}";
}
);
layerId = "5013C991-8699-46CB-BB1C-82E334DBD38B";
paths = (
{
closed = 1;
nodes = (
"598 0 LINE",
"598 1336 LINE",
"854 1336 LINE",
"854 1600 LINE",
"40 1600 LINE",
"40 1336 LINE",
"298 1336 LINE",
"298 0 LINE"
);
}
);
width = 894;
},
{
anchors = (
{
name = bottom;
position = "{232, 0}";
},
{
name = center;
position = "{234, 800}";
},
{
name = top;
position = "{234, 1600}";
}
);
layerId = "3D06B89B-468F-44E0-A3D7-A5BC6911123E";
paths = (
{
closed = 1;
nodes = (
"254 0 LINE",
"254 1560 LINE",
"428 1560 LINE",
"428 1600 LINE",
"40 1600 LINE",
"40 1560 LINE",
"214 1560 LINE",
"214 0 LINE"
);
}
);
width = 468;
},
{
anchors = (
{
name = bottom;
position = "{286, 0}";
},
{
name = center;
position = "{288, 800}";
},
{
name = top;
position = "{288, 1600}";
}
);
layerId = "C9EB94EC-C68D-4931-B320-068DCAB9FADA";
paths = (
{
closed = 1;
nodes = (
"340 0 LINE",
"340 1504 LINE",
"535 1504 LINE",
"535 1600 LINE",
"40 1600 LINE",
"40 1504 LINE",
"235 1504 LINE",
"235 0 LINE"
);
}
);
width = 575;
},
{
anchors = (
{
name = bottom;
position = "{360, 0}";
},
{
name = center;
position = "{360, 800}";
},
{
name = top;
position = "{360, 1600}";
}
);
layerId = "6F82CFD7-79D5-473B-9D61-BE5DF154BBF2";
paths = (
{
closed = 1;
nodes = (
"428 0 LINE",
"428 1477 LINE",
"665 1477 LINE",
"665 1600 LINE",
"55 1600 LINE",
"55 1477 LINE",
"293 1477 LINE",
"293 0 LINE"
);
}
);
width = 720;
}
);
leftKerningGroup = V;
rightKerningGroup = V;
unicode = 0054;
},
{
glyphname = Tbar;
layers = (
{
components = (
{
name = T;
}
);
layerId = "3B122060-26E0-4730-9241-82784E6CB359";
paths = (
{
closed = 1;
nodes = (
"444 670 LINE",
"444 746 LINE",
"204 746 LINE",
"204 670 LINE"
);
}
);
width = 648;
},
{
components = (
{
name = T;
}
);
layerId = "1DFA7D5B-2E97-4B89-827F-FB43F8066DC1";
paths = (
{
closed = 1;
nodes = (
"748 610 LINE",
"748 754 LINE",
"188 754 LINE",
"188 610 LINE"
);
}
);
width = 934;
},
{
components = (
{
name = T;
}
);
layerId = "5013C991-8699-46CB-BB1C-82E334DBD38B";
paths = (
{
closed = 1;
nodes = (
"728 610 LINE",
"728 754 LINE",
"168 754 LINE",
"168 610 LINE"
);
}
);
width = 894;
},
{
components = (
{
name = T;
}
);
layerId = "3D06B89B-468F-44E0-A3D7-A5BC6911123E";
paths = (
{
closed = 1;
nodes = (
"354 688 LINE",
"354 728 LINE",
"114 728 LINE",
"114 688 LINE"
);
}
);
width = 468;
},
{
components = (
{
alignment = -1;
name = T;
}
);
layerId = "C9EB94EC-C68D-4931-B320-068DCAB9FADA";
paths = (
{
closed = 1;
nodes = (
"448 669 LINE",
"448 735 LINE",
"128 735 LINE",
"128 669 LINE"
);
}
);
width = 575;
},
{
components = (
{
alignment = -1;
name = T;
}
);
layerId = "6F82CFD7-79D5-473B-9D61-BE5DF154BBF2";
paths = (
{
closed = 1;
nodes = (
"520 655 LINE",
"520 748 LINE",
"200 748 LINE",
"200 655 LINE"
);
}
);
width = 720;
}
);
leftKerningGroup = V;
leftMetricsKey = T;
rightKerningGroup = V;
rightMetricsKey = T;
unicode = 0166;
},
{
glyphname = U;
layers = (
{
anchors = (
{
name = bottom;
position = "{374, 0}";
},
{
name = ogonek;
position = "{496, 28}";
},
{
name = top;
position = "{374, 1600}";
},
{
name = topright;
position = "{648, 1600}";
}
);
layerId = "3B122060-26E0-4730-9241-82784E6CB359";
paths = (
{
closed = 1;
nodes = (
"538 -10 OFFCURVE",
"604 48 OFFCURVE",
"606 190 CURVE SMOOTH",
"612 668 OFFCURVE",
"610 1122 OFFCURVE",
"606 1600 CURVE",
"526 1600 LINE",
"530 1122 OFFCURVE",
"526 668 OFFCURVE",
"526 190 CURVE SMOOTH",
"526 96 OFFCURVE",
"494 70 OFFCURVE",
"374 70 CURVE SMOOTH",
"254 70 OFFCURVE",
"220 96 OFFCURVE",
"220 190 CURVE SMOOTH",
"220 668 OFFCURVE",
"218 1122 OFFCURVE",
"222 1600 CURVE",
"142 1600 LINE",
"138 1122 OFFCURVE",
"136 668 OFFCURVE",
"142 190 CURVE SMOOTH",
"144 48 OFFCURVE",
"210 -10 OFFCURVE",
"374 -10 CURVE SMOOTH"
);
}
);
width = 748;
},
{
anchors = (
{
name = bottom;
position = "{526, 0}";
},
{
name = ogonek;
position = "{724, 40}";
},
{
name = top;
position = "{526, 1600}";
},
{
name = topright;
position = "{988, 1600}";
}
);
layerId = "1DFA7D5B-2E97-4B89-827F-FB43F8066DC1";
paths = (
{
closed = 1;
nodes = (
"836 -20 OFFCURVE",
"962 94 OFFCURVE",
"966 382 CURVE SMOOTH",
"972 784 OFFCURVE",
"972 1198 OFFCURVE",
"966 1600 CURVE",
"666 1600 LINE",
"674 1198 OFFCURVE",
"670 748 OFFCURVE",
"666 346 CURVE SMOOTH",
"666 268 OFFCURVE",
"616 224 OFFCURVE",
"526 224 CURVE SMOOTH",
"434 224 OFFCURVE",
"384 268 OFFCURVE",
"384 346 CURVE SMOOTH",
"380 748 OFFCURVE",
"376 1198 OFFCURVE",
"384 1600 CURVE",
"84 1600 LINE",
"78 1198 OFFCURVE",
"78 784 OFFCURVE",
"84 382 CURVE SMOOTH",
"88 94 OFFCURVE",
"214 -20 OFFCURVE",
"526 -20 CURVE SMOOTH"
);
}
);
width = 1050;
},
{
anchors = (
{
name = bottom;
position = "{506, 0}";
},
{
name = ogonek;
position = "{622, 6}";
},
{
name = top;
position = "{506, 1600}";
},
{
name = topright;
position = "{968, 1600}";
}
);
layerId = "5013C991-8699-46CB-BB1C-82E334DBD38B";
paths = (
{
closed = 1;
nodes = (
"804 -20 OFFCURVE",
"922 94 OFFCURVE",
"926 382 CURVE SMOOTH",
"932 784 OFFCURVE",
"932 1198 OFFCURVE",
"926 1600 CURVE",
"626 1600 LINE",
"634 1198 OFFCURVE",
"630 728 OFFCURVE",
"626 326 CURVE SMOOTH",
"626 260 OFFCURVE",
"584 224 OFFCURVE",
"506 224 CURVE SMOOTH",
"428 224 OFFCURVE",
"384 260 OFFCURVE",
"384 326 CURVE SMOOTH",
"380 728 OFFCURVE",
"376 1198 OFFCURVE",
"384 1600 CURVE",
"84 1600 LINE",
"78 1198 OFFCURVE",
"78 784 OFFCURVE",
"84 382 CURVE SMOOTH",
"88 94 OFFCURVE",
"206 -20 OFFCURVE",
"506 -20 CURVE SMOOTH"
);
}
);
width = 1010;
},
{
anchors = (
{
name = bottom;
position = "{294, 0}";
},
{
name = ogonek;
position = "{390, 20}";
},
{
name = top;
position = "{294, 1600}";
},
{
name = topright;
position = "{508, 1600}";
}
);
layerId = "3D06B89B-468F-44E0-A3D7-A5BC6911123E";
paths = (
{
closed = 1;
nodes = (
"414 -10 OFFCURVE",
"464 42 OFFCURVE",
"466 170 CURVE SMOOTH",
"470 648 OFFCURVE",
"470 1122 OFFCURVE",
"466 1600 CURVE",
"426 1600 LINE",
"430 1122 OFFCURVE",
"430 648 OFFCURVE",
"426 170 CURVE SMOOTH",
"426 70 OFFCURVE",
"388 30 OFFCURVE",
"294 30 CURVE SMOOTH",
"200 30 OFFCURVE",
"160 70 OFFCURVE",
"160 170 CURVE SMOOTH",
"156 648 OFFCURVE",
"158 1122 OFFCURVE",
"162 1600 CURVE",
"122 1600 LINE",
"118 1122 OFFCURVE",
"118 648 OFFCURVE",
"122 170 CURVE SMOOTH",
"124 42 OFFCURVE",
"174 -10 OFFCURVE",
"294 -10 CURVE SMOOTH"
);
}
);
width = 588;
},
{
anchors = (
{
name = bottom;
position = "{347, 0}";
},
{
name = ogonek;
position = "{448, 17}";
},
{
name = top;
position = "{347, 1600}";
},
{
name = topright;
position = "{623, 1600}";
}
);
layerId = "C9EB94EC-C68D-4931-B320-068DCAB9FADA";
paths = (
{
closed = 1;
nodes = (
"512 -13 OFFCURVE",
"579 55 OFFCURVE",
"581 223 CURVE SMOOTH",
"586 682 OFFCURVE",
"586 1141 OFFCURVE",
"581 1600 CURVE",
"476 1600 LINE",
"481 1141 OFFCURVE",
"480 668 OFFCURVE",
"476 209 CURVE SMOOTH",
"476 118 OFFCURVE",
"437 79 OFFCURVE",
"347 79 CURVE SMOOTH",
"257 79 OFFCURVE",
"216 118 OFFCURVE",
"216 209 CURVE SMOOTH",
"212 668 OFFCURVE",
"213 1141 OFFCURVE",
"218 1600 CURVE",
"113 1600 LINE",
"108 1141 OFFCURVE",
"108 682 OFFCURVE",
"113 223 CURVE SMOOTH",
"115 55 OFFCURVE",
"182 -13 OFFCURVE",
"347 -13 CURVE SMOOTH"
);
}
);
width = 694;
},
{
anchors = (
{
name = bottom;
position = "{412, 0}";
},
{
name = ogonek;
position = "{553, 31}";
},
{
name = top;
position = "{412, 1600}";
},
{
name = topright;
position = "{733, 1600}";
}
);
layerId = "6F82CFD7-79D5-473B-9D61-BE5DF154BBF2";
paths = (
{
closed = 1;
nodes = (
"613 -13 OFFCURVE",
"694 60 OFFCURVE",
"696 238 CURVE SMOOTH",
"702 697 OFFCURVE",
"701 1141 OFFCURVE",
"696 1600 CURVE",
"561 1600 LINE",
"566 1141 OFFCURVE",
"562 688 OFFCURVE",
"561 229 CURVE SMOOTH",
"561 139 OFFCURVE",
"525 109 OFFCURVE",
"412 109 CURVE SMOOTH",
"299 109 OFFCURVE",
"261 139 OFFCURVE",
"261 229 CURVE SMOOTH",
"260 688 OFFCURVE",
"258 1141 OFFCURVE",
"263 1600 CURVE",
"128 1600 LINE",
"123 1141 OFFCURVE",
"122 697 OFFCURVE",
"128 238 CURVE SMOOTH",
"130 60 OFFCURVE",
"211 -13 OFFCURVE",
"412 -13 CURVE SMOOTH"
);
}
);
width = 824;
}
);
leftKerningGroup = H;
rightKerningGroup = H;
unicode = 0055;
},
{
glyphname = V;
layers = (
{
layerId = "3B122060-26E0-4730-9241-82784E6CB359";
paths = (
{
closed = 1;
nodes = (
"440 0 LINE",
"588 1600 LINE",
"504 1600 LINE",
"420 660 LINE",
"368 76 LINE",
"300 76 LINE",
"248 660 LINE",
"164 1600 LINE",
"80 1600 LINE",
"228 0 LINE"
);
}
);
width = 668;
},
{
layerId = "1DFA7D5B-2E97-4B89-827F-FB43F8066DC1";
paths = (
{
closed = 1;
nodes = (
"796 0 LINE",
"1028 1600 LINE",
"718 1600 LINE",
"600 798 LINE",
"582 264 LINE",
"486 264 LINE",
"468 798 LINE",
"350 1600 LINE",
"40 1600 LINE",
"272 0 LINE"
);
}
);
width = 1068;
},
{
layerId = "5013C991-8699-46CB-BB1C-82E334DBD38B";
paths = (
{
closed = 1;
nodes = (
"756 0 LINE",
"988 1600 LINE",
"678 1600 LINE",
"560 798 LINE",
"542 264 LINE",
"486 264 LINE",
"468 798 LINE",
"350 1600 LINE",
"40 1600 LINE",
"272 0 LINE"
);
}
);
width = 1028;
},
{
layerId = "3D06B89B-468F-44E0-A3D7-A5BC6911123E";
paths = (
{
closed = 1;
nodes = (
"300 0 LINE",
"448 1600 LINE",
"404 1600 LINE",
"320 660 LINE",
"266 40 LINE",
"242 40 LINE",
"188 660 LINE",
"104 1600 LINE",
"60 1600 LINE",
"208 0 LINE"
);
}
);
width = 508;
},
{
layerId = "C9EB94EC-C68D-4931-B320-068DCAB9FADA";
paths = (
{
closed = 1;
nodes = (
"414 0 LINE",
"584 1600 LINE",
"472 1600 LINE",
"380 694 LINE",
"336 96 LINE",
"302 96 LINE",
"258 694 LINE",
"166 1600 LINE",
"56 1600 LINE",
"224 0 LINE"
);
}
);
width = 638;
},
{
layerId = "6F82CFD7-79D5-473B-9D61-BE5DF154BBF2";
paths = (
{
closed = 1;
nodes = (
"514 0 LINE",
"684 1600 LINE",
"542 1600 LINE",
"450 694 LINE",
"408 124 LINE",
"330 124 LINE",
"288 694 LINE",
"196 1600 LINE",
"56 1600 LINE",
"224 0 LINE"
);
}
);
width = 738;
}
);
leftKerningGroup = V;
rightKerningGroup = V;
unicode = 0056;
},
{
glyphname = W;
layers = (
{
anchors = (
{
name = bottom;
position = "{538, 0}";
},
{
name = top;
position = "{538, 1600}";
}
);
layerId = "3B122060-26E0-4730-9241-82784E6CB359";
paths = (
{
closed = 1;
nodes = (
"396 0 LINE",
"436 568 LINE",
"506 1514 LINE",
"574 1514 LINE",
"642 568 LINE",
"682 0 LINE",
"894 0 LINE",
"982 1600 LINE",
"902 1600 LINE",
"876 1070 LINE",
"822 76 LINE",
"754 76 LINE",
"682 1070 LINE",
"646 1590 LINE",
"432 1590 LINE",
"394 1070 LINE",
"324 76 LINE",
"256 76 LINE",
"206 1070 LINE",
"180 1600 LINE",
"100 1600 LINE",
"184 0 LINE"
);
}
);
width = 1082;
},
{
anchors = (
{
name = bottom;
position = "{806, 0}";
},
{
name = top;
position = "{806, 1600}";
}
);
background = {
paths = (
{
closed = 1;
nodes = (
"712 0 LINE",
"784 562 LINE",
"802 1292 LINE",
"852 1292 LINE",
"870 562 LINE",
"942 0 LINE",
"1464 0 LINE",
"1580 1600 LINE",
"1254 1600 LINE",
"1228 1144 LINE",
"1222 264 LINE",
"1162 264 LINE",
"1142 1144 LINE",
"1082 1590 LINE",
"572 1590 LINE",
"512 1144 LINE",
"500 264 LINE",
"440 264 LINE",
"426 1144 LINE",
"400 1600 LINE",
"74 1600 LINE",
"190 0 LINE"
);
}
);
};
layerId = "1DFA7D5B-2E97-4B89-827F-FB43F8066DC1";
paths = (
{
closed = 1;
nodes = (
"722 0 LINE",
"796 446 LINE",
"820 1336 LINE",
"912 1336 LINE",
"936 446 LINE",
"1010 0 LINE",
"1540 0 LINE",
"1692 1600 LINE",
"1390 1600 LINE",
"1338 868 LINE",
"1308 264 LINE",
"1214 264 LINE",
"1218 868 LINE",
"1078 1590 LINE",
"654 1590 LINE",
"514 868 LINE",
"518 264 LINE",
"424 264 LINE",
"394 868 LINE",
"342 1600 LINE",
"40 1600 LINE",
"192 0 LINE"
);
}
);
width = 1732;
},
{
anchors = (
{
name = bottom;
position = "{806, 0}";
},
{
name = top;
position = "{806, 1600}";
}
);
background = {
paths = (
{
closed = 1;
nodes = (
"712 0 LINE",
"784 562 LINE",
"802 1292 LINE",
"852 1292 LINE",
"870 562 LINE",
"942 0 LINE",
"1464 0 LINE",
"1580 1600 LINE",
"1254 1600 LINE",
"1228 1144 LINE",
"1222 264 LINE",
"1162 264 LINE",
"1142 1144 LINE",
"1082 1590 LINE",
"572 1590 LINE",
"512 1144 LINE",
"500 264 LINE",
"440 264 LINE",
"426 1144 LINE",
"400 1600 LINE",
"74 1600 LINE",
"190 0 LINE"
);
}
);
};
layerId = "5013C991-8699-46CB-BB1C-82E334DBD38B";
paths = (
{
closed = 1;
nodes = (
"682 0 LINE",
"756 446 LINE",
"780 1336 LINE",
"832 1336 LINE",
"856 446 LINE",
"930 0 LINE",
"1420 0 LINE",
"1572 1600 LINE",
"1270 1600 LINE",
"1218 868 LINE",
"1188 264 LINE",
"1134 264 LINE",
"1138 868 LINE",
"998 1590 LINE",
"614 1590 LINE",
"474 868 LINE",
"478 264 LINE",
"424 264 LINE",
"394 868 LINE",
"342 1600 LINE",
"40 1600 LINE",
"192 0 LINE"
);
}
);
width = 1612;
},
{
anchors = (
{
name = bottom;
position = "{382, 0}";
},
{
name = top;
position = "{382, 1600}";
}
);
layerId = "3D06B89B-468F-44E0-A3D7-A5BC6911123E";
paths = (
{
closed = 1;
nodes = (
"256 0 LINE",
"296 568 LINE",
"368 1550 LINE",
"392 1550 LINE",
"462 568 LINE",
"502 0 LINE",
"594 0 LINE",
"682 1600 LINE",
"642 1600 LINE",
"616 1070 LINE",
"560 40 LINE",
"536 40 LINE",
"462 1070 LINE",
"426 1590 LINE",
"332 1590 LINE",
"294 1070 LINE",
"222 40 LINE",
"198 40 LINE",
"146 1070 LINE",
"120 1600 LINE",
"80 1600 LINE",
"164 0 LINE"
);
}
);
width = 762;
},
{
anchors = (
{
name = bottom;
position = "{488, 0}";
},
{
name = top;
position = "{488, 1600}";
}
);
layerId = "C9EB94EC-C68D-4931-B320-068DCAB9FADA";
paths = (
{
closed = 1;
nodes = (
"362 0 LINE",
"412 538 LINE",
"472 1496 LINE",
"502 1496 LINE",
"560 538 LINE",
"610 0 LINE",
"800 0 LINE",
"904 1600 LINE",
"800 1600 LINE",
"766 1020 LINE",
"718 96 LINE",
"686 96 LINE",
"632 1020 LINE",
"570 1590 LINE",
"402 1590 LINE",
"340 1020 LINE",
"286 96 LINE",
"254 96 LINE",
"208 1020 LINE",
"176 1600 LINE",
"70 1600 LINE",
"172 0 LINE"
);
}
);
width = 974;
},
{
anchors = (
{
name = bottom;
position = "{590, 0}";
},
{
name = top;
position = "{590, 1600}";
}
);
layerId = "6F82CFD7-79D5-473B-9D61-BE5DF154BBF2";
paths = (
{
closed = 1;
nodes = (
"462 0 LINE",
"512 538 LINE",
"570 1470 LINE",
"644 1470 LINE",
"700 538 LINE",
"750 0 LINE",
"1040 0 LINE",
"1144 1600 LINE",
"1010 1600 LINE",
"976 1020 LINE",
"930 124 LINE",
"854 124 LINE",
"802 1020 LINE",
"740 1590 LINE",
"472 1590 LINE",
"410 1020 LINE",
"358 124 LINE",
"282 124 LINE",
"238 1020 LINE",
"206 1600 LINE",
"70 1600 LINE",
"172 0 LINE"
);
}
);
width = 1214;
}
);
leftKerningGroup = W;
rightKerningGroup = W;
unicode = 0057;
},
{
glyphname = X;
layers = (
{
background = {
paths = (
{
closed = 1;
nodes = (
"164 0 LINE",
"226 386 LINE",
"290 800 LINE",
"314 800 LINE",
"382 396 LINE",
"444 0 LINE",
"488 0 LINE",
"346 848 LINE",
"346 798 LINE",
"478 1600 LINE",
"434 1600 LINE",
"384 1272 LINE",
"314 846 LINE",
"290 846 LINE",
"224 1266 LINE",
"174 1600 LINE",
"130 1600 LINE",
"258 798 LINE",
"258 848 LINE",
"120 0 LINE"
);
}
);
};
layerId = "3B122060-26E0-4730-9241-82784E6CB359";
paths = (
{
closed = 1;
nodes = (
"158 0 LINE",
"232 396 LINE",
"304 766 LINE",
"360 766 LINE",
"432 396 LINE",
"506 0 LINE",
"584 0 LINE",
"430 806 LINE",
"574 1600 LINE",
"496 1600 LINE",
"428 1220 LINE",
"360 842 LINE",
"304 842 LINE",
"236 1220 LINE",
"168 1600 LINE",
"90 1600 LINE",
"234 806 LINE",
"80 0 LINE"
);
}
);
width = 664;
},
{
background = {
paths = (
{
closed = 1;
nodes = (
"346 0 LINE",
"440 394 LINE",
"468 702 LINE",
"522 702 LINE",
"554 394 LINE",
"650 0 LINE",
"952 0 LINE",
"714 896 LINE",
"708 726 LINE",
"944 1600 LINE",
"632 1600 LINE",
"556 1228 LINE",
"528 926 LINE",
"472 926 LINE",
"442 1228 LINE",
"366 1600 LINE",
"54 1600 LINE",
"290 786 LINE",
"280 932 LINE",
"40 0 LINE"
);
}
);
};
guideLines = (
{
position = "{178, 405}";
},
{
angle = 90;
position = "{178, 405}";
}
);
layerId = "1DFA7D5B-2E97-4B89-827F-FB43F8066DC1";
paths = (
{
closed = 1;
nodes = (
"334 0 LINE",
"444 394 LINE",
"470 688 LINE",
"550 688 LINE",
"576 394 LINE",
"682 0 LINE",
"976 0 LINE",
"738 822 LINE",
"970 1600 LINE",
"676 1600 LINE",
"576 1226 LINE",
"550 952 LINE",
"470 952 LINE",
"444 1226 LINE",
"340 1600 LINE",
"46 1600 LINE",
"290 832 LINE",
"40 0 LINE"
);
}
);
width = 1016;
},
{
background = {
paths = (
{
closed = 1;
nodes = (
"306 0 LINE",
"400 394 LINE",
"428 702 LINE",
"482 702 LINE",
"514 394 LINE",
"610 0 LINE",
"912 0 LINE",
"674 896 LINE",
"668 726 LINE",
"904 1600 LINE",
"592 1600 LINE",
"516 1228 LINE",
"488 926 LINE",
"432 926 LINE",
"402 1228 LINE",
"326 1600 LINE",
"14 1600 LINE",
"250 786 LINE",
"240 932 LINE",
"0 0 LINE"
);
}
);
};
guideLines = (
{
position = "{158, 405}";
},
{
angle = 90;
position = "{158, 405}";
}
);
layerId = "5013C991-8699-46CB-BB1C-82E334DBD38B";
paths = (
{
closed = 1;
nodes = (
"334 0 LINE",
"444 394 LINE",
"470 688 LINE",
"510 688 LINE",
"536 394 LINE",
"642 0 LINE",
"936 0 LINE",
"698 822 LINE",
"930 1600 LINE",
"636 1600 LINE",
"536 1226 LINE",
"510 952 LINE",
"470 952 LINE",
"444 1226 LINE",
"340 1600 LINE",
"46 1600 LINE",
"290 832 LINE",
"40 0 LINE"
);
}
);
width = 976;
},
{
background = {
paths = (
{
closed = 1;
nodes = (
"84 0 LINE",
"146 386 LINE",
"210 800 LINE",
"234 800 LINE",
"302 396 LINE",
"364 0 LINE",
"408 0 LINE",
"266 848 LINE",
"266 798 LINE",
"398 1600 LINE",
"354 1600 LINE",
"304 1272 LINE",
"234 846 LINE",
"210 846 LINE",
"144 1266 LINE",
"94 1600 LINE",
"50 1600 LINE",
"178 798 LINE",
"178 848 LINE",
"40 0 LINE"
);
}
);
};
layerId = "3D06B89B-468F-44E0-A3D7-A5BC6911123E";
paths = (
{
closed = 1;
nodes = (
"98 0 LINE",
"172 396 LINE",
"246 784 LINE",
"258 784 LINE",
"332 396 LINE",
"406 0 LINE",
"444 0 LINE",
"290 806 LINE",
"434 1600 LINE",
"396 1600 LINE",
"328 1220 LINE",
"258 824 LINE",
"246 824 LINE",
"176 1220 LINE",
"108 1600 LINE",
"70 1600 LINE",
"214 806 LINE",
"60 0 LINE"
);
}
);
width = 504;
},
{
layerId = "C9EB94EC-C68D-4931-B320-068DCAB9FADA";
paths = (
{
closed = 1;
nodes = (
"157 0 LINE",
"240 396 LINE",
"302 760 LINE",
"321 760 LINE",
"383 396 LINE",
"465 0 LINE",
"567 0 LINE",
"392 810 LINE",
"558 1600 LINE",
"456 1600 LINE",
"380 1222 LINE",
"321 856 LINE",
"302 856 LINE",
"243 1222 LINE",
"166 1600 LINE",
"64 1600 LINE",
"233 813 LINE",
"55 0 LINE"
);
}
);
width = 622;
},
{
layerId = "6F82CFD7-79D5-473B-9D61-BE5DF154BBF2";
paths = (
{
closed = 1;
nodes = (
"202 0 LINE",
"285 396 LINE",
"346 747 LINE",
"408 747 LINE",
"468 396 LINE",
"550 0 LINE",
"682 0 LINE",
"507 810 LINE",
"673 1600 LINE",
"541 1600 LINE",
"465 1222 LINE",
"408 870 LINE",
"346 870 LINE",
"288 1222 LINE",
"211 1600 LINE",
"79 1600 LINE",
"248 813 LINE",
"70 0 LINE"
);
}
);
width = 752;
}
);
leftKerningGroup = X;
rightKerningGroup = X;
unicode = 0058;
},
{
glyphname = Y;
layers = (
{
anchors = (
{
name = bottom;
position = "{334, 0}";
},
{
name = top;
position = "{334, 1600}";
},
{
name = topleft;
position = "{100, 1600}";
}
);
layerId = "3B122060-26E0-4730-9241-82784E6CB359";
paths = (
{
closed = 1;
nodes = (
"374 0 LINE",
"374 580 LINE",
"436 580 LINE",
"588 1600 LINE",
"504 1600 LINE",
"432 1112 LINE",
"366 662 LINE",
"302 662 LINE",
"236 1112 LINE",
"164 1600 LINE",
"80 1600 LINE",
"232 580 LINE",
"294 580 LINE",
"294 0 LINE"
);
}
);
width = 668;
},
{
anchors = (
{
name = bottom;
position = "{492, 0}";
},
{
name = top;
position = "{492, 1600}";
},
{
name = topleft;
position = "{40, 1600}";
}
);
layerId = "1DFA7D5B-2E97-4B89-827F-FB43F8066DC1";
paths = (
{
closed = 1;
nodes = (
"640 0 LINE",
"640 510 LINE",
"670 510 LINE",
"940 1600 LINE",
"634 1600 LINE",
"548 1212 LINE",
"518 742 LINE",
"462 742 LINE",
"432 1212 LINE",
"346 1600 LINE",
"40 1600 LINE",
"308 510 LINE",
"340 510 LINE",
"340 0 LINE"
);
}
);
width = 980;
},
{
anchors = (
{
name = bottom;
position = "{492, 0}";
},
{
name = top;
position = "{480, 1600}";
},
{
name = topleft;
position = "{40, 1600}";
}
);
layerId = "5013C991-8699-46CB-BB1C-82E334DBD38B";
paths = (
{
closed = 1;
nodes = (
"640 0 LINE",
"640 380 LINE",
"640 382 LINE",
"940 1600 LINE",
"634 1600 LINE",
"548 1212 LINE",
"518 742 LINE",
"462 742 LINE",
"432 1212 LINE",
"346 1600 LINE",
"40 1600 LINE",
"340 382 LINE",
"340 380 LINE",
"340 0 LINE"
);
}
);
width = 980;
},
{
anchors = (
{
name = bottom;
position = "{254, 0}";
},
{
name = top;
position = "{254, 1600}";
},
{
name = topleft;
position = "{60, 1600}";
}
);
layerId = "3D06B89B-468F-44E0-A3D7-A5BC6911123E";
paths = (
{
closed = 1;
nodes = (
"274 0 LINE",
"274 436 LINE",
"274 438 LINE",
"448 1600 LINE",
"404 1600 LINE",
"332 1112 LINE",
"266 662 LINE",
"242 662 LINE",
"176 1112 LINE",
"104 1600 LINE",
"60 1600 LINE",
"234 438 LINE",
"234 436 LINE",
"234 0 LINE"
);
}
);
width = 508;
},
{
anchors = (
{
name = bottom;
position = "{314, 0}";
},
{
name = top;
position = "{310, 1600}";
},
{
name = topleft;
position = "{56, 1600}";
}
);
layerId = "C9EB94EC-C68D-4931-B320-068DCAB9FADA";
paths = (
{
closed = 1;
nodes = (
"366 0 LINE",
"366 424 LINE",
"366 426 LINE",
"572 1600 LINE",
"462 1600 LINE",
"386 1138 LINE",
"330 682 LINE",
"298 682 LINE",
"240 1138 LINE",
"164 1600 LINE",
"56 1600 LINE",
"260 428 LINE",
"260 426 LINE",
"260 0 LINE"
);
}
);
width = 626;
},
{
anchors = (
{
name = bottom;
position = "{358, 0}";
},
{
name = top;
position = "{358, 1600}";
},
{
name = topleft;
position = "{70, 1600}";
}
);
layerId = "6F82CFD7-79D5-473B-9D61-BE5DF154BBF2";
paths = (
{
closed = 1;
nodes = (
"426 0 LINE",
"426 562 LINE",
"480 562 LINE",
"662 1600 LINE",
"522 1600 LINE",
"446 1138 LINE",
"390 682 LINE",
"328 682 LINE",
"270 1138 LINE",
"194 1600 LINE",
"56 1600 LINE",
"236 562 LINE",
"290 562 LINE",
"290 0 LINE"
);
}
);
width = 716;
}
);
leftKerningGroup = V;
rightKerningGroup = V;
unicode = 0059;
},
{
glyphname = Z;
layers = (
{
anchors = (
{
name = bottom;
position = "{280, 0}";
},
{
name = center;
position = "{280, 800}";
},
{
name = top;
position = "{306, 1600}";
}
);
layerId = "3B122060-26E0-4730-9241-82784E6CB359";
paths = (
{
closed = 1;
nodes = (
"478 0 LINE",
"478 76 LINE",
"164 76 LINE",
"518 1530 LINE",
"518 1600 LINE",
"102 1600 LINE",
"102 1524 LINE",
"434 1524 LINE",
"80 66 LINE",
"80 0 LINE"
);
}
);
width = 598;
},
{
anchors = (
{
name = bottom;
position = "{418, 0}";
},
{
name = center;
position = "{418, 800}";
},
{
name = top;
position = "{450, 1600}";
}
);
layerId = "1DFA7D5B-2E97-4B89-827F-FB43F8066DC1";
paths = (
{
closed = 1;
nodes = (
"816 0 LINE",
"816 264 LINE",
"344 264 LINE",
"846 1344 LINE",
"846 1600 LINE",
"64 1600 LINE",
"64 1336 LINE",
"524 1336 LINE",
"40 250 LINE",
"40 0 LINE"
);
}
);
width = 886;
},
{
anchors = (
{
name = bottom;
position = "{418, 0}";
},
{
name = center;
position = "{418, 800}";
},
{
name = top;
position = "{418, 1600}";
}
);
layerId = "5013C991-8699-46CB-BB1C-82E334DBD38B";
paths = (
{
closed = 1;
nodes = (
"776 0 LINE",
"776 264 LINE",
"340 264 LINE",
"806 1344 LINE",
"806 1600 LINE",
"64 1600 LINE",
"64 1336 LINE",
"486 1336 LINE",
"40 250 LINE",
"40 0 LINE"
);
}
);
width = 846;
},
{
anchors = (
{
name = bottom;
position = "{260, 0}";
},
{
name = center;
position = "{260, 800}";
},
{
name = top;
position = "{260, 1600}";
}
);
layerId = "3D06B89B-468F-44E0-A3D7-A5BC6911123E";
paths = (
{
closed = 1;
nodes = (
"418 0 LINE",
"418 40 LINE",
"104 40 LINE",
"458 1570 LINE",
"458 1600 LINE",
"82 1600 LINE",
"82 1560 LINE",
"412 1560 LINE",
"60 30 LINE",
"60 0 LINE"
);
}
);
width = 518;
},
{
anchors = (
{
name = bottom;
position = "{300, 0}";
},
{
name = center;
position = "{300, 800}";
},
{
name = top;
position = "{300, 1600}";
}
);
layerId = "C9EB94EC-C68D-4931-B320-068DCAB9FADA";
paths = (
{
closed = 1;
nodes = (
"508 0 LINE",
"508 96 LINE",
"163 96 LINE",
"545 1514 LINE",
"545 1600 LINE",
"78 1600 LINE",
"78 1504 LINE",
"431 1504 LINE",
"55 85 LINE",
"55 0 LINE"
);
}
);
width = 600;
},
{
anchors = (
{
name = bottom;
position = "{315, 0}";
},
{
name = center;
position = "{315, 800}";
},
{
name = top;
position = "{342, 1600}";
}
);
layerId = "6F82CFD7-79D5-473B-9D61-BE5DF154BBF2";
paths = (
{
closed = 1;
nodes = (
"563 0 LINE",
"563 123 LINE",
"209 123 LINE",
"600 1484 LINE",
"600 1600 LINE",
"93 1600 LINE",
"93 1477 LINE",
"457 1477 LINE",
"70 112 LINE",
"70 0 LINE"
);
}
);
width = 670;
}
);
leftKerningGroup = Z;
rightKerningGroup = Z;
unicode = 005A;
},
{
glyphname = R.ss01;
layers = (
{
anchors = (
{
name = bottom;
position = "{330, 0}";
},
{
name = top;
position = "{330, 1600}";
}
);
layerId = "3B122060-26E0-4730-9241-82784E6CB359";
paths = (
{
closed = 1;
nodes = (
"220 0 LINE",
"220 716 LINE",
"344 716 LINE SMOOTH",
"446 716 OFFCURVE",
"474 688 OFFCURVE",
"476 588 CURVE SMOOTH",
"480 400 OFFCURVE",
"480 232 OFFCURVE",
"478 0 CURVE",
"558 0 LINE",
"560 230 OFFCURVE",
"558 398 OFFCURVE",
"556 588 CURVE SMOOTH",
"554 690 OFFCURVE",
"516 740 OFFCURVE",
"430 752 CURVE",
"430 760 LINE",
"512 774 OFFCURVE",
"548 824 OFFCURVE",
"552 924 CURVE SMOOTH",
"558 1066 OFFCURVE",
"558 1206 OFFCURVE",
"552 1414 CURVE SMOOTH",
"548 1546 OFFCURVE",
"482 1600 OFFCURVE",
"320 1600 CURVE SMOOTH",
"140 1600 LINE",
"140 0 LINE"
);
},
{
closed = 1;
nodes = (
"220 1520 LINE",
"320 1520 LINE SMOOTH",
"436 1520 OFFCURVE",
"468 1498 OFFCURVE",
"472 1414 CURVE SMOOTH",
"478 1238 OFFCURVE",
"478 1096 OFFCURVE",
"472 920 CURVE SMOOTH",
"468 820 OFFCURVE",
"438 792 OFFCURVE",
"338 792 CURVE SMOOTH",
"220 792 LINE"
);
}
);
width = 698;
},
{
anchors = (
{
name = bottom;
position = "{492, 0}";
},
{
name = top;
position = "{492, 1600}";
}
);
background = {
paths = (
{
closed = 1;
nodes = (
"530 1310 OFFCURVE",
"576 1270 OFFCURVE",
"576 1200 CURVE SMOOTH",
"576 1010 LINE SMOOTH",
"576 926 OFFCURVE",
"530 880 OFFCURVE",
"446 880 CURVE SMOOTH",
"266 880 LINE",
"266 726 LINE",
"446 728 LINE SMOOTH",
"746 732 OFFCURVE",
"868 822 OFFCURVE",
"876 1066 CURVE SMOOTH",
"878 1124 OFFCURVE",
"878 1150 OFFCURVE",
"876 1210 CURVE SMOOTH",
"866 1488 OFFCURVE",
"742 1600 OFFCURVE",
"446 1600 CURVE SMOOTH",
"274 1600 LINE",
"274 1310 LINE",
"446 1310 LINE SMOOTH"
);
},
{
closed = 1;
nodes = (
"360 0 LINE",
"360 1600 LINE",
"60 1600 LINE",
"60 0 LINE"
);
},
{
closed = 1;
nodes = (
"924 18 LINE",
"898 54 OFFCURVE",
"876 130 OFFCURVE",
"874 176 CURVE SMOOTH",
"868 430 LINE SMOOTH",
"862 686 OFFCURVE",
"744 788 OFFCURVE",
"454 788 CURVE SMOOTH",
"266 788 LINE",
"266 620 LINE",
"442 620 LINE SMOOTH",
"524 620 OFFCURVE",
"566 568 OFFCURVE",
"568 476 CURVE SMOOTH",
"574 176 LINE SMOOTH",
"576 106 OFFCURVE",
"602 44 OFFCURVE",
"646 0 CURVE",
"924 0 LINE"
);
},
{
closed = 1;
nodes = (
"614 734 LINE",
"678 734 LINE",
"678 782 LINE",
"614 782 LINE"
);
}
);
};
layerId = "1DFA7D5B-2E97-4B89-827F-FB43F8066DC1";
paths = (
{
closed = 1;
nodes = (
"380 0 LINE",
"380 614 LINE",
"502 614 LINE SMOOTH",
"584 614 OFFCURVE",
"630 562 OFFCURVE",
"634 470 CURVE SMOOTH",
"640 322 OFFCURVE",
"644 148 OFFCURVE",
"642 0 CURVE",
"942 0 LINE",
"944 138 OFFCURVE",
"940 290 OFFCURVE",
"934 428 CURVE SMOOTH",
"926 592 OFFCURVE",
"864 678 OFFCURVE",
"718 714 CURVE",
"718 760 LINE",
"866 798 OFFCURVE",
"930 886 OFFCURVE",
"936 1044 CURVE SMOOTH",
"938 1102 OFFCURVE",
"938 1150 OFFCURVE",
"936 1210 CURVE SMOOTH",
"926 1488 OFFCURVE",
"804 1600 OFFCURVE",
"506 1600 CURVE SMOOTH",
"80 1600 LINE",
"80 0 LINE"
);
},
{
closed = 1;
nodes = (
"380 1336 LINE",
"506 1336 LINE SMOOTH",
"590 1336 OFFCURVE",
"636 1296 OFFCURVE",
"636 1226 CURVE SMOOTH",
"636 1154 OFFCURVE",
"636 1082 OFFCURVE",
"636 1010 CURVE SMOOTH",
"636 926 OFFCURVE",
"590 880 OFFCURVE",
"506 880 CURVE SMOOTH",
"380 880 LINE"
);
}
);
width = 1022;
},
{
anchors = (
{
name = bottom;
position = "{472, 0}";
},
{
name = top;
position = "{472, 1600}";
}
);
background = {
paths = (
{
closed = 1;
nodes = (
"530 1310 OFFCURVE",
"576 1270 OFFCURVE",
"576 1200 CURVE SMOOTH",
"576 1010 LINE SMOOTH",
"576 926 OFFCURVE",
"530 880 OFFCURVE",
"446 880 CURVE SMOOTH",
"266 880 LINE",
"266 726 LINE",
"446 728 LINE SMOOTH",
"746 732 OFFCURVE",
"868 822 OFFCURVE",
"876 1066 CURVE SMOOTH",
"878 1124 OFFCURVE",
"878 1150 OFFCURVE",
"876 1210 CURVE SMOOTH",
"866 1488 OFFCURVE",
"742 1600 OFFCURVE",
"446 1600 CURVE SMOOTH",
"274 1600 LINE",
"274 1310 LINE",
"446 1310 LINE SMOOTH"
);
},
{
closed = 1;
nodes = (
"360 0 LINE",
"360 1600 LINE",
"60 1600 LINE",
"60 0 LINE"
);
},
{
closed = 1;
nodes = (
"924 18 LINE",
"898 54 OFFCURVE",
"876 130 OFFCURVE",
"874 176 CURVE SMOOTH",
"868 430 LINE SMOOTH",
"862 686 OFFCURVE",
"744 788 OFFCURVE",
"454 788 CURVE SMOOTH",
"266 788 LINE",
"266 620 LINE",
"442 620 LINE SMOOTH",
"524 620 OFFCURVE",
"566 568 OFFCURVE",
"568 476 CURVE SMOOTH",
"574 176 LINE SMOOTH",
"576 106 OFFCURVE",
"602 44 OFFCURVE",
"646 0 CURVE",
"924 0 LINE"
);
},
{
closed = 1;
nodes = (
"614 734 LINE",
"678 734 LINE",
"678 782 LINE",
"614 782 LINE"
);
}
);
};
layerId = "5013C991-8699-46CB-BB1C-82E334DBD38B";
paths = (
{
closed = 1;
nodes = (
"380 0 LINE",
"380 614 LINE",
"462 614 LINE SMOOTH",
"544 614 OFFCURVE",
"590 562 OFFCURVE",
"594 470 CURVE SMOOTH",
"600 322 OFFCURVE",
"604 148 OFFCURVE",
"602 0 CURVE",
"902 0 LINE",
"904 138 OFFCURVE",
"900 290 OFFCURVE",
"894 428 CURVE SMOOTH",
"886 592 OFFCURVE",
"824 678 OFFCURVE",
"678 714 CURVE",
"678 760 LINE",
"826 798 OFFCURVE",
"890 886 OFFCURVE",
"896 1044 CURVE SMOOTH",
"898 1102 OFFCURVE",
"898 1150 OFFCURVE",
"896 1210 CURVE SMOOTH",
"886 1488 OFFCURVE",
"764 1600 OFFCURVE",
"466 1600 CURVE SMOOTH",
"80 1600 LINE",
"80 0 LINE"
);
},
{
closed = 1;
nodes = (
"380 1336 LINE",
"466 1336 LINE SMOOTH",
"550 1336 OFFCURVE",
"596 1296 OFFCURVE",
"596 1226 CURVE SMOOTH",
"596 1154 OFFCURVE",
"596 1082 OFFCURVE",
"596 1010 CURVE SMOOTH",
"596 926 OFFCURVE",
"550 880 OFFCURVE",
"466 880 CURVE SMOOTH",
"380 880 LINE"
);
}
);
width = 982;
},
{
anchors = (
{
name = bottom;
position = "{294, 0}";
},
{
name = top;
position = "{280, 1600}";
}
);
layerId = "3D06B89B-468F-44E0-A3D7-A5BC6911123E";
paths = (
{
closed = 1;
nodes = (
"160 0 LINE",
"160 734 LINE",
"284 734 LINE SMOOTH",
"376 734 OFFCURVE",
"414 692 OFFCURVE",
"416 588 CURVE SMOOTH",
"420 400 OFFCURVE",
"420 232 OFFCURVE",
"418 0 CURVE",
"458 0 LINE",
"460 138 OFFCURVE",
"458 306 OFFCURVE",
"456 588 CURVE SMOOTH",
"454 676 OFFCURVE",
"428 722 OFFCURVE",
"370 742 CURVE",
"370 770 LINE",
"424 790 OFFCURVE",
"450 838 OFFCURVE",
"452 924 CURVE SMOOTH",
"458 1066 OFFCURVE",
"458 1206 OFFCURVE",
"452 1414 CURVE SMOOTH",
"448 1546 OFFCURVE",
"398 1600 OFFCURVE",
"280 1600 CURVE SMOOTH",
"120 1600 LINE",
"120 0 LINE"
);
},
{
closed = 1;
nodes = (
"160 1560 LINE",
"280 1560 LINE SMOOTH",
"370 1560 OFFCURVE",
"408 1518 OFFCURVE",
"412 1414 CURVE SMOOTH",
"418 1238 OFFCURVE",
"418 1096 OFFCURVE",
"412 920 CURVE SMOOTH",
"408 816 OFFCURVE",
"370 774 OFFCURVE",
"278 774 CURVE SMOOTH",
"160 774 LINE"
);
}
);
width = 578;
},
{
anchors = (
{
name = bottom;
position = "{339, 0}";
},
{
name = top;
position = "{328, 1600}";
}
);
layerId = "C9EB94EC-C68D-4931-B320-068DCAB9FADA";
paths = (
{
closed = 1;
nodes = (
"215 0 LINE",
"215 704 LINE",
"329 704 LINE SMOOTH",
"418 704 OFFCURVE",
"458 660 OFFCURVE",
"461 559 CURVE SMOOTH",
"465 381 OFFCURVE",
"466 211 OFFCURVE",
"464 0 CURVE",
"569 0 LINE",
"571 138 OFFCURVE",
"569 302 OFFCURVE",
"566 548 CURVE SMOOTH",
"562 655 OFFCURVE",
"527 711 OFFCURVE",
"447 735 CURVE",
"447 768 LINE",
"525 792 OFFCURVE",
"560 850 OFFCURVE",
"563 954 CURVE SMOOTH",
"568 1075 OFFCURVE",
"568 1192 OFFCURVE",
"563 1363 CURVE SMOOTH",
"558 1532 OFFCURVE",
"490 1600 OFFCURVE",
"327 1600 CURVE SMOOTH",
"110 1600 LINE",
"110 0 LINE"
);
},
{
closed = 1;
nodes = (
"215 1504 LINE",
"327 1504 LINE SMOOTH",
"415 1504 OFFCURVE",
"455 1463 OFFCURVE",
"458 1367 CURVE SMOOTH",
"463 1217 OFFCURVE",
"463 1093 OFFCURVE",
"458 943 CURVE SMOOTH",
"455 844 OFFCURVE",
"415 801 OFFCURVE",
"325 801 CURVE SMOOTH",
"215 801 LINE"
);
}
);
width = 679;
},
{
anchors = (
{
name = bottom;
position = "{371, 0}";
},
{
name = top;
position = "{371, 1600}";
}
);
layerId = "6F82CFD7-79D5-473B-9D61-BE5DF154BBF2";
paths = (
{
closed = 1;
nodes = (
"260 0 LINE",
"260 691 LINE",
"384 691 LINE SMOOTH",
"481 691 OFFCURVE",
"513 657 OFFCURVE",
"516 559 CURVE SMOOTH",
"520 381 OFFCURVE",
"521 211 OFFCURVE",
"519 0 CURVE",
"654 0 LINE",
"656 207 OFFCURVE",
"654 371 OFFCURVE",
"651 548 CURVE SMOOTH",
"647 666 OFFCURVE",
"603 725 OFFCURVE",
"502 743 CURVE",
"502 760 LINE",
"601 780 OFFCURVE",
"644 840 OFFCURVE",
"648 954 CURVE SMOOTH",
"653 1075 OFFCURVE",
"653 1192 OFFCURVE",
"648 1363 CURVE SMOOTH",
"643 1532 OFFCURVE",
"563 1600 OFFCURVE",
"367 1600 CURVE SMOOTH",
"125 1600 LINE",
"125 0 LINE"
);
},
{
closed = 1;
nodes = (
"260 1474 LINE",
"367 1474 LINE SMOOTH",
"475 1474 OFFCURVE",
"510 1448 OFFCURVE",
"513 1367 CURVE SMOOTH",
"518 1217 OFFCURVE",
"518 1093 OFFCURVE",
"513 943 CURVE SMOOTH",
"510 847 OFFCURVE",
"476 814 OFFCURVE",
"380 814 CURVE SMOOTH",
"260 814 LINE"
);
}
);
width = 779;
}
);
leftKerningGroup = H;
rightKerningGroup = R;
},
